<svg width="100.000000pt" height="100.000000pt" viewBox="0 0 100.000000 100.000000" xmlns="http://www.w3.org/2000/svg">
  <g transform="translate(0.000000,100.000000) scale(0.100000,-0.100000)" fill="#fefefe" stroke="none">
    <path d="M0 500 l0 -500 500 0 500 0 0 500 0 500 -500 0 -500 0 0 -500z m449
196 l12 -14 -13 -21 c-7 -12 -15 -21 -18 -21 -3 0 -11 9 -18 21 l-13 21 12 14
c6 8 15 14 19 14 4 0 13 -6 19 -14z m-193 -102 l-6 -23 25 -27 c14 -15 25 -35
25 -46 0 -10 9 -37 19 -61 11 -23 24 -59 30 -80 l10 -38 -16 3 -16 3 -29 70
c-16 38 -31 86 -34 107 l-7 38 -13 0 c-8 0 -16 -12 -19 -27 -4 -16 -10 -36
-16 -45 -5 -10 -9 -23 -9 -28 0 -6 -9 -30 -20 -52 -11 -23 -20 -48 -20 -55 0
-7 -10 -17 -21 -24 l-22 -11 -8 13 c-5 8 -6 21 -3 29 4 8 9 25 11 38 3 12 9
22 14 22 5 0 9 16 9 35 0 19 5 35 10 35 6 0 10 7 10 15 0 8 4 23 9 33 5 9 17
36 26 59 16 39 38 56 58 45 5 -2 6 -15 3 -28z m600 18 l11 -7 -7 -20 -7 -20
-54 -5 -54 -5 -3 -27 -3 -26 19 -6 c11 -4 24 -6 28 -5 15 2 54 -13 54 -21 0
-4 9 -10 20 -13 l20 -5 0 -50 0 -49 -19 -21 -18 -22 -59 -6 -60 -6 -13 16 c-7
9 -11 23 -7 31 l5 15 40 0 c22 0 46 3 55 6 16 6 21 30 10 58 l-6 16 -27 0
c-15 0 -39 6 -53 12 l-27 13 -11 43 -10 43 17 24 c10 13 27 28 38 34 24 11
105 14 121 3z m-406 -147 l0 -145 -20 0 -20 0 0 145 0 145 20 0 20 0 0 -145z
m154 134 c13 -7 30 -25 37 -41 l12 -29 -17 -36 c-9 -19 -26 -37 -36 -40 l-20
-5 0 -24 c0 -13 6 -27 14 -31 7 -4 21 -22 29 -40 l17 -31 -14 -5 -14 -5 -21
24 c-11 13 -21 27 -21 32 -1 4 -16 30 -35 57 l-34 50 27 3 c15 1 37 5 50 7
l22 5 0 30 c0 16 -4 32 -10 35 -5 3 -29 9 -52 13 l-43 8 -3 17 -3 17 45 0 c25
0 56 -5 70 -11z" />
  </g>
  <g transform="translate(0.000000,100.000000) scale(0.100000,-0.100000)" fill="#fdfdf2" stroke="none">
    <path d="M410 760 c0 -5 5 -10 10 -10 6 0 10 5 10 10 0 6 -4 10 -10 10 -5 0
-10 -4 -10 -10z" />
    <path d="M440 756 c0 -2 8 -10 18 -17 l17 -14 -14 18 c-13 16 -21 21 -21 13z" />
    <path d="M360 690 c0 -7 3 -10 7 -7 3 4 3 10 0 14 -4 3 -7 0 -7 -7z" />
    <path d="M223 673 c4 -3 10 -3 14 0 3 4 0 7 -7 7 -7 0 -10 -3 -7 -7z" />
    <path d="M523 665 c-3 -9 -3 -18 -1 -21 3 -3 8 4 11 16 6 23 -1 27 -10 5z" />
    <path d="M540 650 c0 -7 3 -10 7 -7 3 4 3 10 0 14 -4 3 -7 0 -7 -7z" />
    <path d="M500 640 c0 -7 3 -10 7 -7 3 4 3 10 0 14 -4 3 -7 0 -7 -7z" />
    <path d="M219 633 c-9 -2 -24 -23 -34 -46 -9 -23 -21 -50 -26 -59 -5 -10 -9
-25 -9 -33 0 -8 -4 -15 -10 -15 -5 0 -10 -16 -10 -35 l0 -35 -15 0 c-8 0 -15
8 -15 17 l0 17 -12 -12 -12 -12 18 -19 18 -19 -11 -21 c-15 -26 -14 -47 2 -63
7 -7 16 -21 20 -30 3 -10 11 -18 17 -18 14 0 13 17 -1 26 l-12 7 24 18 c28 21
20 36 -10 19 l-21 -11 -6 15 c-3 8 3 34 14 58 11 23 32 79 47 123 34 100 42
115 61 115 l16 0 -6 -35 -7 -35 16 0 c8 0 15 3 16 8 8 78 1 89 -52 75z" />
    <path d="M324 628 l-7 -11 11 7 c7 4 12 9 12 12 0 8 -9 4 -16 -8z" />
    <path d="M462 627 l-11 -13 18 0 19 0 -5 13 c-3 7 -6 13 -8 13 -1 0 -7 -6 -13
-13z" />
    <path d="M713 628 c3 -9 3 -18 -1 -20 -4 -2 -17 -16 -29 -32 l-23 -28 10 -18
c6 -10 7 -26 4 -34 l-6 -16 11 0 c6 0 11 -6 11 -12 0 -7 12 -19 27 -25 33 -16
43 -16 43 -3 0 6 -8 10 -18 10 l-18 0 -17 29 c-20 34 -21 51 -6 85 l12 25 39
15 c48 20 82 20 98 1 19 -22 3 -35 -45 -35 l-44 0 -15 -16 c-30 -29 -13 -66
31 -70 15 -2 38 -6 51 -10 12 -3 22 -2 22 2 0 12 -57 37 -68 30 -13 -8 -35 11
-29 26 l5 15 48 1 c26 1 52 6 58 12 7 5 12 20 14 33 l2 24 -23 10 c-20 10
-106 7 -116 -3 -2 -2 -11 2 -19 9 l-16 12 7 -17z" />
    <path d="M927 633 c-4 -3 -7 -11 -7 -17 l0 -10 12 12 c6 6 9 14 7 17 -3 3 -9
2 -12 -2z" />
    <path d="M360 565 c0 -8 5 -15 10 -15 6 0 10 7 10 15 0 8 -4 15 -10 15 -5 0
-10 -7 -10 -15z" />
    <path d="M220 515 l0 -14 15 5 c8 4 12 10 9 15 -8 14 -24 10 -24 -6z" />
    <path d="M770 520 c0 -7 3 -10 7 -7 3 4 3 10 0 14 -4 3 -7 0 -7 -7z" />
    <path d="M523 513 c4 -3 10 -3 14 0 3 4 0 7 -7 7 -7 0 -10 -3 -7 -7z" />
    <path d="M30 488 l0 -23 10 15 c13 19 13 30 0 30 -5 0 -10 -10 -10 -22z" />
    <path d="M191 431 c-23 -63 -26 -85 -12 -77 5 4 12 0 15 -6 3 -7 4 -4 1 7 -4
19 14 88 28 101 10 10 9 34 -2 34 -4 0 -18 -26 -30 -59z" />
    <path d="M940 480 c0 -5 5 -10 11 -10 5 0 7 5 4 10 -3 6 -8 10 -11 10 -2 0 -4
-4 -4 -10z" />
    <path d="M484 458 l-7 -11 11 7 c12 7 16 16 8 16 -3 0 -8 -5 -12 -12z" />
    <path d="M862 453 l3 -18 23 -1 c27 -2 29 12 3 26 -27 14 -33 13 -29 -7z" />
    <path d="M624 428 l-7 -11 11 7 c12 7 16 16 8 16 -3 0 -8 -5 -12 -12z" />
    <path d="M254 408 c0 -10 3 -18 7 -18 4 0 9 8 11 18 l5 19 -11 0 c-7 0 -12 -9
-12 -19z" />
    <path d="M805 410 l7 -21 -19 -15 -18 -15 25 3 25 3 0 29 0 29 -14 5 -13 4 7
-22z" />
    <path d="M380 410 c0 -7 3 -10 7 -7 3 4 3 10 0 14 -4 3 -7 0 -7 -7z" />
    <path d="M675 411 c-6 -11 33 -36 42 -27 5 5 -21 36 -31 36 -3 0 -7 -4 -11 -9z" />
    <path d="M876 386 c-3 -14 -18 -37 -32 -51 l-25 -25 -49 0 -49 0 -11 20 -11
20 16 0 c8 0 15 5 15 10 0 15 -26 12 -40 -5 l-12 -15 16 -25 17 -26 74 3 75 3
0 12 c0 7 4 13 10 13 5 0 14 17 19 37 l11 37 -9 9 -8 8 -7 -25z" />
    <path d="M930 330 c0 -7 3 -10 7 -7 3 4 3 10 0 14 -4 3 -7 0 -7 -7z" />
    <path d="M564 288 l-7 -11 11 7 c12 7 16 16 8 16 -3 0 -8 -5 -12 -12z" />
    <path d="M873 233 c4 -3 10 -3 14 0 3 4 0 7 -7 7 -7 0 -10 -3 -7 -7z" />
    <path d="M80 210 c0 -5 9 -10 21 -10 l20 0 -6 10 c-3 6 -13 10 -21 10 -8 0
-14 -4 -14 -10z" />
  </g>
  <g transform="translate(0.000000,100.000000) scale(0.100000,-0.100000)" fill="#532f63" stroke="none">
    <path d="M406 694 c-4 -15 -5 -28 -3 -31 3 -2 16 -1 31 3 28 7 33 23 14 42
-19 19 -35 14 -42 -14z" />
    <path d="M493 614 c-7 -3 -13 -15 -13 -26 l0 -20 30 6 30 6 0 -10 c0 -6 8 -10
19 -10 10 0 24 -7 31 -15 l12 -14 -7 -21 -6 -20 -24 0 c-13 0 -26 -6 -28 -12
l-5 -13 -1 13 c-1 6 -8 12 -16 12 l-15 0 0 -19 0 -19 23 -6 c12 -3 34 -6 48
-6 l26 0 29 25 29 25 -15 10 -15 10 13 0 12 0 0 29 c0 16 -8 38 -17 50 l-18
22 -55 4 c-30 3 -61 2 -67 -1z" />
    <path d="M407 603 c-12 -11 -8 -61 6 -66 l12 -5 -12 -1 -13 -1 0 -104 0 -105
21 -6 21 -7 9 13 c5 8 9 76 9 152 l0 137 -23 0 c-13 0 -27 -3 -30 -7z" />
    <path d="M250 515 c0 -8 5 -15 11 -15 l11 0 -6 -16 c-8 -21 3 -64 18 -64 l11
0 1 -31 c1 -17 5 -34 10 -38 5 -3 9 -13 9 -21 l0 -15 20 0 20 0 3 27 c3 26
-10 66 -44 131 -8 16 -14 35 -14 43 l0 14 -25 0 -25 0 0 -15z" />
    <path d="M540 405 c0 -9 5 -21 10 -28 6 -7 16 -20 23 -29 7 -9 24 -20 40 -24
l27 -6 0 16 c0 9 -4 16 -10 16 -5 0 -10 6 -10 13 0 23 -36 57 -59 57 l-21 0 0
-15z" />
  </g>
  <g transform="translate(0.000000,100.000000) scale(0.100000,-0.100000)" fill="#592f6b" stroke="none">
    <path d="M404 699 c-3 -5 -2 -18 1 -29 l6 -20 25 0 24 0 0 19 c0 28 -43 51
-56 30z m42 -11 l7 -13 -8 7 c-4 4 -15 2 -24 -5 l-16 -12 14 18 c7 9 15 17 17
17 1 0 6 -6 10 -12z" />
    <path d="M499 597 c6 -8 7 -17 3 -22 -4 -4 8 -6 26 -3 17 2 32 1 32 -4 0 -4 6
-8 13 -8 8 0 14 7 14 15 0 8 -5 11 -10 8 l-10 -6 6 15 6 16 -30 -8 -29 -9 -5
10 c-4 5 -11 9 -17 9 l-10 0 11 -13z" />
    <path d="M418 473 l3 -125 -10 7 -11 6 0 -15 0 -16 20 12 20 13 -2 117 -3 118
-10 4 -10 3 3 -124z" />
    <path d="M616 583 c-3 -3 -3 -17 0 -30 l6 -23 -13 -17 -14 -17 12 8 13 7 -6
-15 -6 -15 -16 5 -17 6 19 -16 c11 -9 26 -16 34 -16 l14 0 -6 16 -6 15 10 -6
10 -6 0 49 0 50 -14 5 c-8 3 -17 3 -20 0z m24 -38 c0 -5 -5 -3 -10 5 -5 8 -10
20 -10 25 0 6 5 3 10 -5 5 -8 10 -19 10 -25z" />
    <path d="M250 506 c0 -20 25 -77 32 -71 3 3 3 -6 0 -21 l-5 -27 15 6 16 6 -6
-21 -5 -21 10 6 10 6 -5 -27 -4 -27 17 16 17 17 -12 22 c-6 12 -9 28 -6 36 l6
15 -10 -6 c-5 -3 -12 6 -16 20 l-6 25 -16 0 c-8 0 -12 3 -8 8 4 4 13 7 19 7
15 0 16 25 2 26 -5 1 -18 5 -27 10 l-18 10 0 -15z" />
    <path d="M501 481 l-15 -9 27 -36 27 -35 21 4 21 4 -11 -13 c-6 -7 -9 -21 -5
-30 l6 -16 19 11 20 10 -7 -25 -6 -26 15 0 c9 0 19 5 23 11 8 14 -17 61 -30
56 l-11 -4 -2 25 c-1 27 -29 55 -44 46 l-9 -5 7 17 7 18 4 -12 c2 -7 8 -12 14
-12 l10 0 -12 15 c-14 17 -47 19 -69 6z m16 -18 c-4 -3 -7 0 -7 7 0 7 3 10 7
7 3 -4 3 -10 0 -14z" />
  </g>
  <g transform="translate(0.000000,100.000000) scale(0.100000,-0.100000)" fill="#fcf2fd" stroke="none">
    <path d="M397 703 l-18 -23 21 -27 21 -28 -10 -3 c-22 -7 -10 -19 19 -19 29 0
41 12 19 19 l-10 3 20 26 20 26 -14 20 c-8 11 -23 23 -32 25 l-19 5 -17 -24z
m53 -24 l0 -19 -20 0 -20 0 0 18 c0 10 3 21 6 25 11 11 34 -5 34 -24z" />
    <path d="M545 620 c-3 -5 9 -12 27 -15 40 -9 57 -22 69 -53 5 -13 13 -20 19
-17 l10 6 -15 22 c-8 12 -15 26 -17 32 -2 5 -7 10 -13 12 -5 1 -25 6 -42 12
l-33 10 -5 -9z" />
    <path d="M480 610 c0 -5 5 -10 10 -10 6 0 10 5 10 10 0 6 -4 10 -10 10 -5 0
-10 -4 -10 -10z" />
    <path d="M530 571 c0 -5 14 -14 30 -20 l30 -10 0 -20 c0 -21 -4 -23 -45 -25
-11 -1 -29 -7 -39 -13 l-20 -11 18 -27 c19 -28 31 -29 20 -1 -3 9 -10 16 -16
16 -5 0 -6 5 -3 10 3 6 26 10 50 10 l43 0 6 16 c10 26 7 51 -8 63 -18 16 -66
24 -66 12z" />
    <path d="M237 543 c-2 -13 -1 -26 4 -28 4 -3 10 -19 14 -36 4 -16 18 -57 31
-90 14 -33 21 -65 18 -71 l-7 -11 11 7 c16 10 15 -7 0 -23 l-13 -14 26 17 c15
9 32 15 39 14 l13 -3 2 24 2 24 -12 -17 c-7 -9 -20 -16 -29 -16 l-16 0 0 16
c0 9 -6 30 -14 47 -8 18 -22 50 -31 72 l-16 40 6 36 6 36 -15 0 -14 0 -5 -24z" />
    <path d="M283 530 c4 -14 7 -28 7 -32 0 -5 5 -8 10 -8 16 0 11 36 -7 51 l-16
14 6 -25z" />
    <path d="M640 504 l0 -15 10 6 c6 3 10 10 10 16 0 5 -4 9 -10 9 -5 0 -10 -7
-10 -16z" />
    <path d="M837 484 c-3 -4 1 -13 9 -22 l15 -15 11 11 10 10 -11 6 c-6 4 -11 4
-11 -1 0 -4 -4 -2 -8 5 -5 7 -11 9 -15 6z" />
    <path d="M605 463 c-16 -9 -32 -17 -34 -19 -2 -2 10 -27 27 -55 18 -27 32 -55
32 -60 0 -12 -14 -11 -27 2 -12 12 -33 4 -33 -13 0 -6 3 -8 7 -5 3 4 12 2 19
-4 l12 -10 26 7 c14 3 26 8 26 10 0 1 -9 19 -21 38 -12 20 -17 36 -12 37 4 0
-1 4 -11 8 -22 8 -31 41 -11 41 13 0 41 28 34 34 -2 2 -17 -3 -34 -11z" />
    <path d="M315 450 c15 -52 39 -99 47 -94 l9 6 -12 14 c-6 7 -9 20 -6 28 l6 14
-15 6 c-9 3 -13 10 -10 15 3 5 -2 15 -11 22 l-16 14 8 -25z" />
    <path d="M694 458 l-7 -11 11 7 c7 4 12 9 12 12 0 8 -9 4 -16 -8z" />
    <path d="M395 441 c-3 -5 -1 -12 5 -16 l10 -6 0 15 c0 18 -6 21 -15 7z" />
    <path d="M535 391 c-3 -6 -1 -11 5 -11 l11 0 -7 -12 -7 -11 11 7 12 7 0 -15
c0 -9 5 -16 10 -16 16 0 12 19 -9 41 l-19 21 -7 -11z" />
    <path d="M401 370 c-8 -16 -6 -72 2 -77 l10 -6 -7 11 c-4 7 -3 12 3 12 5 0 12
-6 14 -12 l5 -13 1 13 c1 7 5 11 10 7 5 -3 12 -1 16 5 l6 10 -25 0 -25 0 -4
28 c-2 15 -5 25 -6 22z" />
  </g>
  <g transform="translate(0.000000,100.000000) scale(0.100000,-0.100000)" fill="#fffbe2" stroke="none">
    <path d="M191 588 c-10 -24 -21 -53 -25 -65 l-7 -23 9 0 c6 0 18 23 28 51 17
46 37 69 49 57 5 -4 -61 -190 -90 -255 l-15 -33 -22 0 -22 0 12 -12 11 -11 24
10 23 11 11 33 c35 106 63 174 73 171 l10 -2 -6 26 -7 27 9 -6 10 -5 -2 26
c-1 15 -3 30 -3 35 -1 4 -12 7 -26 7 l-26 0 -18 -42z" />
    <path d="M739 614 l-36 -15 -12 -25 c-13 -30 -14 -34 -2 -34 5 0 13 9 16 20 9
28 56 50 105 50 l40 0 0 -20 0 -20 -44 0 c-24 0 -51 -3 -60 -6 l-16 -6 0 -25
c0 -31 22 -53 54 -53 13 0 38 -12 55 -26 l31 -26 0 -28 0 -28 -31 -26 -31 -26
-49 0 -49 0 0 15 0 15 49 0 50 0 15 16 c20 19 20 34 0 62 l-15 22 -33 0 -32 0
-22 20 c-12 12 -22 27 -22 35 0 8 -4 15 -10 15 -16 0 -11 -26 11 -54 l20 -26
40 -6 c42 -7 64 -26 56 -48 l-5 -13 -56 -5 c-31 -3 -59 -8 -63 -11 -3 -4 -1
-18 5 -32 l12 -25 59 0 60 0 15 16 c9 8 16 12 16 7 1 -21 30 63 30 86 l0 28
-22 20 c-32 29 -67 45 -83 39 -19 -7 -46 21 -39 39 7 16 10 17 68 19 l39 1 11
18 11 17 -11 18 -11 17 -39 2 c-21 1 -55 -4 -75 -13z" />
    <path d="M145 454 c-9 -21 -23 -53 -31 -71 -16 -35 -18 -53 -6 -53 10 0 66
150 58 157 -3 3 -13 -11 -21 -33z" />
  </g>
  <g transform="translate(0.000000,100.000000) scale(0.100000,-0.100000)" fill="#4e315a" stroke="none">
    <path d="M406 704 c-9 -8 -16 -19 -16 -24 0 -11 29 -40 39 -40 9 0 41 33 41
43 0 9 -30 37 -40 37 -5 0 -16 -7 -24 -16z m44 -30 c0 -16 -26 -19 -34 -5 -4
5 -3 16 0 25 l6 17 14 -12 c8 -6 14 -18 14 -25z" />
    <path d="M407 614 c-4 -4 -7 -14 -7 -22 l0 -14 15 12 c8 7 22 9 31 6 l16 -6
-4 12 c-5 15 -40 22 -51 12z" />
    <path d="M485 609 c-11 -17 0 -20 21 -4 l19 14 -17 1 c-9 0 -20 -5 -23 -11z" />
    <path d="M565 610 c3 -5 14 -10 23 -10 l17 0 -15 10 c-20 13 -33 13 -25 0z" />
    <path d="M490 570 l0 -10 44 2 c24 2 43 5 41 9 -2 3 -22 6 -44 7 l-41 3 0 -11z" />
    <path d="M256 548 c-9 -34 -8 -37 13 -31 l18 5 6 -23 c4 -13 9 -21 12 -18 8 8
-20 82 -32 86 -6 2 -13 -6 -17 -19z" />
    <path d="M400 535 l0 -26 10 6 c6 3 10 12 10 20 0 8 -4 17 -10 20 l-10 6 0
-26z" />
    <path d="M640 523 l0 -38 10 15 c13 20 13 47 0 55 l-10 6 0 -38z" />
    <path d="M597 510 l-5 -20 -22 0 c-11 0 -19 -4 -16 -9 9 -14 40 -2 54 19 l12
19 -9 5 c-5 3 -11 -3 -14 -14z" />
    <path d="M490 480 c0 -5 4 -10 9 -10 6 0 13 5 16 10 l6 10 -15 0 c-9 0 -16 -4
-16 -10z" />
    <path d="M594 455 c-10 -8 -14 -15 -8 -15 5 0 19 7 30 15 10 8 14 15 8 15 -5
0 -19 -7 -30 -15z" />
    <path d="M518 430 c16 -28 32 -40 32 -22 -1 9 -36 52 -44 52 -3 0 3 -13 12
-30z" />
    <path d="M320 421 c0 -5 5 -13 10 -16 6 -3 10 -2 10 4 0 5 -4 13 -10 16 -5 3
-10 2 -10 -4z" />
    <path d="M580 411 c0 -5 5 -13 10 -16 6 -3 10 -2 10 4 0 5 -4 13 -10 16 -5 3
-10 2 -10 -4z" />
    <path d="M295 380 c4 -14 12 -29 17 -35 l10 -10 -7 25 c-4 14 -12 30 -17 35
l-10 10 7 -25z" />
    <path d="M550 381 c0 -5 7 -14 15 -21 16 -14 18 -10 9 14 -6 17 -24 22 -24 7z" />
    <path d="M342 329 l-12 -19 20 0 20 0 0 14 c0 24 -15 26 -28 5z" />
    <path d="M444 335 l-6 -15 -19 11 -19 10 0 -16 0 -15 30 0 30 0 0 20 c0 24 -8
26 -16 5z" />
    <path d="M592 343 l-13 -5 12 -14 c6 -8 23 -14 36 -14 l25 0 -5 13 c-2 6 -10
11 -17 9 -7 -2 -16 1 -19 6 -3 5 -12 7 -19 5z" />
  </g>
  <g transform="translate(0.000000,100.000000) scale(0.100000,-0.100000)" fill="#ef9f32" stroke="none">
    <path d="M204 593 c-3 -10 -9 -27 -14 -38 -4 -11 -25 -64 -45 -118 l-38 -98
11 -11 c6 -6 17 -8 25 -5 13 5 87 183 87 211 0 8 5 18 10 21 6 3 10 17 10 31
l0 24 -20 0 -21 0 -5 -17z" />
  </g>
  <g transform="translate(0.000000,100.000000) scale(0.100000,-0.100000)" fill="#e3a247" stroke="none">
    <path d="M214 612 c-14 -9 -104 -252 -104 -281 l0 -21 20 0 20 0 15 33 c19 42
85 224 85 234 0 4 -5 2 -11 -4 -6 -6 -22 -42 -34 -80 -36 -104 -64 -165 -74
-159 l-9 6 25 63 c13 34 29 76 35 92 5 17 13 39 18 50 4 11 11 28 14 39 l6 18
15 -6 15 -5 0 14 c0 16 -18 19 -36 7z" />
    <path d="M780 605 c0 -8 7 -15 15 -15 8 0 15 7 15 15 0 8 -7 15 -15 15 -8 0
-15 -7 -15 -15z" />
    <path d="M706 554 l7 -36 -13 -8 -13 -8 6 -16 c4 -9 16 -16 27 -16 l20 0 0
-15 0 -15 34 0 34 0 6 -15 5 -15 31 0 30 0 0 15 0 15 -20 0 -20 0 0 20 0 20
-40 -6 -40 -7 0 17 c0 9 -4 16 -10 16 -5 0 -10 14 -10 30 l0 30 15 0 c8 0 15
7 15 15 l0 15 -35 0 -36 0 7 -36z" />
    <path d="M812 375 l-13 -15 -39 0 -40 0 0 -15 0 -15 48 0 c50 1 82 17 82 44 0
20 -21 20 -38 1z" />
  </g>
  <g transform="translate(0.000000,100.000000) scale(0.100000,-0.100000)" fill="#ead6f1" stroke="none">
    <path d="M450 695 l12 -15 -12 -15 -13 -16 -16 6 -16 6 11 -11 c13 -13 40 -4
48 16 7 18 -3 44 -16 44 l-10 0 12 -15z" />
    <path d="M428 613 l23 -5 -3 -149 c-2 -82 0 -149 5 -149 4 0 6 69 5 153 l-3
152 -25 2 -25 1 23 -5z" />
    <path d="M563 613 c4 -3 10 -3 14 0 3 4 0 7 -7 7 -7 0 -10 -3 -7 -7z" />
    <path d="M615 590 c3 -5 8 -10 11 -10 2 0 4 5 4 10 0 6 -5 10 -11 10 -5 0 -7
-4 -4 -10z" />
    <path d="M267 574 c-11 -11 -8 -26 3 -19 6 3 10 1 10 -6 0 -7 3 -10 6 -6 3 3
2 13 -3 22 -5 8 -12 12 -16 9z" />
    <path d="M485 570 c3 -5 18 -10 32 -10 32 0 28 5 -10 14 l-29 7 7 -11z" />
    <path d="M646 547 c3 -10 9 -15 12 -12 3 3 0 11 -7 18 l-12 12 7 -18z" />
    <path d="M602 530 c0 -14 2 -19 5 -12 2 6 2 18 0 25 -3 6 -5 1 -5 -13z" />
    <path d="M312 459 c6 -16 12 -28 14 -26 5 5 -13 57 -20 57 -3 0 0 -14 6 -31z" />
    <path d="M485 480 c3 -5 8 -10 11 -10 2 0 4 5 4 10 0 6 -5 10 -11 10 -5 0 -7
-4 -4 -10z" />
    <path d="M275 428 c4 -13 11 -27 16 -33 5 -5 4 5 -2 23 -12 36 -24 44 -14 10z" />
    <path d="M530 415 c0 -5 9 -21 20 -35 11 -14 20 -20 20 -15 0 6 -9 21 -20 35
-11 14 -20 21 -20 15z" />
    <path d="M346 367 c3 -10 9 -15 12 -12 3 3 0 11 -7 18 l-12 12 7 -18z" />
    <path d="M310 331 c0 -6 4 -13 10 -16 l10 -6 -6 15 c-7 18 -14 21 -14 7z" />
  </g>
  <g transform="translate(0.000000,100.000000) scale(0.100000,-0.100000)" fill="#fbddac" stroke="none">
    <path d="M204 608 l-7 -11 22 6 23 6 -4 -31 -5 -31 14 18 c7 11 13 27 13 37
l0 18 -24 0 c-14 0 -28 -5 -32 -12z" />
    <path d="M734 605 l-19 -16 35 7 c39 7 37 7 68 5 l22 -1 0 -15 c0 -8 5 -15 10
-15 6 0 10 11 10 25 l0 25 -53 0 -53 0 -20 -15z" />
    <path d="M691 562 c-13 -25 -14 -52 -2 -52 9 0 24 60 17 67 -2 3 -9 -4 -15
-15z" />
    <path d="M170 520 c-7 -22 -11 -43 -8 -46 3 -3 13 15 21 40 9 26 12 46 8 46
-4 0 -14 -18 -21 -40z" />
    <path d="M720 531 c0 -6 5 -13 10 -16 l10 -6 0 15 c0 9 -4 16 -10 16 -5 0 -10
-4 -10 -9z" />
    <path d="M212 501 c-6 -17 -7 -31 -3 -31 10 0 25 50 18 57 -3 2 -9 -10 -15
-26z" />
    <path d="M770 480 c0 -5 11 -10 25 -10 l26 0 27 -27 26 -26 -32 6 -32 7 8 -18
c5 -9 7 -24 4 -32 l-5 -15 17 14 c20 17 27 12 20 -16 l-6 -22 -29 -6 c-16 -4
-29 -11 -29 -16 0 -17 28 -9 58 16 l29 24 0 41 0 41 -29 24 c-29 25 -78 34
-78 15z" />
    <path d="M720 455 c7 -8 19 -15 27 -15 l15 0 -12 15 c-7 8 -19 15 -27 15 l-15
0 12 -15z" />
    <path d="M136 424 c-10 -38 0 -41 12 -5 6 17 7 31 3 31 -5 0 -12 -12 -15 -26z" />
    <path d="M184 424 c-4 -10 -15 -39 -25 -63 -19 -45 -19 -69 0 -33 16 30 41
106 36 111 -3 2 -7 -5 -11 -15z" />
    <path d="M106 348 c-8 -31 -7 -38 3 -38 5 0 11 14 13 30 5 35 -7 41 -16 8z" />
    <path d="M700 340 l0 -20 20 0 c23 0 26 10 8 28 -18 18 -28 15 -28 -8z" />
  </g>
  <g transform="translate(0.000000,100.000000) scale(0.100000,-0.100000)" fill="#fef0c8" stroke="none">
    <path d="M247 613 c-4 -3 -7 -15 -7 -26 0 -25 13 -14 17 13 3 21 1 24 -10 13z" />
    <path d="M745 610 l-6 -10 16 0 16 0 -6 10 c-3 6 -8 10 -10 10 -2 0 -7 -4 -10
-10z" />
    <path d="M845 610 c-3 -5 -1 -10 4 -10 6 0 11 5 11 10 0 6 -2 10 -4 10 -3 0
-8 -4 -11 -10z" />
    <path d="M193 580 c-6 -16 -8 -30 -3 -30 4 0 13 14 19 30 5 17 7 30 3 30 -4 0
-13 -13 -19 -30z" />
    <path d="M707 593 c-12 -12 -7 -22 8 -17 8 4 15 10 15 15 0 11 -14 12 -23 2z" />
    <path d="M750 570 c-8 -5 -12 -11 -10 -12 10 -8 120 4 120 13 0 12 -91 11
-110 -1z" />
    <path d="M690 555 c-9 -34 4 -95 21 -95 12 0 12 13 0 26 -5 5 -11 25 -14 44
-2 19 -5 31 -7 25z" />
    <path d="M227 543 c-4 -3 -7 -11 -7 -17 l0 -10 12 12 c6 6 9 14 7 17 -3 3 -9
2 -12 -2z" />
    <path d="M175 530 c-3 -5 -1 -10 4 -10 6 0 11 5 11 10 0 6 -2 10 -4 10 -3 0
-8 -4 -11 -10z" />
    <path d="M730 508 c0 -9 7 -19 16 -22 25 -10 27 -1 4 19 l-20 18 0 -15z" />
    <path d="M160 500 c0 -5 5 -10 10 -10 6 0 10 5 10 10 0 6 -4 10 -10 10 -5 0
-10 -4 -10 -10z" />
    <path d="M210 499 c0 -5 5 -7 10 -4 6 3 10 8 10 11 0 2 -4 4 -10 4 -5 0 -10
-5 -10 -11z" />
    <path d="M805 480 l-6 -10 16 0 16 0 -6 10 c-3 6 -8 10 -10 10 -2 0 -7 -4 -10
-10z" />
    <path d="M150 461 l-11 -21 10 0 c10 0 24 30 17 37 -2 3 -9 -5 -16 -16z" />
    <path d="M197 460 c-3 -11 -3 -20 -1 -20 2 0 8 9 14 20 l11 20 -9 0 c-6 0 -12
-9 -15 -20z" />
    <path d="M730 449 c0 -5 5 -7 10 -4 6 3 10 8 10 11 0 2 -4 4 -10 4 -5 0 -10
-5 -10 -11z" />
    <path d="M807 431 c12 -10 20 -21 17 -24 -3 -3 -1 -8 5 -12 l11 -6 0 13 c-1
19 -25 48 -41 48 l-14 -1 22 -18z" />
    <path d="M863 433 c4 -3 10 -3 14 0 3 4 0 7 -7 7 -7 0 -10 -3 -7 -7z" />
    <path d="M135 420 c-3 -5 -1 -10 4 -10 6 0 11 5 11 10 0 6 -2 10 -4 10 -3 0
-8 -4 -11 -10z" />
    <path d="M120 381 l-11 -21 10 0 c10 0 24 30 17 37 -2 3 -9 -5 -16 -16z" />
    <path d="M860 370 c0 -5 5 -10 11 -10 5 0 7 5 4 10 -3 6 -8 10 -11 10 -2 0 -4
-4 -4 -10z" />
    <path d="M163 363 c4 -3 10 -3 14 0 3 4 0 7 -7 7 -7 0 -10 -3 -7 -7z" />
    <path d="M795 360 c-3 -5 -2 -10 4 -10 5 0 13 5 16 10 3 6 2 10 -4 10 -5 0
-13 -4 -16 -10z" />
    <path d="M702 335 c-1 -14 2 -25 7 -25 5 0 9 11 9 25 0 14 -3 25 -7 25 -4 0
-8 -11 -9 -25z" />
    <path d="M105 341 c-3 -5 -1 -12 5 -16 l10 -6 0 15 c0 18 -6 21 -15 7z" />
    <path d="M150 339 c0 -5 5 -7 10 -4 6 3 10 8 10 11 0 2 -4 4 -10 4 -5 0 -10
-5 -10 -11z" />
  </g>
  <g transform="translate(0.000000,100.000000) scale(0.100000,-0.100000)" fill="#e0a65b" stroke="none">
    <path d="M213 603 c4 -3 10 -3 14 0 3 4 0 7 -7 7 -7 0 -10 -3 -7 -7z" />
    <path d="M240 595 c0 -8 2 -15 4 -15 2 0 6 7 10 15 3 8 1 15 -4 15 -6 0 -10
-7 -10 -15z" />
    <path d="M759 596 c-1 -6 -1 -14 0 -18 0 -5 -3 -8 -9 -8 -5 0 -10 7 -10 15 0
23 -18 18 -37 -12 l-18 -26 13 -5 c6 -2 12 -10 12 -18 0 -9 5 -12 10 -9 6 3
10 1 10 -4 0 -10 -14 -15 -32 -12 -4 0 -5 -6 -1 -14 7 -20 55 -45 86 -45 12 0
29 -6 36 -12 l14 -13 -8 14 -8 14 10 -6 c16 -10 3 -56 -20 -72 -12 -8 -16 -15
-9 -15 6 0 12 -7 12 -16 0 -17 22 -14 28 4 l4 12 -18 0 -18 0 12 12 c7 7 22
13 35 13 l22 0 3 17 3 18 -27 25 -27 25 -41 -5 c-22 -3 -35 -2 -28 1 6 3 12
13 12 21 l0 15 -17 -6 c-10 -4 -14 -4 -11 0 4 4 3 15 -2 25 l-10 18 30 31 29
30 31 0 c16 0 30 4 30 10 l0 9 -45 -1 -45 -1 -1 -11z m-32 -53 c-4 -3 -7 0 -7
7 0 7 3 10 7 7 3 -4 3 -10 0 -14z" />
    <path d="M196 573 l-7 -18 12 12 c7 7 10 15 7 18 -3 3 -9 -2 -12 -12z" />
    <path d="M225 539 c-4 -6 -5 -12 -2 -15 2 -3 7 2 10 11 7 17 1 20 -8 4z" />
    <path d="M180 530 c0 -7 3 -10 7 -7 3 4 3 10 0 14 -4 3 -7 0 -7 -7z" />
    <path d="M170 500 c0 -7 3 -10 7 -7 3 4 3 10 0 14 -4 3 -7 0 -7 -7z" />
    <path d="M210 500 c0 -7 3 -10 7 -7 3 4 3 10 0 14 -4 3 -7 0 -7 -7z" />
    <path d="M156 463 l-7 -18 12 12 c7 7 10 15 7 18 -3 3 -9 -2 -12 -12z" />
    <path d="M185 429 c-4 -6 -5 -12 -2 -15 2 -3 7 2 10 11 7 17 1 20 -8 4z" />
    <path d="M140 420 c0 -7 3 -10 7 -7 3 4 3 10 0 14 -4 3 -7 0 -7 -7z" />
    <path d="M126 385 c-9 -26 -7 -32 5 -12 6 10 9 21 6 23 -2 3 -7 -2 -11 -11z" />
    <path d="M170 390 c0 -7 3 -10 7 -7 3 4 3 10 0 14 -4 3 -7 0 -7 -7z" />
    <path d="M710 351 c0 -5 6 -11 13 -14 l14 -5 0 14 c0 8 -6 14 -14 14 -7 0 -13
-4 -13 -9z" />
    <path d="M142 330 c-7 -11 -8 -20 -3 -20 9 0 24 30 18 36 -1 2 -8 -6 -15 -16z" />
  </g>
  <g transform="translate(0.000000,100.000000) scale(0.100000,-0.100000)" fill="#d1a464" stroke="none">
    <path d="M204 598 l-7 -11 11 7 c12 7 16 16 8 16 -3 0 -8 -5 -12 -12z" />
    <path d="M243 603 c4 -3 10 -3 14 0 3 4 0 7 -7 7 -7 0 -10 -3 -7 -7z" />
    <path d="M732 603 c-17 -7 -5 -23 19 -23 11 0 18 -3 16 -7 -3 -5 16 -7 42 -5
l47 4 0 19 c0 20 -11 25 -21 9 -3 -5 -17 -10 -30 -10 -13 0 -27 5 -30 10 -7
11 -22 12 -43 3z" />
    <path d="M690 525 l0 -36 10 6 c6 3 10 17 10 30 0 13 -4 27 -10 30 l-10 6 0
-36z" />
    <path d="M753 475 l0 -17 38 4 c20 2 36 1 34 -2 -2 -3 3 -14 11 -25 l14 -19
11 11 11 11 -23 21 c-13 11 -30 21 -38 21 -9 0 -25 3 -37 6 l-21 5 0 -16z" />
    <path d="M716 471 c-3 -5 0 -11 7 -14 l14 -5 0 14 c0 16 -13 19 -21 5z" />
    <path d="M837 366 c-6 -12 -11 -23 -10 -26 1 -3 -14 -4 -33 -2 -41 5 -84 -5
-84 -18 0 -13 69 -13 109 1 l32 11 14 27 14 28 -15 0 c-8 0 -20 -10 -27 -21z" />
    <path d="M710 349 c0 -5 5 -7 10 -4 6 3 10 8 10 11 0 2 -4 4 -10 4 -5 0 -10
-5 -10 -11z" />
    <path d="M110 330 c0 -11 4 -20 9 -20 5 0 7 9 4 20 -3 11 -7 20 -9 20 -2 0 -4
-9 -4 -20z" />
  </g>
  <g transform="translate(0.000000,100.000000) scale(0.100000,-0.100000)" fill="#fede93" stroke="none">
    <path d="M200 590 c0 -7 3 -10 7 -7 3 4 3 10 0 14 -4 3 -7 0 -7 -7z" />
    <path d="M725 575 l-25 -24 0 -25 c0 -14 5 -28 10 -31 6 -3 10 -11 10 -16 l0
-10 -12 7 -13 7 8 -8 c4 -5 24 -10 45 -12 20 -2 49 -8 63 -14 l27 -11 4 -30 5
-31 -19 -16 c-10 -9 -37 -19 -61 -22 l-42 -6 48 -1 47 -2 20 20 20 20 -4 37
-4 37 -18 13 c-10 7 -33 13 -52 13 l-33 0 6 10 6 10 -13 -2 -13 -3 3 20 3 20
-11 -15 -11 -15 3 35 3 35 23 10 c12 5 22 13 22 17 0 15 -21 8 -45 -17z" />
    <path d="M740 555 c-19 -22 -8 -25 13 -3 9 10 13 18 8 18 -5 0 -14 -7 -21 -15z" />
    <path d="M230 550 c0 -7 3 -10 7 -7 3 4 3 10 0 14 -4 3 -7 0 -7 -7z" />
    <path d="M190 440 c0 -7 3 -10 7 -7 3 4 3 10 0 14 -4 3 -7 0 -7 -7z" />
  </g>
  <g transform="translate(0.000000,100.000000) scale(0.100000,-0.100000)" fill="#c9b4d3" stroke="none">
    <path d="M407 613 c-10 -9 -9 -303 1 -303 4 0 7 70 7 155 0 85 0 155 -1 155 0
0 -4 -3 -7 -7z" />
    <path d="M483 605 c-3 -9 -3 -19 1 -22 3 -4 6 1 6 10 0 8 6 18 13 20 l12 5
-13 1 c-7 1 -15 -6 -19 -14z" />
    <path d="M553 613 c4 -3 10 -3 14 0 3 4 0 7 -7 7 -7 0 -10 -3 -7 -7z" />
    <path d="M651 524 l1 -19 5 13 c3 7 2 16 -1 19 -3 4 -6 -2 -5 -13z" />
    <path d="M296 497 c3 -10 9 -15 12 -12 3 3 0 11 -7 18 l-12 12 7 -18z" />
    <path d="M536 408 c20 -32 39 -58 41 -58 7 0 -29 58 -55 88 -13 15 -6 1 14
-30z" />
    <path d="M570 439 c0 -5 5 -7 10 -4 6 3 10 8 10 11 0 2 -4 4 -10 4 -5 0 -10
-5 -10 -11z" />
    <path d="M586 407 c3 -10 9 -15 12 -12 3 3 0 11 -7 18 l-12 12 7 -18z" />
    <path d="M290 391 c0 -6 4 -13 10 -16 l10 -6 -6 15 c-7 18 -14 21 -14 7z" />
  </g>
  <g transform="translate(0.000000,100.000000) scale(0.100000,-0.100000)" fill="#e9b269" stroke="none">
    <path d="M240 580 c0 -7 3 -10 7 -7 3 4 3 10 0 14 -4 3 -7 0 -7 -7z" />
    <path d="M706 568 c3 -5 10 -6 15 -3 13 9 11 12 -6 12 -8 0 -12 -4 -9 -9z" />
    <path d="M190 560 c0 -7 3 -10 7 -7 3 4 3 10 0 14 -4 3 -7 0 -7 -7z" />
    <path d="M696 545 c4 -8 11 -15 16 -15 l10 0 -12 15 c-7 8 -14 15 -16 15 -2 0
-1 -7 2 -15z" />
    <path d="M697 506 c-4 -9 -3 -15 1 -15 4 1 13 1 20 0 l13 -1 -7 -12 -7 -13 13
12 c7 6 20 9 29 6 l16 -6 -20 16 c-11 8 -24 13 -29 10 -4 -3 -12 0 -16 7 l-7
12 -6 -16z" />
    <path d="M200 470 c0 -7 3 -10 7 -7 3 4 3 10 0 14 -4 3 -7 0 -7 -7z" />
    <path d="M810 470 c-8 -5 -12 -12 -9 -15 11 -10 48 -14 54 -5 l6 9 -22 -4 -21
-4 6 14 c6 17 6 18 -14 5z" />
    <path d="M734 458 l-7 -11 11 7 c7 4 12 9 12 12 0 8 -9 4 -16 -8z" />
    <path d="M150 450 c0 -7 3 -10 7 -7 3 4 3 10 0 14 -4 3 -7 0 -7 -7z" />
    <path d="M753 443 c4 -3 10 -3 14 0 3 4 0 7 -7 7 -7 0 -10 -3 -7 -7z" />
    <path d="M847 422 c-18 -20 -22 -32 -9 -32 4 0 12 11 19 25 6 14 10 25 9 25
-2 0 -10 -8 -19 -18z" />
    <path d="M855 370 c3 -5 8 -10 11 -10 3 0 2 5 -1 10 -3 6 -8 10 -11 10 -3 0
-2 -4 1 -10z" />
    <path d="M813 350 c-1 -11 2 -22 8 -25 l9 -6 -7 18 -7 18 16 -13 16 -13 7 11
c3 5 4 11 1 11 -3 1 -9 2 -13 3 -5 1 -13 4 -18 8 l-11 7 -1 -19z" />
    <path d="M738 353 c12 -2 32 -2 45 0 12 2 2 4 -23 4 -25 0 -35 -2 -22 -4z" />
  </g>
  <g transform="translate(0.000000,100.000000) scale(0.100000,-0.100000)" fill="#694f74" stroke="none">
    <path d="M405 704 c-9 -9 -14 -23 -11 -31 3 -8 6 -17 6 -19 0 -2 5 -4 11 -4
l11 0 -12 16 -13 15 16 16 16 16 18 -14 18 -14 -14 18 c-17 21 -25 21 -46 1z" />
    <path d="M444 658 l-7 -11 11 7 c12 7 16 16 8 16 -3 0 -8 -5 -12 -12z" />
    <path d="M618 582 c15 -15 29 -26 31 -25 6 4 -41 53 -50 53 -4 0 4 -13 19 -28z" />
    <path d="M480 580 c0 -5 5 -10 11 -10 5 0 7 5 4 10 -3 6 -8 10 -11 10 -2 0 -4
-4 -4 -10z" />
    <path d="M256 545 c-3 -9 -6 -26 -5 -38 l1 -22 8 35 c9 37 7 52 -4 25z" />
    <path d="M281 545 c0 -5 4 -19 9 -30 l9 -20 0 15 c0 8 -4 22 -9 30 -5 8 -9 11
-9 5z" />
    <path d="M580 490 l-15 -10 12 0 c6 0 15 5 18 10 8 12 4 12 -15 0z" />
    <path d="M266 457 c3 -10 9 -15 12 -12 3 3 0 11 -7 18 l-12 12 7 -18z" />
    <path d="M310 460 c0 -7 3 -10 7 -7 3 4 3 10 0 14 -4 3 -7 0 -7 -7z" />
    <path d="M585 450 l-20 -9 15 0 c8 0 22 4 30 9 18 12 2 12 -25 0z" />
    <path d="M515 440 c3 -5 8 -10 11 -10 3 0 2 5 -1 10 -3 6 -8 10 -11 10 -3 0
-2 -4 1 -10z" />
    <path d="M320 431 c0 -6 4 -13 10 -16 l10 -6 -6 15 c-7 18 -14 21 -14 7z" />
    <path d="M280 420 c0 -7 3 -10 7 -7 3 4 3 10 0 14 -4 3 -7 0 -7 -7z" />
    <path d="M535 410 c3 -5 8 -10 11 -10 3 0 2 5 -1 10 -3 6 -8 10 -11 10 -3 0
-2 -4 1 -10z" />
    <path d="M615 363 c15 -24 30 -43 32 -43 7 0 -31 61 -46 73 -8 7 -2 -7 14 -30z" />
    <path d="M340 380 c0 -7 3 -10 7 -7 3 4 3 10 0 14 -4 3 -7 0 -7 -7z" />
    <path d="M555 380 c3 -5 8 -10 11 -10 3 0 2 5 -1 10 -3 6 -8 10 -11 10 -3 0
-2 -4 1 -10z" />
    <path d="M301 370 c0 -8 4 -22 9 -30 12 -18 12 -2 0 25 l-9 20 0 -15z" />
    <path d="M350 351 c0 -6 4 -13 10 -16 l10 -6 -6 15 c-7 18 -14 21 -14 7z" />
  </g>
  <g transform="translate(0.000000,100.000000) scale(0.100000,-0.100000)" fill="#f2bf78" stroke="none">
    <path d="M752 593 c12 -15 88 -18 88 -4 0 5 -22 11 -49 13 l-49 3 10 -12z" />
    <path d="M711 586 l-12 -14 13 2 c14 2 23 15 15 22 -2 2 -10 -2 -16 -10z" />
    <path d="M700 524 l0 -15 10 6 c6 3 10 10 10 16 0 5 -4 9 -10 9 -5 0 -10 -7
-10 -16z" />
    <path d="M710 495 c0 -7 30 -13 34 -7 3 4 -4 9 -15 9 -10 1 -19 0 -19 -2z" />
    <path d="M814 446 c1 -8 5 -18 8 -22 4 -3 5 1 4 10 -1 8 -5 18 -8 22 -4 3 -5
-1 -4 -10z" />
    <path d="M871 404 l1 -19 5 13 c3 7 2 16 -1 19 -3 4 -6 -2 -5 -13z" />
    <path d="M713 353 c4 -3 10 -3 14 0 3 4 0 7 -7 7 -7 0 -10 -3 -7 -7z" />
    <path d="M810 340 c0 -7 3 -10 7 -7 3 4 3 10 0 14 -4 3 -7 0 -7 -7z" />
  </g>
  <g transform="translate(0.000000,100.000000) scale(0.100000,-0.100000)" fill="#f7c888" stroke="none">
    <path d="M805 600 c-27 -4 -48 -8 -45 -9 3 -2 24 -4 47 -5 l42 -2 5 13 c3 7 4
12 3 11 -1 0 -24 -4 -52 -8z" />
    <path d="M705 530 c-3 -5 -1 -10 4 -10 6 0 11 5 11 10 0 6 -2 10 -4 10 -3 0
-8 -4 -11 -10z" />
    <path d="M805 460 c3 -5 8 -10 11 -10 3 0 2 5 -1 10 -3 6 -8 10 -11 10 -3 0
-2 -4 1 -10z" />
    <path d="M870 390 c0 -7 3 -10 7 -7 3 4 3 10 0 14 -4 3 -7 0 -7 -7z" />
    <path d="M814 368 l-7 -11 11 7 c7 4 12 9 12 12 0 8 -9 4 -16 -8z" />
    <path d="M843 373 c4 -3 10 -3 14 0 3 4 0 7 -7 7 -7 0 -10 -3 -7 -7z" />
  </g>
  <g transform="translate(0.000000,100.000000) scale(0.100000,-0.100000)" fill="#877191" stroke="none">
    <path d="M266 563 l-7 -18 12 12 c7 7 10 15 7 18 -3 3 -9 -2 -12 -12z" />
    <path d="M250 530 c0 -7 3 -10 7 -7 3 4 3 10 0 14 -4 3 -7 0 -7 -7z" />
    <path d="M596 503 l-7 -18 12 12 c7 7 10 15 7 18 -3 3 -9 -2 -12 -12z" />
    <path d="M626 472 l-19 -27 24 22 c12 12 21 24 18 27 -2 2 -13 -8 -23 -22z" />
    <path d="M490 479 c0 -5 5 -7 10 -4 6 3 10 8 10 11 0 2 -4 4 -10 4 -5 0 -10
-5 -10 -11z" />
    <path d="M563 483 c4 -3 10 -3 14 0 3 4 0 7 -7 7 -7 0 -10 -3 -7 -7z" />
    <path d="M260 470 c0 -7 3 -10 7 -7 3 4 3 10 0 14 -4 3 -7 0 -7 -7z" />
    <path d="M583 443 c4 -3 10 -3 14 0 3 4 0 7 -7 7 -7 0 -10 -3 -7 -7z" />
    <path d="M330 410 c0 -7 3 -10 7 -7 3 4 3 10 0 14 -4 3 -7 0 -7 -7z" />
    <path d="M605 380 c3 -5 8 -10 11 -10 3 0 2 5 -1 10 -3 6 -8 10 -11 10 -3 0
-2 -4 1 -10z" />
    <path d="M625 350 c3 -5 8 -10 11 -10 3 0 2 5 -1 10 -3 6 -8 10 -11 10 -3 0
-2 -4 1 -10z" />
    <path d="M360 331 c0 -5 -8 -12 -17 -14 l-18 -5 23 -1 22 -1 0 15 c0 8 -2 15
-5 15 -3 0 -5 -4 -5 -9z" />
    <path d="M589 328 c14 -19 61 -25 61 -9 0 5 -9 7 -20 4 -11 -3 -28 1 -38 8
l-17 14 14 -17z" />
    <path d="M413 313 c9 -2 23 -2 30 0 6 3 -1 5 -18 5 l-30 0 18 -5z" />
  </g>
  <g transform="translate(0.000000,100.000000) scale(0.100000,-0.100000)" fill="#d6c3de" stroke="none">
    <path d="M423 713 c4 -3 10 -3 14 0 3 4 0 7 -7 7 -7 0 -10 -3 -7 -7z" />
    <path d="M390 680 c0 -7 3 -10 7 -7 3 4 3 10 0 14 -4 3 -7 0 -7 -7z" />
    <path d="M513 613 c9 -2 25 -2 35 0 9 3 1 5 -18 5 -19 0 -27 -2 -17 -5z" />
    <path d="M571 567 c2 -1 13 -9 24 -17 l20 -15 -14 18 c-7 9 -18 17 -24 17 -6
0 -8 -1 -6 -3z" />
    <path d="M290 520 c0 -7 3 -10 7 -7 3 4 3 10 0 14 -4 3 -7 0 -7 -7z" />
    <path d="M634 478 l-7 -11 11 7 c7 4 12 9 12 12 0 8 -9 4 -16 -8z" />
    <path d="M300 360 c0 -7 3 -10 7 -7 3 4 3 10 0 14 -4 3 -7 0 -7 -7z" />
  </g>
  <g transform="translate(0.000000,100.000000) scale(0.100000,-0.100000)" fill="#e2c294" stroke="none">
    <path d="M845 580 c3 -5 8 -10 11 -10 3 0 2 5 -1 10 -3 6 -8 10 -11 10 -3 0
-2 -4 1 -10z" />
    <path d="M763 483 c4 -3 10 -3 14 0 3 4 0 7 -7 7 -7 0 -10 -3 -7 -7z" />
    <path d="M844 338 l-7 -11 11 7 c7 4 12 9 12 12 0 8 -9 4 -16 -8z" />
    <path d="M118 313 c6 -2 18 -2 25 0 6 3 1 5 -13 5 -14 0 -19 -2 -12 -5z" />
    <path d="M733 313 c15 -2 37 -2 50 0 12 2 0 4 -28 4 -27 0 -38 -2 -22 -4z" />
  </g>
  <g transform="translate(0.000000,100.000000) scale(0.100000,-0.100000)" fill="#9f89a9" stroke="none">
    <path d="M508 483 c12 -2 32 -2 45 0 12 2 2 4 -23 4 -25 0 -35 -2 -22 -4z" />
    <path d="M323 313 c4 -3 10 -3 14 0 3 4 0 7 -7 7 -7 0 -10 -3 -7 -7z" />
  </g>
  <g transform="translate(0.000000,100.000000) scale(0.100000,-0.100000)" fill="#bda7c6" stroke="none">
    <path d="M480 580 c0 -7 3 -10 7 -7 3 4 3 10 0 14 -4 3 -7 0 -7 -7z" />
  </g>
</svg>