<svg width="100.000000pt" height="100.000000pt" viewBox="0 0 100.000000 100.000000" xmlns="http://www.w3.org/2000/svg">
  <g transform="translate(0.000000,100.000000) scale(0.100000,-0.100000)" fill="#771471" stroke="none">
    <path d="M0 753 l0 -248 49 3 50 4 4 16 c3 10 5 2 6 -15 l1 -33 30 0 30 0 0
15 c0 8 -7 15 -15 15 -8 0 -15 7 -15 15 0 8 -4 15 -10 15 -5 0 -10 9 -10 20
l0 20 25 -6 25 -6 0 15 c0 9 -7 17 -15 19 l-15 3 22 25 c32 36 48 66 48 90 0
11 7 23 15 26 8 3 36 27 63 54 27 26 69 57 93 68 l45 21 42 -6 42 -6 0 14 0
13 12 -12 c7 -7 27 -12 46 -12 38 0 132 -28 132 -40 0 -4 11 -11 25 -14 14 -4
25 -11 25 -18 0 -6 14 -24 30 -40 17 -15 30 -32 30 -37 0 -5 5 -11 12 -13 14
-5 48 -165 41 -195 l-5 -21 24 -5 23 -4 -22 -2 -23 -1 0 -26 0 -26 33 7 c44
10 50 14 44 36 -6 23 10 34 41 30 l22 -2 0 245 0 246 -500 0 -500 0 0 -247z
m904 -148 c3 -8 1 -15 -4 -15 -6 0 -10 7 -10 15 0 8 2 15 4 15 2 0 6 -7 10
-15z" />
    <path d="M380 505 c0 -8 -7 -15 -15 -15 -8 0 -15 -7 -15 -15 0 -8 7 -15 15
-15 8 0 15 7 15 15 0 8 7 15 15 15 8 0 15 7 15 15 0 8 -7 15 -15 15 -8 0 -15
-7 -15 -15z" />
    <path d="M630 505 c0 -8 7 -15 15 -15 8 0 15 7 15 15 0 8 -7 15 -15 15 -8 0
-15 -7 -15 -15z" />
    <path d="M310 485 c0 -8 7 -15 15 -15 8 0 15 7 15 15 0 8 -7 15 -15 15 -8 0
-15 -7 -15 -15z" />
    <path d="M430 485 c0 -8 7 -15 15 -15 8 0 15 7 15 15 0 8 -7 15 -15 15 -8 0
-15 -7 -15 -15z" />
    <path d="M560 485 c0 -8 7 -15 15 -15 8 0 15 7 15 15 0 8 -7 15 -15 15 -8 0
-15 -7 -15 -15z" />
    <path d="M90 450 l0 -20 35 0 35 0 0 20 0 20 -35 0 -35 0 0 -20z" />
    <path d="M864 415 c-4 -8 -12 -15 -20 -15 -8 0 -14 -7 -14 -15 0 -8 7 -15 15
-15 8 0 15 -4 15 -10 0 -5 7 -10 15 -10 l15 0 0 20 0 20 25 6 c14 3 25 12 25
20 l0 14 -35 0 -36 0 -5 -15z" />
    <path d="M157 413 c-4 -3 -7 -22 -7 -41 l0 -34 25 6 25 6 2 -17 c0 -10 0 -28
-1 -40 l-2 -23 21 0 20 0 0 29 c0 16 -7 36 -15 45 -8 8 -15 22 -15 30 0 9 -4
16 -10 16 -5 0 -10 7 -10 15 0 15 -21 21 -33 8z" />
    <path d="M530 405 c0 -8 7 -15 15 -15 8 0 15 7 15 15 0 8 -7 15 -15 15 -8 0
-15 -7 -15 -15z" />
    <path d="M803 345 c-3 -9 -3 -18 0 -22 10 -10 37 6 37 22 0 20 -29 20 -37 0z" />
    <path d="M290 315 c0 -8 7 -15 15 -15 8 0 15 7 15 15 0 8 -7 15 -15 15 -8 0
-15 -7 -15 -15z" />
    <path d="M350 305 c0 -8 7 -15 15 -15 8 0 15 7 15 15 0 8 -7 15 -15 15 -8 0
-15 -7 -15 -15z" />
    <path d="M757 293 c-12 -12 -7 -43 7 -43 13 0 26 20 26 41 0 10 -23 12 -33 2z" />
    <path d="M280 245 l0 -15 25 -6 c14 -3 25 -10 25 -15 0 -5 9 -9 20 -9 l20 0 0
15 c0 8 -7 15 -16 15 -8 0 -22 7 -30 15 -20 19 -44 19 -44 0z" />
    <path d="M230 230 l0 -20 15 0 15 0 0 20 0 20 -15 0 -15 0 0 -20z" />
    <path d="M668 229 c-21 -12 -24 -39 -5 -39 17 1 47 25 47 39 0 14 -19 14 -42
0z" />
    <path d="M770 205 c0 -8 7 -15 15 -15 8 0 15 7 15 15 0 8 -7 15 -15 15 -8 0
-15 -7 -15 -15z" />
    <path d="M380 196 c0 -7 10 -16 23 -20 32 -8 37 -8 37 8 0 7 -10 16 -22 20
-33 8 -38 8 -38 -8z" />
    <path d="M450 185 c0 -8 7 -15 15 -15 8 0 15 7 15 15 0 8 -7 15 -15 15 -8 0
-15 -7 -15 -15z" />
    <path d="M590 185 c0 -8 7 -15 15 -15 8 0 15 7 15 15 0 8 -7 15 -15 15 -8 0
-15 -7 -15 -15z" />
  </g>
  <g transform="translate(0.000000,100.000000) scale(0.100000,-0.100000)" fill="#6d1167" stroke="none">
    <path d="M330 860 c-8 -5 -12 -12 -9 -15 8 -8 39 5 39 16 0 11 -11 11 -30 -1z" />
    <path d="M740 820 c0 -5 5 -10 10 -10 6 0 10 5 10 10 0 6 -4 10 -10 10 -5 0
-10 -4 -10 -10z" />
    <path d="M240 810 c0 -5 7 -7 15 -4 8 4 15 8 15 10 0 2 -7 4 -15 4 -8 0 -15
-4 -15 -10z" />
    <path d="M826 731 c-7 -11 3 -41 14 -41 17 0 21 21 6 35 l-15 15 -5 -9z" />
    <path d="M130 594 c0 -17 22 -14 28 4 2 7 -3 12 -12 12 -9 0 -16 -7 -16 -16z" />
    <path d="M860 540 c0 -11 4 -20 9 -20 5 0 11 9 14 20 l5 20 -14 0 -14 0 0 -20z" />
    <path d="M900 544 c0 -17 22 -14 28 4 2 7 -3 12 -12 12 -9 0 -16 -7 -16 -16z" />
    <path d="M130 515 c0 -8 5 -15 10 -15 6 0 10 7 10 15 0 8 -4 15 -10 15 -5 0
-10 -7 -10 -15z" />
    <path d="M872 494 c4 -21 22 -23 26 -1 l3 17 -16 0 -16 0 3 -16z" />
    <path d="M144 458 c3 -18 5 -45 5 -60 l1 -28 12 3 c7 1 12 -5 13 -13 0 -8 8
-16 18 -18 l17 -3 0 16 0 16 -10 -6 -10 -6 0 27 0 26 -17 -13 -18 -14 12 16
12 15 -6 37 -6 37 -13 0 -14 0 4 -32z" />
    <path d="M860 433 c0 -13 -5 -23 -11 -23 l-11 0 6 -16 6 -15 -10 6 c-9 6 -11
2 -14 -32 -1 -6 -13 -21 -28 -33 -15 -12 -27 -24 -27 -28 3 -21 -3 -32 -18
-32 -20 -1 -74 -29 -58 -30 14 -1 -27 -24 -45 -25 -8 -1 -23 -2 -33 -3 l-18
-2 6 -10 6 -10 -28 11 -27 10 -25 -13 -24 -13 -4 13 c-3 6 -14 12 -24 12 -11
0 -18 -3 -16 -7 3 -5 -5 -8 -18 -8 -13 0 -21 4 -17 9 l5 9 -19 -5 c-11 -3 -25
1 -32 8 -7 7 -19 11 -27 7 l-16 -5 3 13 3 14 -17 -1 c-10 -1 -18 2 -18 8 0 5
-5 6 -12 2 l-11 -7 7 11 7 11 -38 36 c-39 37 -63 45 -63 20 l0 -15 -25 0 -25
0 0 -33 0 -32 24 -15 25 -15 -100 3 -99 4 0 -106 0 -106 500 0 500 0 0 108 0
107 -110 -5 c-100 -5 -134 1 -95 16 8 4 15 17 15 29 0 29 25 55 51 55 l19 0 0
14 c0 8 -6 17 -12 19 l-13 5 11 1 11 1 -5 30 -4 30 16 6 c9 3 16 14 16 24 l0
19 -20 -2 -20 -1 0 -23z m-637 -158 l-6 -16 19 -14 c11 -7 16 -16 13 -19 -3
-3 -17 4 -31 15 l-26 21 11 14 c16 18 28 17 20 -1z m15 -112 c-43 -2 -113 -2
-155 0 -43 1 -8 3 77 3 85 0 120 -2 78 -3z m675 0 c-45 -2 -122 -2 -170 0 -48
1 -11 3 82 3 94 0 133 -2 88 -3z" />
    <path d="M893 403 c-7 -2 -13 -11 -13 -19 l0 -14 30 0 30 0 0 20 0 20 -17 -1
c-10 0 -24 -3 -30 -6z" />
  </g>
  <g transform="translate(0.000000,100.000000) scale(0.100000,-0.100000)" fill="#71126b" stroke="none">
    <path d="M438 909 c-2 -6 -15 -12 -28 -12 -14 -1 -36 -12 -49 -24 l-24 -23 16
0 c10 0 17 4 17 9 0 11 76 30 99 24 l18 -4 0 15 c0 9 -2 14 -5 11 -3 -2 -13 0
-23 5 l-17 10 -4 -11z" />
    <path d="M505 910 l-6 -10 16 0 16 0 -6 10 c-3 6 -8 10 -10 10 -2 0 -7 -4 -10
-10z" />
    <path d="M547 896 l-6 -14 45 0 c24 1 42 4 38 7 -3 3 -9 6 -12 6 -4 0 -13 4
-19 8 l-13 8 0 -12 0 -11 -14 11 -14 12 -5 -15z" />
    <path d="M643 885 l0 -13 14 5 c7 3 13 6 13 8 0 2 -6 5 -13 8 l-14 5 0 -13z" />
    <path d="M678 873 c-19 -5 -25 -23 -9 -23 5 0 16 -3 24 -6 l14 -5 6 15 6 15
-16 -6 -16 -6 7 11 c4 7 6 11 4 11 -2 -1 -11 -3 -20 -6z" />
    <path d="M290 830 c0 -6 -4 -9 -9 -5 -5 3 -12 1 -15 -4 -10 -16 8 -20 27 -6
l18 13 -10 7 c-6 3 -11 1 -11 -5z" />
    <path d="M720 830 c0 -5 7 -10 16 -10 l15 0 -6 10 c-3 6 -10 10 -16 10 -5 0
-9 -4 -9 -10z" />
    <path d="M238 802 c-4 -12 -2 -24 2 -27 13 -8 18 8 10 29 l-7 20 -5 -22z" />
    <path d="M770 789 c0 -5 5 -7 10 -4 6 3 10 8 10 11 0 2 -4 4 -10 4 -5 0 -10
-5 -10 -11z" />
    <path d="M200 750 l-15 -9 13 -13 13 -13 9 15 c12 18 13 30 3 30 -5 0 -15 -5
-23 -10z" />
    <path d="M800 751 c0 -5 7 -14 15 -21 8 -7 15 -21 15 -31 0 -11 5 -19 11 -19
l11 0 -6 16 -6 15 10 -6 c6 -3 10 -1 10 4 0 6 -7 11 -15 11 -8 0 -14 3 -14 8
3 20 -2 32 -16 32 -8 0 -15 -4 -15 -9z" />
    <path d="M860 740 c0 -7 3 -10 7 -7 3 4 3 10 0 14 -4 3 -7 0 -7 -7z" />
    <path d="M184 708 c6 -20 -10 -25 -17 -5 l-5 12 -1 -11 c-1 -6 5 -17 13 -23
l14 -12 5 14 c3 8 1 20 -5 28 l-10 14 6 -17z" />
    <path d="M910 700 c0 -7 3 -10 7 -7 3 4 3 10 0 14 -4 3 -7 0 -7 -7z" />
    <path d="M148 635 c-10 -13 -18 -29 -18 -35 0 -6 -4 -8 -10 -5 l-10 6 -1 -28
-1 -28 -7 30 -7 30 -7 -27 c-4 -14 -4 -34 -1 -42 l6 -16 -46 0 -46 0 0 -159 0
-159 103 -4 102 -5 23 25 c12 14 22 20 22 14 0 -7 3 -11 8 -10 4 0 15 -2 25
-7 l17 -7 15 12 16 13 -21 19 c-12 11 -24 17 -28 13 -4 -4 -1 -10 6 -12 6 -3
12 -11 12 -19 l0 -15 -32 23 c-18 13 -37 28 -43 33 -13 13 -16 45 -4 45 5 0 9
5 9 11 0 5 -4 7 -10 4 l-10 -6 6 15 6 16 -29 -4 -29 -3 -3 39 -2 40 11 -7 10
-6 0 16 0 16 -22 -6 -21 -7 6 17 c4 9 7 19 7 21 0 3 5 2 10 -1 l10 -6 0 16 c0
9 -3 14 -8 11 -4 -2 -6 13 -4 35 l4 39 -13 18 -13 17 14 -12 c8 -7 17 -13 21
-13 3 0 6 18 6 40 0 22 -2 40 -6 40 -3 0 -14 -11 -23 -25z m-15 -130 c-7 -21
-13 -19 -13 6 l0 20 10 -6 c5 -3 7 -12 3 -20z m-13 -55 c0 -5 -4 -10 -10 -10
-5 0 -10 5 -10 10 0 6 5 10 10 10 6 0 10 -4 10 -10z m73 -167 c-19 -7 -16 -30
4 -42 10 -5 15 -12 11 -16 -11 -11 -48 19 -48 40 l0 21 23 1 c12 0 16 -1 10
-4z" />
    <path d="M875 629 l7 -37 -11 -6 c-15 -10 -14 -56 4 -106 8 -24 13 -46 9 -49
-3 -3 -13 -6 -22 -6 -9 0 -18 -8 -20 -19 l-4 -18 11 6 11 7 -6 -15 -6 -15 -14
6 -14 5 0 -14 c0 -8 5 -19 12 -26 l12 -12 -22 -20 c-12 -12 -22 -31 -22 -44 0
-13 -7 -26 -15 -30 -8 -3 -15 -12 -15 -20 l0 -14 115 -1 115 -2 0 161 0 160
-12 0 c-7 0 -24 9 -38 20 -14 11 -33 20 -42 20 -10 0 -18 5 -18 11 l0 11 38
-4 37 -3 -1 13 c-1 6 -2 26 -2 43 l-2 30 -10 -6 -10 -6 6 -25 6 -24 -13 0 c-7
0 -25 15 -41 33 l-30 32 7 -36z m25 -89 c0 -5 5 -10 11 -10 5 0 7 4 4 10 l-6
10 15 -6 c21 -8 20 -18 -1 -35 l-17 -14 8 13 8 13 -24 -5 -24 -4 -1 19 -2 19
15 0 c8 0 14 -4 14 -10z m8 -56 c6 3 13 2 17 -4 3 -6 -1 -13 -10 -17 l-17 -6
-9 14 c-5 8 -9 19 -9 24 0 6 4 4 9 -4 5 -7 13 -11 19 -7z m7 -74 c-28 -12 -47
-12 -40 0 3 6 18 10 33 9 l27 0 -20 -9z m15 -20 c0 -5 -9 -10 -21 -10 l-20 0
6 10 c3 6 13 10 21 10 8 0 14 -4 14 -10z m-50 -20 c0 -5 -5 -10 -11 -10 -5 0
-7 5 -4 10 3 6 8 10 11 10 2 0 4 -4 4 -10z m-30 -20 c0 -5 -2 -10 -4 -10 -3 0
-8 5 -11 10 -3 6 -1 10 4 10 6 0 11 -4 11 -10z m17 -27 c-4 -3 -10 -3 -14 0
-3 4 0 7 7 7 7 0 10 -3 7 -7z" />
    <path d="M850 455 c0 -8 5 -15 10 -15 6 0 10 7 10 15 0 8 -4 15 -10 15 -5 0
-10 -7 -10 -15z" />
    <path d="M175 380 c-3 -5 -2 -10 4 -10 5 0 13 5 16 10 3 6 2 10 -4 10 -5 0
-13 -4 -16 -10z" />
    <path d="M794 325 c-9 -22 1 -29 15 -11 l12 14 -11 7 c-5 3 -13 -1 -16 -10z" />
    <path d="M232 309 c2 -7 10 -15 17 -17 l14 -4 -5 13 c-2 7 -10 15 -17 17 l-13
5 4 -14z" />
    <path d="M765 279 l6 -16 -22 1 c-12 1 -24 -5 -26 -12 l-5 -12 21 3 c12 2 27
9 33 15 l12 12 -13 13 -12 12 6 -16z" />
    <path d="M665 221 c-8 -14 10 -22 30 -15 l17 7 -14 8 c-17 11 -26 11 -33 0z" />
    <path d="M745 220 c-3 -5 -1 -10 4 -10 6 0 11 5 11 10 0 6 -2 10 -4 10 -3 0
-8 -4 -11 -10z" />
    <path d="M340 200 c0 -7 3 -10 7 -7 3 4 3 10 0 14 -4 3 -7 0 -7 -7z" />
    <path d="M375 200 c4 -6 11 -8 16 -5 14 9 11 15 -7 15 l-15 0 6 -10z" />
    <path d="M525 189 c-12 -19 5 -23 22 -6 l17 17 -16 0 c-9 0 -20 -5 -23 -11z" />
    <path d="M490 180 c0 -5 5 -10 10 -10 6 0 10 5 10 10 0 6 -4 10 -10 10 -5 0
-10 -4 -10 -10z" />
    <path d="M0 165 l0 -15 160 0 160 0 0 -10 c0 -5 8 -10 18 -9 l17 1 -12 5 c-7
2 -13 9 -13 15 l0 10 24 -6 c14 -3 27 -2 30 3 10 15 -34 20 -211 21 l-173 1 0
-16z" />
    <path d="M620 166 l-35 -13 23 -12 c13 -7 26 -10 30 -7 3 3 -1 6 -8 6 -7 0
-11 3 -7 6 3 3 89 5 191 4 l186 -1 0 16 0 15 -172 -1 -173 -1 -35 -12z" />
    <path d="M433 153 c4 -3 10 -3 14 0 3 4 0 7 -7 7 -7 0 -10 -3 -7 -7z" />
    <path d="M537 153 c-14 -14 -6 -23 21 -22 l27 2 -24 4 -24 5 14 9 c8 5 9 9 3
9 -6 0 -14 -3 -17 -7z" />
    <path d="M477 139 c7 -7 15 -10 18 -7 3 3 -2 9 -12 12 l-18 7 12 -12z" />
    <path d="M428 133 c6 -2 18 -2 25 0 6 3 1 5 -13 5 -14 0 -19 -2 -12 -5z" />
  </g>
  <g transform="translate(0.000000,100.000000) scale(0.100000,-0.100000)" fill="#efb910" stroke="none">
    <path d="M473 783 c-25 -5 -32 -33 -8 -33 8 0 15 -4 15 -10 0 -5 9 -10 19 -10
l20 0 6 20 c3 11 3 24 0 30 -6 10 -13 11 -52 3z" />
    <path d="M550 769 c0 -17 23 -34 60 -45 l35 -10 3 -26 3 -26 -25 -6 -26 -6 0
-20 0 -20 -20 0 -20 0 0 -15 0 -15 53 0 52 0 33 -20 c17 -11 32 -27 32 -35 0
-8 7 -15 15 -15 l15 0 0 60 0 60 -10 0 c-5 0 -10 6 -10 14 0 8 -3 16 -7 18 -5
2 -15 16 -23 32 -8 16 -24 34 -35 40 -11 6 -22 14 -25 17 -7 8 -70 29 -86 29
-8 0 -14 -5 -14 -11z" />
    <path d="M393 763 c-7 -2 -13 -11 -13 -19 0 -8 -8 -14 -18 -14 -18 0 -62 -49
-62 -70 0 -5 -3 -10 -8 -10 -8 0 -32 -93 -32 -128 l0 -22 20 0 c11 0 20 5 20
11 0 6 13 24 29 40 l29 29 46 0 46 0 0 15 c0 8 -4 15 -10 15 -5 0 -10 7 -10
15 0 9 -11 20 -24 25 -31 12 -38 24 -30 55 l6 25 24 0 24 0 0 20 c0 19 -12 24
-37 13z" />
    <path d="M300 426 c0 -14 4 -26 8 -26 4 0 15 -13 25 -29 l17 -30 57 -27 57
-26 73 6 73 7 37 24 c20 14 40 25 44 25 5 0 9 7 9 15 0 8 5 15 10 15 6 0 10 7
10 15 0 8 5 15 10 15 6 0 10 10 10 21 l0 22 -47 -6 c-26 -3 -49 -10 -51 -16
-2 -6 -10 -11 -17 -11 -18 0 -85 -61 -85 -77 0 -19 -34 -16 -56 5 -11 9 -27
29 -37 45 l-17 27 -19 0 c-11 0 -21 5 -23 11 -2 5 -22 13 -46 16 l-42 6 0 -27z" />
  </g>
  <g transform="translate(0.000000,100.000000) scale(0.100000,-0.100000)" fill="#842679" stroke="none">
    <path d="M248 993 c138 -2 366 -2 505 0 138 1 25 2 -253 2 -278 0 -391 -1
-252 -2z" />
    <path d="M497 895 l-6 -15 25 0 26 0 -4 13 c-7 18 -35 20 -41 2z" />
    <path d="M425 890 l-6 -10 20 0 c12 0 21 5 21 10 0 6 -6 10 -14 10 -8 0 -18
-4 -21 -10z" />
    <path d="M575 891 c-6 -11 33 -26 43 -16 4 3 0 10 -8 15 -19 12 -27 12 -35 1z" />
    <path d="M349 863 c-14 -7 -46 -31 -70 -52 l-44 -40 16 -1 c9 0 24 9 34 20 10
11 22 20 27 20 5 0 16 7 24 15 8 8 22 19 31 23 8 5 14 13 12 19 l-4 9 -26 -13z" />
    <path d="M630 871 c0 -5 13 -14 30 -21 16 -7 35 -18 41 -26 6 -8 18 -14 26
-14 27 0 7 24 -38 47 -49 25 -59 27 -59 14z" />
    <path d="M760 790 c0 -5 4 -10 9 -10 5 0 12 -11 15 -25 l6 -25 15 0 c21 0 18
11 -10 43 -25 29 -35 33 -35 17z" />
    <path d="M210 741 c-13 -25 -13 -41 0 -41 6 0 10 7 10 15 0 8 5 15 10 15 6 0
10 7 10 15 0 21 -17 19 -30 -4z" />
    <path d="M820 708 c0 -17 18 -44 24 -37 8 7 -5 49 -15 49 -5 0 -9 -6 -9 -12z" />
    <path d="M210 675 c0 -8 7 -15 15 -15 8 0 15 7 15 15 0 8 -7 15 -15 15 -8 0
-15 -7 -15 -15z" />
    <path d="M170 649 c-13 -24 -4 -41 10 -19 10 16 13 40 5 40 -2 0 -9 -9 -15
-21z" />
    <path d="M840 636 c0 -19 26 -67 32 -60 8 7 -14 74 -24 74 -4 0 -8 -6 -8 -14z" />
    <path d="M158 584 c-12 -11 -10 -82 2 -89 6 -3 13 1 16 9 8 20 -9 90 -18 80z" />
    <path d="M369 528 c0 -18 -2 -41 -4 -51 l-3 -18 15 -6 16 -6 13 18 14 19 0
-26 0 -26 16 -6 c8 -3 26 -3 40 0 l24 6 0 19 0 19 -14 0 c-8 0 -16 -6 -19 -12
l-4 -13 -9 8 -8 8 13 8 c7 5 11 17 9 27 l-3 19 -28 3 -27 3 0 20 0 19 -20 0
-20 0 -1 -32z" />
    <path d="M430 545 c0 -8 7 -15 15 -15 8 0 15 7 15 15 0 8 -7 15 -15 15 -8 0
-15 -7 -15 -15z" />
    <path d="M624 538 c3 -13 6 -35 6 -50 l0 -28 30 0 30 0 0 15 c0 8 5 15 10 15
6 0 10 9 10 20 l0 20 -20 0 -20 0 -1 -17 -1 -18 -10 33 -11 32 -15 0 -14 0 6
-22z" />
    <path d="M579 508 c-1 -7 -1 -17 0 -21 1 -5 -3 -6 -9 -2 -5 3 -10 2 -10 -3 0
-5 -9 -12 -20 -15 -11 -3 -20 -12 -20 -21 l0 -16 20 0 c11 0 20 6 20 13 0 7
14 18 31 24 l31 12 -4 18 c-2 10 -11 19 -21 21 l-17 3 -1 -13z" />
    <path d="M302 488 l3 -23 20 0 20 0 0 20 0 20 -23 3 -24 4 4 -24z" />
    <path d="M850 464 l0 -15 10 6 c6 3 10 10 10 16 0 5 -4 9 -10 9 -5 0 -10 -7
-10 -16z" />
    <path d="M160 455 c0 -8 5 -15 10 -15 6 0 10 7 10 15 0 8 -4 15 -10 15 -5 0
-10 -7 -10 -15z" />
    <path d="M175 409 c4 -13 12 -25 16 -27 5 -2 9 -10 9 -18 0 -8 5 -14 10 -14 6
0 10 7 10 15 0 8 -4 15 -9 15 -5 0 -11 10 -13 22 -2 12 -9 23 -17 26 l-13 4 7
-23z" />
    <path d="M480 400 l0 -20 15 0 c8 0 15 -4 15 -10 0 -11 29 -14 31 -2 1 4 3 17
4 30 l2 22 -13 0 c-7 0 -15 -6 -17 -12 l-5 -13 -1 13 c-1 6 -8 12 -16 12 l-15
0 0 -20z" />
    <path d="M811 370 c-32 -57 -20 -74 12 -19 29 49 32 59 19 59 -5 0 -18 -18
-31 -40z" />
    <path d="M280 335 c-16 -19 -6 -45 18 -45 10 0 27 -10 38 -22 l19 -21 -20 7
c-11 5 -29 10 -40 13 l-20 4 30 -25 c33 -29 55 -33 55 -12 0 7 9 16 21 19 l21
6 -4 23 -3 23 -17 -1 c-10 -1 -16 2 -13 6 7 11 -34 40 -56 40 -9 0 -22 -7 -29
-15z" />
    <path d="M668 323 c-18 -15 -34 -28 -36 -29 -2 -1 0 -13 4 -28 l6 -26 19 0
c10 0 19 4 19 8 0 4 14 16 30 25 l30 18 0 -15 c0 -9 4 -16 9 -16 14 0 21 28 8
34 l-12 6 13 6 c17 8 15 31 -4 38 -30 11 -53 6 -86 -21z" />
    <path d="M620 200 c0 -5 4 -10 9 -10 6 0 13 5 16 10 l6 10 -15 0 c-9 0 -16 -4
-16 -10z" />
    <path d="M425 190 c3 -5 12 -10 20 -10 8 0 17 5 20 10 l6 10 -26 0 -26 0 6
-10z" />
    <path d="M493 188 c2 -7 12 -13 22 -13 10 0 20 6 23 13 l4 12 -27 0 -27 0 5
-12z" />
    <path d="M570 190 c0 -5 6 -10 14 -10 8 0 18 5 21 10 l6 10 -20 0 c-12 0 -21
-4 -21 -10z" />
  </g>
  <g transform="translate(0.000000,100.000000) scale(0.100000,-0.100000)" fill="#933e74" stroke="none">
    <path d="M438 887 c-7 -8 -18 -12 -25 -10 -16 6 -73 -25 -80 -43 -3 -7 -13
-14 -22 -14 -10 0 -36 -21 -60 -46 l-42 -46 5 -13 5 -13 -20 -5 -19 -5 0 -20
0 -21 20 -6 20 -6 15 15 c8 8 15 22 15 30 0 9 5 16 11 16 l11 0 -5 29 -6 29
20 -5 20 -6 6 22 c3 11 12 21 19 21 8 0 14 6 14 14 l0 15 35 -6 35 -6 20 18
19 18 56 -1 56 0 -3 16 -3 17 -40 5 c-22 3 -45 9 -52 13 l-11 7 -14 -13z" />
    <path d="M565 869 c4 -13 9 -26 12 -28 2 -3 21 -5 42 -6 41 -1 71 -18 71 -41
0 -8 6 -14 13 -14 7 0 18 -9 25 -20 7 -11 19 -20 27 -20 8 0 15 -7 15 -15 0
-8 -4 -15 -10 -15 -5 0 -10 -7 -10 -15 0 -18 26 -20 33 -2 3 6 6 0 6 -15 l1
-28 -15 0 c-8 0 -15 -4 -15 -9 0 -21 13 -41 27 -41 l15 0 -5 20 c-3 11 -1 20
4 20 5 0 9 -7 9 -15 l0 -15 20 0 20 0 0 -14 c0 -8 -7 -16 -15 -20 -20 -7 -19
-36 0 -36 9 0 20 11 27 24 l11 25 -8 18 c-5 10 -10 28 -11 40 -3 23 -20 60
-38 80 -27 30 -36 43 -36 48 0 9 -29 37 -50 50 -63 37 -101 54 -134 60 l-38 8
7 -24z" />
    <path d="M460 815 l0 -15 25 0 25 0 0 15 0 15 -25 0 -25 0 0 -15z" />
    <path d="M167 633 c-3 -5 -4 -51 -3 -104 l1 -96 12 -15 c7 -8 11 -17 8 -20 -3
-3 1 -11 10 -18 8 -7 15 -17 15 -23 0 -18 51 -78 84 -98 40 -24 56 -24 56 1
l0 21 -17 5 c-10 3 -25 9 -33 13 l-15 8 3 22 c2 11 -2 21 -7 21 -6 0 -11 7
-11 15 0 8 -9 19 -20 25 -11 6 -20 17 -20 24 0 8 -7 16 -15 20 l-15 6 6 25 6
25 -11 0 -11 0 0 30 c0 17 5 30 10 30 6 0 10 11 10 25 0 14 5 25 10 25 20 0 9
28 -12 34 -30 8 -36 7 -41 -1z" />
    <path d="M410 555 c0 -8 -7 -15 -16 -15 l-15 0 6 10 c10 16 -15 11 -33 -7 -9
-9 -17 -26 -17 -38 -1 -11 -5 -26 -9 -33 l-7 -12 20 0 c12 0 21 5 21 10 0 6 9
10 19 10 l19 0 -5 -20 -5 -20 21 0 c11 0 21 5 21 10 l0 11 13 -13 c8 -7 12
-20 9 -30 l-4 -18 21 0 c11 0 21 5 21 10 0 6 5 10 10 10 l11 0 -9 -16 c-12
-22 -3 -64 14 -64 l14 0 -2 32 -3 33 24 3 23 4 5 19 c3 10 10 19 17 20 6 1 20
2 31 3 l20 1 -3 18 -3 18 35 -7 36 -6 0 16 0 15 -15 -5 -15 -6 0 11 c0 6 5 11
10 11 6 0 10 7 10 15 l0 15 -27 6 -27 7 -3 -10 -4 -11 -44 4 -45 4 0 -54 0
-55 -34 2 -33 2 -1 20 c0 29 -20 75 -32 75 -5 0 -10 7 -10 15 0 8 -7 15 -15
15 -8 0 -15 -7 -15 -15z m-5 -45 l6 -10 -15 0 c-9 0 -16 5 -16 10 0 6 4 10 9
10 6 0 13 -4 16 -10z m242 -7 c-4 -3 -7 0 -7 7 0 7 3 10 7 7 3 -4 3 -10 0 -14z
m-192 -4 c10 -15 -1 -23 -20 -15 -9 3 -13 10 -10 16 8 13 22 13 30 -1z m145
-11 c-13 -10 -25 -16 -28 -13 -8 8 17 32 34 32 l17 0 -23 -19z" />
    <path d="M230 535 c0 -8 7 -15 15 -15 8 0 15 7 15 15 0 8 -7 15 -15 15 -8 0
-15 -7 -15 -15z" />
    <path d="M826 514 c-3 -9 -6 -28 -6 -44 0 -15 -7 -51 -17 -79 l-16 -51 -20 0
c-11 0 -18 -3 -14 -6 3 -3 -5 -18 -19 -32 -13 -15 -24 -31 -24 -35 0 -5 -9 -5
-20 -2 l-20 6 0 -11 0 -12 -15 6 -15 5 0 -13 0 -14 -44 -11 c-25 -6 -66 -11
-91 -11 l-46 0 -5 15 c-7 17 -34 21 -34 5 0 -5 -4 -10 -10 -10 -5 0 -10 7 -10
15 0 9 -7 18 -15 22 l-16 6 -13 -19 -14 -18 14 -13 c16 -17 119 -30 203 -27
l61 3 45 22 c25 12 45 26 45 31 0 4 6 8 13 8 27 1 117 119 117 156 0 8 7 14
16 14 l16 0 -6 24 c-3 14 -2 27 3 30 l9 6 -11 25 c-14 28 -32 32 -41 9z" />
    <path d="M780 485 c0 -8 7 -15 15 -15 8 0 15 7 15 15 0 8 -7 15 -15 15 -8 0
-15 -7 -15 -15z" />
  </g>
  <g transform="translate(0.000000,100.000000) scale(0.100000,-0.100000)" fill="#f1ba1d" stroke="none">
    <path d="M423 778 c-18 -6 -33 -15 -33 -21 0 -5 7 -7 15 -3 l15 5 0 -10 0 -11
-23 5 c-12 4 -29 2 -37 -4 l-15 -11 12 -5 13 -5 -11 -20 -11 -20 16 -17 c9
-10 16 -22 16 -28 0 -6 -11 -18 -25 -27 -14 -9 -24 -20 -22 -24 2 -4 -4 -15
-14 -24 l-19 -18 -9 19 c-6 10 -7 27 -4 39 l5 22 -11 0 c-6 0 -11 -6 -11 -12
0 -7 -3 -24 -7 -37 l-6 -24 10 6 c6 4 14 0 17 -9 10 -26 7 -36 -9 -30 l-15 5
0 -14 0 -15 18 0 18 0 18 31 c10 17 29 35 42 41 24 11 33 28 13 28 -5 0 -7 5
-4 10 4 6 11 8 16 5 5 -4 14 -3 20 1 l11 7 -12 7 -12 8 12 7 11 7 6 -21 c3
-12 10 -21 15 -21 5 0 6 -4 3 -10 l-6 -10 20 0 21 0 0 28 0 29 -41 13 c-22 8
-42 17 -45 22 -3 5 12 25 33 44 l38 35 14 -20 c7 -12 19 -21 26 -21 7 0 19 10
27 22 l15 23 52 -24 51 -24 0 -20 0 -19 -20 -5 c-11 -3 -20 -9 -20 -13 0 -4
-9 -17 -20 -30 -11 -13 -20 -30 -20 -38 l0 -14 23 6 c12 3 29 6 37 6 l14 0
-12 12 c-17 17 -15 45 3 52 l15 6 -9 -18 -9 -18 19 -1 c10 -1 21 2 24 8 l6 9
-15 -6 c-20 -8 -20 0 -1 30 l16 23 -10 27 c-11 27 -3 34 17 14 l12 -12 0 16 0
16 -46 23 -47 22 -71 3 c-39 2 -86 -2 -103 -8z m90 -23 c-6 -16 -23 -20 -23
-6 0 5 -6 11 -12 14 -7 2 -5 3 5 2 9 -2 17 1 17 7 0 5 4 7 10 3 5 -3 7 -12 3
-20z m103 -1 c13 -3 24 -10 24 -15 0 -12 -17 -11 -25 2 -4 6 -12 8 -19 6 -6
-3 -18 3 -26 11 l-14 16 18 -7 c10 -4 29 -10 42 -13z m-19 -160 c-3 -3 -12 -4
-19 -1 l-13 5 19 1 c11 1 17 -2 13 -5z" />
    <path d="M320 695 l0 -14 15 5 c8 4 12 10 9 15 -8 14 -24 10 -24 -6z" />
    <path d="M570 695 c0 -8 7 -15 15 -15 8 0 15 7 15 15 0 8 -7 15 -15 15 -8 0
-15 -7 -15 -15z" />
    <path d="M705 668 c4 -45 4 -45 15 -28 l10 15 0 -15 c0 -8 -4 -21 -9 -29 l-9
-15 -16 13 -16 13 0 -15 c0 -8 8 -18 17 -22 l18 -6 3 11 c2 6 10 17 19 25 l14
15 -7 22 c-8 27 -23 48 -34 48 -4 0 -6 -15 -5 -32z" />
    <path d="M290 655 c0 -8 5 -15 10 -15 6 0 10 7 10 15 0 8 -4 15 -10 15 -5 0
-10 -7 -10 -15z" />
    <path d="M320 648 c0 -9 -6 -19 -12 -21 l-13 -5 13 -1 c14 -1 28 26 18 36 -3
4 -6 -1 -6 -9z" />
    <path d="M305 600 c3 -5 8 -10 11 -10 3 0 2 5 -1 10 -3 6 -8 10 -11 10 -3 0
-2 -4 1 -10z" />
    <path d="M650 582 c0 -4 14 -13 31 -21 17 -7 34 -24 39 -37 l10 -24 20 0 20 0
0 40 0 40 -10 0 c-5 0 -10 -15 -11 -32 l0 -33 -9 22 c-12 30 -90 70 -90 45z" />
    <path d="M290 436 c0 -28 44 -85 56 -73 4 4 2 13 -4 19 -17 17 -15 28 3 22
l15 -6 0 12 0 12 -25 -6 -25 -6 0 15 c0 16 12 18 48 9 12 -4 22 -12 22 -19 0
-7 7 -16 16 -19 l15 -6 -6 10 c-10 16 11 12 25 -5 7 -8 9 -15 5 -15 -5 0 2 -9
14 -19 l22 -19 -13 -5 -13 -5 22 -1 c12 -1 25 -6 28 -11 4 -6 11 -8 16 -4 l9
5 -36 45 -37 45 -54 24 c-29 14 -65 25 -78 25 l-25 0 0 -24z" />
    <path d="M647 447 l-28 -11 3 -15 c2 -8 11 -15 20 -17 l17 -2 -6 13 -5 14 37
7 c34 6 64 -4 38 -13 -15 -5 -17 -33 -3 -33 6 0 10 6 10 14 0 8 5 16 12 18
l12 4 -7 17 -6 17 -33 -1 c-18 -1 -46 -6 -61 -12z" />
    <path d="M686 412 c-4 -7 -5 -21 -1 -31 l6 -19 -17 -6 c-9 -3 -21 -3 -27 1 -7
3 -9 3 -5 -2 4 -4 -3 -16 -16 -26 l-24 -19 -68 -4 -69 -4 -50 23 c-27 13 -52
22 -54 19 -11 -11 44 -42 95 -53 l53 -12 48 7 c48 6 89 26 132 63 l23 20 -9
28 -9 27 -8 -12z" />
    <path d="M590 400 c0 -5 5 -10 10 -10 6 0 10 5 10 10 0 6 -4 10 -10 10 -5 0
-10 -4 -10 -10z" />
    <path d="M554 376 c-6 -7 -15 -22 -18 -34 l-7 -22 22 0 21 0 -12 14 -12 15 21
13 c12 7 21 16 21 20 0 12 -24 8 -36 -6z" />
    <path d="M597 361 c-3 -12 -1 -21 3 -21 15 0 23 21 12 32 l-9 9 -6 -20z" />
  </g>
  <g transform="translate(0.000000,100.000000) scale(0.100000,-0.100000)" fill="#7d2564" stroke="none">
    <path d="M525 890 c-3 -4 2 -11 11 -14 22 -8 34 -7 34 3 0 12 -39 21 -45 11z" />
    <path d="M380 880 c-8 -5 -12 -11 -9 -15 8 -8 69 6 69 16 0 12 -41 11 -60 -1z" />
    <path d="M605 880 l-6 -10 21 0 21 0 -6 10 c-3 6 -10 10 -15 10 -5 0 -12 -4
-15 -10z" />
    <path d="M480 845 c0 -8 7 -15 15 -15 8 0 15 7 15 15 0 8 -7 15 -15 15 -8 0
-15 -7 -15 -15z" />
    <path d="M685 850 c-3 -5 -1 -10 4 -10 6 0 11 5 11 10 0 6 -2 10 -4 10 -3 0
-8 -4 -11 -10z" />
    <path d="M383 838 l2 -13 -17 3 -18 3 0 -16 c0 -19 17 -19 37 0 8 8 19 13 24
10 l9 -6 -6 15 c-7 19 -35 22 -31 4z" />
    <path d="M727 823 c-11 -11 -8 -23 6 -20 6 1 11 -4 10 -10 -2 -7 4 -13 12 -13
18 0 18 5 5 31 -11 20 -22 24 -33 12z" />
    <path d="M310 793 c0 -7 7 -13 15 -13 8 0 15 6 15 13 0 8 -7 14 -15 14 -8 0
-15 -6 -15 -14z" />
    <path d="M269 794 c-1 -5 -1 -12 0 -16 0 -4 -6 -5 -14 -2 l-15 6 0 -11 c0 -17
30 -13 37 4 3 9 3 19 -1 22 -3 4 -7 2 -7 -3z" />
    <path d="M206 735 c-3 -8 -1 -17 3 -20 5 -3 11 2 15 10 3 8 1 17 -3 20 -5 3
-11 -2 -15 -10z" />
    <path d="M690 735 c0 -8 7 -15 15 -15 8 0 15 7 15 15 0 8 -7 15 -15 15 -8 0
-15 -7 -15 -15z" />
    <path d="M810 729 c0 -8 5 -20 11 -26 l10 -10 -13 -14 c-7 -8 -14 -20 -15 -27
l-3 -12 30 0 c29 0 38 9 23 23 -3 4 -13 1 -22 -6 l-16 -12 13 16 c14 19 11 54
-6 71 l-12 12 0 -15z" />
    <path d="M232 718 c2 -6 10 -14 16 -16 l12 -4 -6 16 c-7 18 -28 22 -22 4z" />
    <path d="M769 712 c-1 -4 -1 -10 0 -14 0 -5 -4 -7 -11 -5 -6 1 -14 -6 -16 -15
l-3 -18 13 0 c20 1 64 37 55 46 -10 10 -37 14 -38 6z" />
    <path d="M184 683 c-3 -10 -10 -28 -15 -41 -12 -30 -11 -42 2 -42 5 0 7 5 3
11 -3 6 -2 14 4 18 5 3 12 21 15 39 6 34 0 43 -9 15z" />
    <path d="M233 673 c-18 -6 -16 -23 2 -23 8 0 15 -4 15 -10 0 -5 7 -10 15 -10
l15 0 0 19 0 19 -17 4 c-10 3 -24 3 -30 1z" />
    <path d="M800 620 c-8 -5 -18 -6 -22 -4 -4 3 -8 -2 -8 -10 l0 -16 35 0 35 0 0
14 c0 18 -23 27 -40 16z" />
    <path d="M161 574 l1 -19 5 13 c3 7 2 16 -1 19 -3 4 -6 -2 -5 -13z" />
    <path d="M588 573 c-28 -4 -34 -17 -20 -40 l8 -12 13 9 c8 4 20 6 26 3 l13 -4
-5 -22 -4 -22 15 19 16 20 0 -13 0 -12 11 7 12 7 -22 16 -22 17 21 1 20 2 -6
-11 -7 -11 16 6 15 6 6 -15 c3 -9 3 -26 0 -40 l-6 -24 31 0 c33 0 39 12 19 35
-30 33 -38 45 -38 53 0 9 -9 12 -65 25 -11 2 -32 2 -47 0z" />
    <path d="M367 563 c-23 -6 -57 -34 -57 -47 0 -5 8 -15 18 -22 9 -7 17 -18 17
-26 l0 -13 37 1 36 1 -4 -12 c-7 -17 23 -38 42 -31 20 8 12 31 -10 29 l-17 -1
5 13 5 13 -20 5 c-10 3 -21 1 -24 -4 -3 -4 -12 -6 -20 -3 -8 4 -12 11 -8 17
l6 10 -11 -7 c-14 -9 -24 8 -16 28 l6 17 14 -18 c7 -10 14 -13 14 -7 0 7 7 15
16 18 l15 6 -6 -9 c-3 -5 -1 -12 4 -15 5 -3 11 1 15 9 3 8 10 15 16 15 6 0 9
-4 6 -8 -3 -5 1 -9 9 -9 16 0 30 31 20 47 -9 14 -42 12 -48 -2 l-5 -13 -1 13
c-1 12 -20 14 -54 5z m33 -17 c0 -2 -7 -9 -15 -16 l-15 -12 0 16 c0 9 7 16 15
16 8 0 15 -2 15 -4z" />
    <path d="M860 501 c0 -12 5 -21 10 -21 6 0 10 6 10 14 0 8 -4 18 -10 21 l-10
6 0 -20z" />
    <path d="M162 485 l0 -30 5 18 c2 9 2 23 0 30 -3 6 -5 -1 -5 -18z" />
    <path d="M565 500 c7 -12 32 -13 39 -2 2 4 -7 9 -20 10 l-25 2 6 -10z" />
    <path d="M780 494 c0 -8 4 -13 9 -9 5 3 12 1 16 -5 10 -16 22 -12 28 10 l5 20
-29 0 -29 0 0 -16z" />
    <path d="M290 475 l0 -15 21 0 21 0 -12 15 c-7 8 -16 15 -21 15 -5 0 -9 -7 -9
-15z" />
    <path d="M470 477 c0 -9 5 -17 11 -19 l12 -4 -14 -37 -13 -37 11 -11 12 -12
18 7 18 7 -19 14 -19 14 10 13 c5 7 9 26 9 43 l-1 30 -17 3 -18 3 0 -14z" />
    <path d="M527 483 c-4 -3 -7 -19 -7 -34 l0 -28 16 6 16 6 -14 8 c-12 8 -4 13
15 10 4 0 7 8 7 19 0 19 -20 27 -33 13z" />
    <path d="M579 459 c-8 -4 -14 -13 -14 -19 0 -6 -6 -14 -13 -19 -8 -5 -14 -12
-14 -17 0 -5 -4 -8 -10 -6 -5 1 -7 -2 -3 -8 3 -5 1 -19 -5 -30 l-11 -20 12 0
c14 0 48 41 49 58 0 6 6 12 13 12 7 0 23 9 35 20 12 11 30 20 42 20 11 0 20 4
20 10 l0 9 -44 -1 c-24 0 -50 -4 -57 -9z" />
    <path d="M853 447 l6 -17 -9 0 c-6 0 -10 -7 -10 -16 l0 -16 15 12 c18 15 19
36 3 46 l-11 7 6 -16z" />
    <path d="M166 435 c4 -8 10 -12 15 -9 11 6 2 24 -11 24 -5 0 -7 -7 -4 -15z" />
    <path d="M800 429 l0 -21 13 4 c6 3 13 12 15 21 l3 17 -15 0 -16 0 0 -21z" />
    <path d="M183 393 c4 -3 10 -3 14 0 3 4 0 7 -7 7 -7 0 -10 -3 -7 -7z" />
    <path d="M204 365 c4 -29 69 -105 89 -105 7 0 -2 14 -20 29 -17 16 -29 31 -27
34 2 2 -2 10 -10 16 -8 7 -13 18 -10 25 l5 13 -14 0 c-8 0 -14 -6 -13 -12z" />
    <path d="M280 344 c-11 -27 -5 -48 11 -38 5 3 7 9 4 14 -3 5 0 12 5 15 12 8
90 -40 90 -55 0 -20 -23 -21 -44 -1 -25 23 -50 28 -43 9 2 -7 9 -13 15 -13 12
0 15 -16 5 -25 -4 -3 -3 1 2 9 l8 14 -12 -7 c-17 -11 -4 -25 19 -19 l20 5 -5
-13 c-8 -22 8 -37 45 -42 19 -2 27 -2 18 0 -10 2 -18 9 -18 15 0 5 -6 8 -13 5
l-13 -5 0 18 0 17 16 -1 15 -1 2 30 2 30 -44 33 c-25 17 -52 32 -60 32 -9 0
-20 -12 -25 -26z" />
    <path d="M674 341 c-17 -16 -37 -30 -44 -33 l-12 -4 7 -37 7 -37 13 0 13 0 -7
28 -7 27 35 28 35 28 26 -6 c14 -4 29 -10 33 -15 l9 -8 -11 -6 c-6 -4 -11 -2
-11 3 0 6 -5 11 -11 11 l-11 0 11 -13 c6 -8 8 -17 4 -20 -13 -14 14 -6 33 9
l19 15 -12 5 c-7 3 -13 12 -13 20 l0 14 -19 0 c-11 0 -23 5 -26 10 -10 17 -28
11 -61 -19z" />
    <path d="M697 281 l-29 -19 11 -6 c12 -8 61 21 61 35 0 14 -12 11 -43 -10z" />
    <path d="M714 256 c-10 -8 -15 -18 -11 -22 4 -4 17 2 30 14 24 25 12 30 -19 8z" />
    <path d="M625 204 l-40 -14 35 5 c19 3 39 10 44 15 12 12 12 12 -39 -6z" />
    <path d="M560 190 c0 -5 5 -10 10 -10 6 0 10 5 10 10 0 6 -4 10 -10 10 -5 0
-10 -4 -10 -10z" />
    <path d="M496 179 c4 -8 30 -6 38 2 3 3 -5 5 -19 5 -13 0 -22 -3 -19 -7z" />
  </g>
  <g transform="translate(0.000000,100.000000) scale(0.100000,-0.100000)" fill="#8a3271" stroke="none">
    <path d="M408 880 c-41 -12 -85 -41 -97 -64 l-10 -21 0 14 -1 13 -15 -12 c-17
-15 -20 -40 -4 -40 l11 0 -6 16 -6 15 11 -6 c5 -4 24 4 42 18 18 13 42 27 55
31 12 4 20 11 18 15 -3 4 47 7 109 7 62 0 112 -3 110 -6 -1 -3 12 -12 31 -21
l33 -16 12 8 12 7 -40 20 -39 21 -81 6 -80 7 -8 -11 -7 -12 -11 9 -12 9 -27
-7z m-48 -34 c0 -3 -5 -8 -12 -12 l-11 -7 7 11 c7 12 16 16 16 8z m325 -6 c3
-5 4 -10 1 -10 -3 0 -8 5 -11 10 -3 6 -4 10 -1 10 3 0 8 -4 11 -10z" />
    <path d="M715 812 c-6 -4 -11 -15 -13 -24 l-3 -18 14 0 c8 0 17 6 20 13 7 18
-6 38 -18 29z" />
    <path d="M740 813 c0 -6 6 -14 13 -16 l12 -5 -12 -1 c-7 -1 -13 -6 -13 -12 l0
-11 14 5 15 6 -5 -13 c-3 -7 2 -19 11 -26 8 -7 15 -19 15 -27 0 -7 6 -16 14
-19 8 -3 20 -28 27 -55 7 -27 16 -49 21 -49 12 0 10 24 -4 38 l-12 12 15 0 14
0 -13 9 c-8 4 -13 11 -13 15 1 3 0 8 0 11 -1 3 -2 11 -3 18 -1 6 -7 11 -13 10
l-11 -2 6 21 5 21 -16 -6 c-9 -3 -19 -1 -23 5 l-7 11 11 -7 12 -7 0 10 c0 15
-59 79 -60 64z" />
    <path d="M229 752 c-13 -15 -26 -39 -34 -62 -1 -3 -5 -13 -9 -22 -5 -10 -6
-24 -3 -32 3 -7 1 -18 -5 -24 l-10 -10 11 -6 c6 -4 11 -3 11 3 0 6 6 8 14 5
l15 -6 -4 39 c-2 21 1 43 7 50 6 7 8 19 5 26 l-5 13 26 2 c31 3 36 7 29 27 -8
20 -29 19 -48 -3z m21 -6 c0 -3 -5 -8 -12 -12 l-11 -7 7 11 c7 12 16 16 16 8z" />
    <path d="M703 735 c0 -8 6 -15 14 -15 7 0 13 7 13 15 0 8 -6 15 -13 15 -8 0
-14 -7 -14 -15z" />
    <path d="M790 620 c0 -5 7 -10 15 -10 8 0 15 5 15 10 0 6 -7 10 -15 10 -8 0
-15 -4 -15 -10z" />
    <path d="M848 535 c-1 -25 -2 -55 -2 -67 -1 -13 -3 -25 -6 -28 -3 -3 -11 -17
-17 -32 l-12 -27 9 -6 c10 -6 29 24 36 58 3 12 8 50 11 85 l6 62 -12 0 -11 0
-2 -45z" />
    <path d="M161 554 l1 -19 5 13 c3 7 2 16 -1 19 -3 4 -6 -2 -5 -13z" />
    <path d="M370 559 l0 -10 20 6 c25 8 26 -3 3 -22 l-18 -15 18 6 18 6 -4 -29
c-3 -17 -8 -34 -12 -40 l-6 -11 13 4 c7 3 26 7 42 11 l29 6 -11 -14 -12 -14
30 -22 30 -22 -10 -19 -11 -20 10 0 c15 0 27 30 30 73 l2 37 -11 0 c-5 0 -10
-9 -10 -20 l0 -20 -14 0 c-21 0 -28 17 -17 38 l10 18 -9 14 c-5 7 -16 15 -25
16 l-17 2 18 -19 c9 -10 12 -19 6 -19 -6 0 -18 -3 -28 -7 l-17 -6 7 11 7 12
-13 0 -13 0 14 9 14 9 -5 26 c-3 14 -2 23 3 21 4 -3 10 -1 14 5 l6 10 -40 0
-41 0 0 -11z" />
    <path d="M587 550 c3 -11 8 -18 12 -15 4 2 7 -5 7 -17 -1 -12 5 -23 13 -26
l14 -5 -5 20 -5 20 18 -4 18 -5 -7 -16 -6 -17 18 18 c9 9 24 17 31 17 l14 0
-5 -15 c-3 -8 -10 -13 -16 -12 -6 1 -12 -6 -13 -15 l-3 -18 19 0 20 0 -6 10
c-4 6 -2 17 4 24 6 7 9 21 5 30 l-6 16 -35 -5 -35 -4 14 17 13 17 -19 -15 -18
-14 -13 17 c-7 9 -17 17 -23 17 l-10 0 5 -20z" />
    <path d="M335 513 l0 -26 28 -4 c15 -2 27 -1 27 2 0 13 -33 55 -44 55 l-12 0
1 -27z m12 -20 c-4 -3 -7 0 -7 7 0 7 3 10 7 7 3 -4 3 -10 0 -14z m20 0 c-4 -3
-7 0 -7 7 0 7 3 10 7 7 3 -4 3 -10 0 -14z" />
    <path d="M567 523 c-10 -9 -9 -23 1 -23 5 0 9 7 9 15 0 17 -1 18 -10 8z" />
    <path d="M803 490 c-1 -11 4 -20 10 -20 7 0 13 9 13 20 0 11 -5 20 -11 20 -6
0 -11 -9 -12 -20z" />
    <path d="M180 487 c0 -7 9 -13 20 -14 l20 -2 0 15 0 14 -20 0 c-11 0 -20 -6
-20 -13z" />
    <path d="M575 469 c-4 -5 -10 -7 -15 -4 -4 3 -10 -4 -13 -15 -6 -24 1 -25 31
-4 l23 16 12 -11 13 -10 13 8 13 9 -11 6 c-6 4 -11 5 -11 2 0 -3 -11 -1 -25 4
l-24 9 -6 -10z" />
    <path d="M182 436 c8 -6 14 -19 12 -28 -1 -10 2 -18 7 -18 l10 0 -7 -12 -7
-13 12 11 11 10 -10 30 -11 31 -16 0 -16 0 15 -11z" />
    <path d="M552 421 l-14 -8 18 -7 c20 -8 32 0 18 14 l-9 9 -13 -8z" />
    <path d="M221 366 l-9 -11 12 -18 c7 -9 18 -17 24 -17 6 0 14 -5 18 -12 l7
-11 -11 7 c-22 13 -12 -5 16 -29 15 -14 33 -22 39 -20 7 2 20 -7 29 -20 9 -14
20 -23 24 -20 5 3 11 1 15 -5 7 -12 25 -4 25 12 l0 10 -16 -6 -16 -6 -5 20
c-5 18 -15 24 -35 21 -4 0 -12 8 -18 19 -6 11 -18 20 -26 20 l-16 0 6 25 6 25
-10 0 c-6 0 -9 -4 -5 -9 3 -5 1 -12 -5 -16 -5 -3 -10 -1 -10 5 0 6 -4 9 -9 5
-5 -3 -13 -1 -16 5 l-6 10 11 -2 c7 -2 14 4 15 13 l3 16 -14 0 c-8 0 -18 -5
-23 -11z m19 0 c0 -3 -5 -8 -12 -12 l-11 -7 7 11 c7 12 16 16 16 8z m74 -105
c-3 -3 -15 6 -27 18 l-22 24 27 -19 c14 -10 24 -21 22 -23z" />
    <path d="M723 353 c9 -9 19 -14 23 -11 10 10 -6 28 -24 28 l-16 0 17 -17z" />
    <path d="M805 360 c3 -5 8 -10 11 -10 3 0 2 5 -1 10 -3 6 -8 10 -11 10 -3 0
-2 -4 1 -10z" />
    <path d="M783 335 c4 -8 1 -17 -5 -21 l-11 -7 8 13 8 13 -11 -7 -11 -7 6 -16
6 -16 -17 6 -17 7 -25 -17 -25 -16 5 -13 5 -13 -16 6 -16 6 7 -11 7 -12 -15 6
-16 6 0 -10 c0 -22 18 -21 51 1 19 13 34 29 34 37 l0 15 17 -3 16 -2 21 26
c20 26 20 44 -1 44 -5 0 -8 -7 -5 -15z" />
  </g>
  <g transform="translate(0.000000,100.000000) scale(0.100000,-0.100000)" fill="#9d487b" stroke="none">
    <path d="M435 871 c-57 -14 -109 -45 -161 -97 l-52 -52 -21 -58 c-12 -31 -20
-62 -18 -68 3 -6 8 1 12 16 4 16 11 26 15 23 5 -3 8 7 7 22 l-2 28 13 -2 c6
-2 13 2 13 7 1 6 2 16 3 23 1 6 7 11 13 10 6 -1 16 11 22 27 5 17 13 30 16 30
3 0 3 -4 0 -10 -7 -11 6 -13 29 -4 9 3 16 13 16 21 0 8 -4 11 -10 8 -5 -3 -10
-1 -10 4 0 6 9 11 19 11 11 0 23 5 26 10 4 6 11 7 17 4 l11 -7 -6 9 c-3 5 6
15 20 21 l25 12 -5 -14 -6 -13 42 3 c23 1 49 3 57 4 l14 1 -12 12 -13 13 -9
-15 -10 -15 0 13 c0 6 -3 11 -7 11 -20 -3 -26 2 -13 11 17 11 8 11 -35 1z" />
    <path d="M550 865 l0 -17 19 5 20 5 -5 -13 -5 -13 33 -5 c18 -3 44 -8 57 -12
l24 -8 -5 14 c-5 17 -60 44 -105 54 l-33 7 0 -17z m75 -15 c3 -5 1 -10 -4 -10
-6 0 -11 5 -11 10 0 6 2 10 4 10 3 0 8 -4 11 -10z" />
    <path d="M610 795 c0 -8 7 -15 15 -15 8 0 15 7 15 15 0 8 -7 15 -15 15 -8 0
-15 -7 -15 -15z" />
    <path d="M717 793 c8 -25 34 -53 47 -53 6 0 22 -17 35 -38 13 -20 17 -31 10
-24 -7 6 -16 12 -19 12 -6 0 -6 -42 -1 -79 1 -3 6 0 13 7 7 7 18 12 25 12 l14
0 -9 -16 -9 -17 15 -18 c9 -10 19 -16 24 -13 l9 6 -9 11 c-5 7 -15 33 -22 59
l-12 47 -47 57 c-25 32 -52 59 -59 62 l-12 4 7 -19z m34 -30 l14 -18 -17 14
c-10 7 -18 15 -18 17 0 8 8 3 21 -13z m76 -109 c-3 -3 -12 -4 -19 -1 l-13 5
19 1 c11 1 17 -2 13 -5z" />
    <path d="M713 733 c-18 -7 -16 -23 2 -23 8 0 15 7 15 15 0 8 -1 15 -2 14 -2 0
-9 -3 -15 -6z" />
    <path d="M200 600 c0 -5 5 -10 10 -10 6 0 10 5 10 10 0 6 -4 10 -10 10 -5 0
-10 -4 -10 -10z" />
    <path d="M230 575 c0 -8 7 -15 15 -15 8 0 15 7 15 15 0 8 -7 15 -15 15 -8 0
-15 -7 -15 -15z" />
    <path d="M360 560 c0 -5 4 -10 9 -10 6 0 13 5 16 10 l6 10 -15 0 c-9 0 -16 -4
-16 -10z" />
    <path d="M600 551 c5 -11 10 -31 10 -45 l0 -26 15 0 15 0 -12 20 -13 21 15 9
15 10 -19 0 -18 0 6 15 5 15 -15 0 -15 0 11 -19z" />
    <path d="M550 544 l0 -15 10 6 c6 3 10 10 10 16 0 5 -4 9 -10 9 -5 0 -10 -7
-10 -16z" />
    <path d="M340 541 c0 -5 7 -11 15 -15 8 -3 15 -1 15 3 0 5 -7 11 -15 15 -8 3
-15 1 -15 -3z" />
    <path d="M408 542 l-18 -7 20 -13 20 -12 0 20 c0 11 -1 20 -2 19 -2 0 -11 -4
-20 -7z" />
    <path d="M664 528 c1 -7 8 -22 15 -33 l13 -20 -6 18 c-3 10 -6 25 -6 33 0 8
-4 14 -9 14 -5 0 -8 -6 -7 -12z" />
    <path d="M834 518 l-8 -12 12 -4 c6 -2 10 -9 8 -15 -1 -7 -1 -9 1 -4 3 4 10 4
16 0 l10 -6 -6 17 c-4 10 -7 22 -7 27 0 13 -17 11 -26 -3z" />
    <path d="M350 500 c0 -7 3 -10 7 -7 3 4 3 10 0 14 -4 3 -7 0 -7 -7z" />
    <path d="M205 491 c3 -5 1 -12 -5 -16 -5 -3 -10 -1 -10 6 0 7 -3 10 -6 6 -11
-11 27 -105 60 -149 40 -52 112 -111 129 -105 l12 4 -30 16 c-27 14 -71 55
-107 97 -7 8 -15 31 -16 50 -2 19 -8 37 -13 38 -12 5 -12 32 1 32 6 0 10 -4
10 -10 0 -5 7 -10 15 -10 8 0 15 7 15 15 0 8 -7 15 -15 15 -8 0 -15 5 -15 10
0 6 -7 10 -16 10 -8 0 -13 -4 -9 -9z m12 -88 c-4 -3 -7 0 -7 7 0 7 3 10 7 7 3
-4 3 -10 0 -14z" />
    <path d="M400 486 c0 -8 5 -18 10 -21 6 -3 10 1 10 9 0 8 -4 18 -10 21 -5 3
-10 -1 -10 -9z" />
    <path d="M464 478 l-7 -11 11 7 c7 4 12 9 12 12 0 8 -9 4 -16 -8z" />
    <path d="M548 473 c5 -10 7 -25 4 -33 l-5 -15 17 15 18 14 -11 4 c-6 2 -11 10
-11 18 0 8 -5 14 -10 14 l-11 0 9 -17z" />
    <path d="M795 480 l-6 -10 16 0 16 0 -6 10 c-3 6 -8 10 -10 10 -2 0 -7 -4 -10
-10z" />
    <path d="M458 435 l-6 -27 16 16 16 16 -11 11 -10 10 -5 -26z" />
    <path d="M504 411 c0 -28 4 -47 8 -43 14 15 13 92 -1 92 -5 0 -8 -22 -7 -49z" />
    <path d="M620 450 c0 -5 5 -10 10 -10 6 0 10 5 10 10 0 6 -4 10 -10 10 -5 0
-10 -4 -10 -10z" />
    <path d="M815 440 c7 -12 -32 -90 -46 -90 -6 0 -7 -5 -4 -11 8 -12 -27 -46
-79 -79 -43 -26 -42 -39 1 -17 35 19 103 90 132 140 22 37 23 67 1 67 -6 0 -8
-4 -5 -10z" />
    <path d="M270 350 c0 -5 4 -10 9 -10 6 0 13 5 16 10 l6 10 -15 0 c-9 0 -16 -4
-16 -10z" />
    <path d="M400 220 c0 -5 7 -10 15 -10 8 0 15 5 15 10 0 6 -7 10 -15 10 -8 0
-15 -4 -15 -10z" />
    <path d="M450 204 c0 -9 5 -14 12 -12 18 6 21 28 4 28 -9 0 -16 -7 -16 -16z" />
    <path d="M552 208 c6 -18 25 -20 31 -3 l6 15 -20 0 -21 0 4 -12z" />
  </g>
  <g transform="translate(0.000000,100.000000) scale(0.100000,-0.100000)" fill="#e8aa45" stroke="none">
    <path d="M418 785 c-53 -19 -101 -59 -123 -100 -22 -40 -12 -60 12 -24 9 13
34 41 56 61 l39 37 49 12 c51 13 66 30 27 28 -13 0 -40 -7 -60 -14z" />
    <path d="M520 790 c0 -5 6 -10 13 -10 7 0 36 -7 64 -15 l51 -15 37 -38 c20
-20 41 -49 47 -64 5 -16 14 -28 19 -28 14 0 11 37 -4 52 -7 7 -16 20 -19 29
-9 24 -71 69 -115 85 -45 16 -93 18 -93 4z" />
    <path d="M526 758 c-9 -5 -16 -14 -16 -20 l0 -10 20 5 c11 3 20 1 20 -4 0 -5
-7 -9 -15 -9 l-15 0 0 -20 c0 -11 7 -23 16 -27 l16 -6 10 16 c15 28 24 19 20
-18 l-4 -35 16 0 16 0 0 19 c0 30 11 51 26 51 28 0 13 16 -40 41 l-53 26 -17
-9z" />
    <path d="M402 720 c-23 -23 -42 -45 -42 -50 0 -5 12 -13 26 -16 l26 -7 9 14 9
14 0 -22 0 -23 14 0 c23 0 28 -17 14 -41 l-13 -22 13 -4 c6 -3 12 -16 12 -30
l0 -24 17 3 c23 4 28 32 8 51 -8 9 -15 20 -15 26 l0 11 25 -6 25 -6 0 20 c0
11 -7 22 -15 26 -8 3 -15 12 -15 21 l0 15 -22 0 -21 0 22 19 22 20 -16 25
c-10 14 -23 26 -29 26 -7 0 -31 -18 -54 -40z m68 0 c0 -5 -2 -10 -4 -10 -3 0
-8 5 -11 10 -3 6 -1 10 4 10 6 0 11 -4 11 -10z" />
    <path d="M256 599 c-8 -42 -8 -49 3 -49 5 0 12 8 15 18 2 9 7 27 11 40 l6 22
-14 0 -14 0 -7 -31z" />
    <path d="M546 604 c-11 -28 -6 -44 12 -44 l19 0 0 30 0 30 -13 0 c-6 0 -15 -7
-18 -16z" />
    <path d="M757 555 l6 -45 -12 0 c-6 0 -15 10 -20 23 -5 13 -24 31 -43 40 l-33
16 -4 -11 c-2 -7 2 -14 10 -17 13 -4 30 -21 67 -70 l19 -24 16 6 17 6 0 61 0
60 -15 0 -15 0 7 -45z" />
    <path d="M355 578 c-21 -12 -51 -43 -66 -68 l-9 -15 -9 15 c-13 20 -24 6 -16
-19 l6 -21 18 0 18 0 19 40 19 39 28 6 27 7 0 14 c0 17 -8 17 -35 2z" />
    <path d="M590 580 c0 -5 9 -10 20 -10 11 0 20 5 20 10 0 6 -9 10 -20 10 -11 0
-20 -4 -20 -10z" />
    <path d="M310 460 c0 -5 7 -10 15 -10 8 0 15 5 15 10 0 6 -7 10 -15 10 -8 0
-15 -4 -15 -10z" />
    <path d="M645 455 c-41 -16 -104 -71 -105 -92 0 -7 -4 -13 -10 -13 -5 0 -10
-7 -10 -15 0 -21 19 -19 27 3 6 16 14 24 69 72 29 24 88 45 108 37 l17 -7 -27
-39 c-29 -44 -96 -93 -134 -98 -53 -6 -90 -16 -90 -23 0 -4 -9 -10 -20 -13
-24 -6 -27 -37 -4 -37 9 0 18 9 21 20 l5 20 19 0 19 0 0 -20 0 -20 15 0 c9 0
18 7 22 16 l6 16 -14 9 -14 9 23 0 c40 0 92 28 137 73 40 40 65 90 52 103 -2
3 -20 7 -38 9 l-34 5 -40 -15z" />
    <path d="M270 441 c0 -11 15 -39 33 -63 l33 -43 49 -27 c52 -29 85 -35 85 -18
0 6 -14 13 -32 17 l-32 6 -53 52 -53 51 0 22 0 22 -15 0 -15 0 0 -19z" />
    <path d="M350 450 c0 -5 17 -17 38 -26 20 -10 40 -19 45 -21 4 -2 7 3 7 11 0
16 -48 46 -75 46 -8 0 -15 -4 -15 -10z" />
    <path d="M470 361 c13 -25 33 -28 28 -4 -2 10 -11 19 -21 21 l-19 4 12 -21z" />
  </g>
  <g transform="translate(0.000000,100.000000) scale(0.100000,-0.100000)" fill="#a8567c" stroke="none">
    <path d="M471 876 c2 -2 23 -6 47 -9 l42 -5 0 9 c0 5 -21 9 -47 9 -25 0 -44
-2 -42 -4z" />
    <path d="M440 860 c14 -4 19 -8 13 -9 l-13 -1 0 -25 0 -25 31 0 30 0 -6 10
c-3 6 -1 10 4 10 6 0 11 -4 11 -10 0 -5 7 -10 15 -10 16 0 19 9 9 34 -7 17
-34 22 -34 6 0 -19 -28 -10 -33 10 l-5 20 -24 -1 -23 -1 25 -8z" />
    <path d="M576 861 l-6 -9 20 5 c23 6 26 13 6 13 -8 0 -17 -4 -20 -9z" />
    <path d="M393 853 c4 -3 10 -3 14 0 3 4 0 7 -7 7 -7 0 -10 -3 -7 -7z" />
    <path d="M360 830 c0 -7 3 -10 7 -7 3 4 3 10 0 14 -4 3 -7 0 -7 -7z" />
    <path d="M410 825 l-12 -15 16 0 c9 0 16 7 16 15 0 8 -2 15 -4 15 -2 0 -9 -7
-16 -15z" />
    <path d="M594 824 c3 -9 6 -22 6 -30 0 -8 6 -14 14 -14 l13 0 -2 23 c-1 12 -3
25 -4 30 0 4 -8 7 -17 7 l-16 0 6 -16z" />
    <path d="M666 831 c-8 -13 20 -33 41 -29 l17 3 -26 17 -27 18 -5 -9z" />
    <path d="M316 812 c-2 -4 4 -9 15 -9 10 -1 19 2 19 8 0 11 -27 12 -34 1z" />
    <path d="M724 788 l-7 -11 11 7 c12 7 16 16 8 16 -3 0 -8 -5 -12 -12z" />
    <path d="M277 783 c-4 -3 -7 -15 -7 -25 l0 -19 -12 7 -13 8 14 -17 c15 -19 41
-23 41 -6 0 6 7 17 15 26 8 8 13 19 10 24 -7 10 -39 12 -48 2z m33 -7 c0 -2
-7 -6 -15 -10 -8 -3 -15 -1 -15 4 0 6 7 10 15 10 8 0 15 -2 15 -4z" />
    <path d="M360 775 c0 -8 7 -15 15 -15 8 0 15 7 15 15 0 8 -7 15 -15 15 -8 0
-15 -7 -15 -15z" />
    <path d="M650 775 c0 -8 7 -15 15 -15 8 0 15 7 15 15 0 8 -7 15 -15 15 -8 0
-15 -7 -15 -15z" />
    <path d="M690 750 l0 -19 15 5 c8 4 15 12 15 20 0 8 -7 14 -15 14 l-15 0 0
-20z" />
    <path d="M728 738 c-20 -24 -14 -44 14 -51 11 -3 18 -9 15 -14 -3 -4 0 -21 6
-36 l12 -28 19 14 18 13 -17 17 -16 17 11 0 c6 0 8 5 5 10 -4 6 -13 9 -22 8
l-15 -3 -9 24 -9 23 26 -6 26 -7 -4 12 c-2 7 -13 15 -24 19 l-20 8 -16 -20z" />
    <path d="M800 700 c0 -7 3 -10 7 -7 3 4 3 10 0 14 -4 3 -7 0 -7 -7z" />
    <path d="M230 691 c0 -6 5 -13 10 -16 l10 -6 0 15 c0 9 -4 16 -10 16 -5 0 -10
-4 -10 -9z" />
    <path d="M814 668 l-7 -11 11 7 c12 7 16 16 8 16 -3 0 -8 -5 -12 -12z" />
    <path d="M193 650 l-13 -19 10 -6 c6 -3 10 1 10 10 l0 16 10 -6 10 -6 -6 15
c-3 9 -7 16 -8 16 -1 0 -7 -9 -13 -20z" />
    <path d="M236 638 c-3 -13 -6 -33 -6 -45 l0 -23 13 3 c13 2 26 53 19 75 -6 19
-19 14 -26 -10z" />
    <path d="M826 643 l-7 -18 12 12 c7 7 10 15 7 18 -3 3 -9 -2 -12 -12z" />
    <path d="M836 603 c-3 -11 -18 -26 -31 -33 -29 -16 -33 -37 -7 -43 l17 -5 -17
-1 c-10 0 -18 -7 -18 -15 l0 -13 27 5 c35 7 53 25 53 53 l0 21 -17 -13 -18
-14 18 22 19 22 -10 17 -10 17 -6 -20z" />
    <path d="M180 538 l1 -63 13 18 c14 18 36 23 36 7 0 -5 -6 -13 -14 -17 -7 -4
-17 -18 -20 -30 l-7 -23 10 0 c6 0 11 7 11 15 0 8 5 15 10 15 6 0 10 -4 10
-10 0 -5 7 -10 15 -10 l15 0 0 51 0 51 -20 5 c-11 3 -20 10 -20 17 0 6 -9 17
-20 24 l-20 12 0 -62z" />
    <path d="M413 533 c4 -3 10 -3 14 0 3 4 0 7 -7 7 -7 0 -10 -3 -7 -7z" />
    <path d="M550 516 c0 -9 5 -16 10 -16 6 0 10 4 10 9 0 6 -4 13 -10 16 l-10 6
0 -15z" />
    <path d="M836 471 c-4 -7 -5 -15 -2 -18 9 -9 19 4 14 18 l-4 13 -8 -13z" />
    <path d="M505 440 c3 -44 12 -47 17 -6 l4 36 -12 0 -12 0 3 -30z" />
    <path d="M460 440 c0 -7 3 -10 7 -7 3 4 3 10 0 14 -4 3 -7 0 -7 -7z" />
    <path d="M791 418 c2 -13 -3 -33 -9 -46 -7 -12 -10 -27 -6 -34 l7 -11 19 37
19 37 -6 20 c-9 26 -27 24 -24 -3z" />
    <path d="M218 405 l-5 -24 10 6 10 6 -7 -18 -6 -18 14 12 14 12 6 -10 c3 -5 1
-11 -6 -13 l-12 -4 8 -12 7 -12 32 17 32 17 -17 4 c-10 2 -18 7 -18 12 0 5 -8
11 -17 13 l-18 5 18 1 c9 0 17 8 17 16 0 18 -26 20 -33 3 l-5 -13 -1 13 c-2
22 -19 13 -23 -13z" />
    <path d="M740 395 c0 -8 7 -15 15 -15 8 0 15 7 15 15 0 8 -7 15 -15 15 -8 0
-15 -7 -15 -15z" />
    <path d="M720 366 c0 -2 7 -9 15 -16 l15 -12 0 16 c0 9 -7 16 -15 16 -8 0 -15
-2 -15 -4z" />
    <path d="M275 300 c3 -5 8 -10 11 -10 3 0 2 5 -1 10 -3 6 -8 10 -11 10 -3 0
-2 -4 1 -10z" />
    <path d="M695 260 l-6 -10 15 6 c18 7 21 14 7 14 -6 0 -13 -4 -16 -10z" />
    <path d="M377 246 l-18 -14 10 -7 11 -6 0 13 0 13 9 -14 c10 -15 17 -17 88
-27 52 -7 178 13 193 31 l10 13 -62 -14 c-76 -16 -118 -18 -118 -4 0 6 -7 10
-15 10 -8 0 -15 -4 -15 -8 0 -4 -8 -8 -19 -8 l-19 0 5 13 c3 7 1 13 -5 13 -6
0 -16 2 -24 5 -7 2 -21 -2 -31 -9z" />
  </g>
  <g transform="translate(0.000000,100.000000) scale(0.100000,-0.100000)" fill="#f0b730" stroke="none">
    <path d="M485 790 c3 -5 15 -10 25 -10 10 0 22 5 25 10 l6 10 -31 0 -31 0 6
-10z" />
    <path d="M412 780 c-13 -6 -38 -22 -57 -36 l-35 -26 7 -11 6 -10 17 21 c10 12
20 19 23 16 3 -3 11 3 18 14 l13 20 13 -5 c7 -3 13 0 13 6 l0 10 15 -5 15 -6
0 11 c0 13 -16 13 -48 1z m-22 -24 c0 -3 -5 -8 -12 -12 l-11 -7 7 11 c7 12 16
16 16 8z m-40 -30 c0 -3 -5 -8 -12 -12 l-11 -7 7 11 c7 12 16 16 16 8z" />
    <path d="M565 780 c-3 -5 1 -10 9 -10 8 0 18 5 21 10 3 6 -1 10 -9 10 -8 0
-18 -4 -21 -10z" />
    <path d="M604 768 l-7 -11 16 6 17 6 0 -10 c0 -6 5 -7 11 -3 l11 7 -13 8 c-19
12 -27 11 -35 -3z" />
    <path d="M506 738 c-14 -18 -25 -28 -24 -23 2 18 -14 45 -27 45 -17 0 -95 -76
-95 -92 l0 -13 10 15 10 15 0 -18 c0 -9 3 -16 8 -15 4 0 21 -5 37 -13 l30 -14
1 -17 2 -18 -45 0 -44 0 6 -10 c3 -5 23 -10 45 -10 l38 0 10 29 c6 16 7 32 4
36 -4 3 1 3 11 -1 l17 -6 0 14 c0 16 -29 20 -46 6 l-12 -9 -16 16 c-8 9 -19
17 -23 18 -4 1 -9 11 -10 21 -2 11 0 17 3 13 4 -4 12 1 19 10 7 9 22 18 34 20
l21 3 0 -15 c0 -9 7 -18 15 -21 19 -8 48 15 41 31 l-4 12 26 -2 27 -1 0 -15
c0 -7 -6 -13 -13 -11 -8 1 -11 -2 -8 -7 3 -5 -2 -12 -11 -15 l-16 -7 10 -10
11 -11 23 8 c13 4 28 7 34 5 5 -1 1 6 -8 17 l-18 20 9 6 c6 3 20 -2 33 -12
l22 -19 -7 -11 c-4 -7 -14 -12 -22 -12 -8 0 -14 -6 -14 -14 0 -8 -12 -23 -27
-34 l-27 -20 13 -16 13 -16 44 0 44 0 0 10 0 10 -44 -4 -45 -3 -5 13 c-3 8 -2
13 2 13 20 -3 31 3 37 21 3 11 13 20 20 20 8 0 19 9 25 19 11 21 3 54 -11 45
-5 -3 -9 -1 -9 4 0 10 -58 36 -72 33 -5 0 -8 4 -8 9 0 19 -17 10 -44 -22z" />
    <path d="M660 739 c0 -5 5 -7 10 -4 6 3 10 8 10 11 0 2 -4 4 -10 4 -5 0 -10
-5 -10 -11z" />
    <path d="M686 722 c-3 -6 7 -21 22 -34 l28 -24 -4 -14 -4 -15 12 11 12 12 -10
19 c-6 10 -19 26 -30 36 l-20 18 -6 -9z m25 -19 l14 -18 -17 14 c-10 7 -18 15
-18 17 0 8 8 3 21 -13z" />
    <path d="M290 670 l-22 -31 6 -16 c8 -19 13 -15 18 12 1 11 12 27 22 36 l19
16 -11 7 -10 6 -22 -30z m30 16 c0 -3 -5 -8 -12 -12 l-11 -7 7 11 c7 12 16 16
16 8z" />
    <path d="M748 633 c-2 -4 -1 -21 2 -38 l7 -30 8 28 8 28 -11 11 c-5 5 -12 6
-14 1z" />
    <path d="M260 596 c0 -8 5 -18 10 -21 6 -3 10 1 10 9 0 8 -4 18 -10 21 -5 3
-10 -1 -10 -9z" />
    <path d="M350 570 c0 -6 -4 -9 -9 -6 -5 3 -14 -1 -20 -8 -19 -22 2 -26 27 -6
l22 19 -10 6 c-5 3 -10 1 -10 -5z" />
    <path d="M676 572 l-7 -11 19 -10 c11 -6 23 -7 27 -3 5 4 6 0 2 -10 -7 -19 14
-50 36 -54 l16 -2 -6 14 c-2 7 -13 16 -23 19 -10 3 -17 11 -16 18 0 7 -2 12
-6 12 -4 0 -13 9 -21 19 l-14 19 -7 -11z m69 -72 c3 -5 4 -10 1 -10 -3 0 -8 5
-11 10 -3 6 -4 10 -1 10 3 0 8 -4 11 -10z" />
    <path d="M250 538 c0 -18 4 -39 9 -47 l9 -13 6 11 c4 6 3 11 -2 11 -5 0 -7 13
-4 29 l4 29 -11 6 -11 7 0 -33z" />
    <path d="M295 510 c3 -5 8 -10 11 -10 2 0 4 5 4 10 0 6 -5 10 -11 10 -5 0 -7
-4 -4 -10z" />
    <path d="M284 440 c0 -11 1 -20 3 -20 1 0 7 9 13 20 l11 20 -14 0 c-7 0 -13
-9 -13 -20z" />
    <path d="M330 455 c0 -7 81 -45 89 -42 3 2 18 -10 33 -25 15 -15 24 -28 21
-28 -3 0 2 -9 12 -20 l19 -21 20 3 c22 3 36 38 16 38 l-12 0 6 -15 6 -15 -20
10 c-10 5 -28 23 -39 39 -12 16 -37 39 -55 50 l-34 21 -18 -7 -17 -6 7 11 7
12 -20 0 c-12 0 -21 -2 -21 -5z" />
    <path d="M646 451 l-20 -8 14 -8 14 -9 4 12 c2 7 8 10 12 7 5 -3 11 -1 15 5 7
12 -11 12 -39 1z" />
    <path d="M725 450 c4 -6 11 -8 16 -5 14 9 11 15 -7 15 l-15 0 6 -10z" />
    <path d="M576 404 c-14 -14 -24 -29 -21 -35 4 -5 8 -9 11 -9 3 0 2 5 -1 10 -3
6 -1 10 5 10 7 0 23 9 36 19 l24 19 -14 5 c-7 3 -25 -6 -40 -19z m34 12 c0 -2
-8 -10 -17 -17 l-18 -14 14 18 c13 16 21 21 21 13z" />
    <path d="M725 421 c-6 -11 9 -23 19 -14 9 9 7 23 -3 23 -6 0 -12 -4 -16 -9z" />
    <path d="M295 410 l-7 -11 45 -44 c43 -44 67 -56 67 -34 0 5 -3 9 -7 7 -10 -4
-92 80 -85 87 3 3 3 5 -1 5 -3 0 -9 -5 -12 -10z m51 -52 l29 -33 -32 29 c-31
28 -38 36 -30 36 2 0 16 -15 33 -32z" />
    <path d="M709 393 c-1 -4 -1 -11 0 -15 0 -5 -3 -8 -9 -8 -5 0 -10 -4 -10 -10
0 -16 14 -11 27 10 l13 19 -10 6 c-6 3 -11 3 -11 -2z" />
    <path d="M654 335 c-4 -8 -10 -12 -15 -9 -5 3 -12 -2 -15 -10 -3 -9 -10 -14
-14 -11 -5 3 -11 1 -15 -5 -10 -17 16 -11 51 11 19 11 32 25 28 30 -8 13 -14
11 -20 -6z" />
    <path d="M425 300 c-3 -5 -2 -10 4 -10 5 0 13 5 16 10 3 6 2 10 -4 10 -5 0
-13 -4 -16 -10z" />
    <path d="M553 303 c-18 -7 -16 -23 3 -23 8 0 13 4 10 9 -4 5 0 12 6 14 7 3 9
5 3 5 -5 0 -16 -2 -22 -5z" />
    <path d="M455 290 l-6 -10 26 0 26 0 -6 10 c-3 6 -12 10 -20 10 -8 0 -17 -4
-20 -10z" />
  </g>
  <g transform="translate(0.000000,100.000000) scale(0.100000,-0.100000)" fill="#8d3c5c" stroke="none">
    <path d="M535 859 c-4 -6 -13 -8 -21 -5 -8 3 -14 1 -14 -4 0 -6 -5 -10 -11
-10 -5 0 -8 4 -5 8 3 5 -1 9 -9 9 -8 0 -15 -4 -15 -9 0 -5 -5 -6 -11 -3 l-10
7 -6 -21 c-3 -12 -9 -21 -14 -21 -5 0 -9 -7 -9 -16 l0 -16 38 6 c20 4 45 10
55 12 l19 6 -5 19 -5 19 23 0 c13 0 30 -3 39 -6 l16 -6 0 -24 0 -24 30 0 30 0
0 -14 c0 -13 20 -26 41 -26 5 0 9 9 9 21 l0 20 -22 -3 -23 -3 -3 18 -4 19 22
-12 22 -12 9 9 10 10 -40 17 c-21 10 -45 16 -53 14 -7 -3 -24 3 -37 13 -27 22
-37 23 -46 8z m-45 -39 l15 -10 -28 0 -28 0 6 10 c8 12 16 12 35 0z m135 -20
c3 -5 1 -10 -4 -10 -6 0 -11 5 -11 10 0 6 2 10 4 10 3 0 8 -4 11 -10z" />
    <path d="M347 819 c-9 -6 -17 -17 -17 -26 l0 -15 -16 6 -17 6 13 -15 c16 -19
40 -19 40 0 0 8 7 15 15 15 15 0 21 25 7 34 -4 2 -15 0 -25 -5z" />
    <path d="M717 783 c-10 -9 -9 -41 2 -47 11 -7 21 28 12 43 -4 6 -10 8 -14 4z" />
    <path d="M290 760 c0 -6 -4 -9 -9 -5 -5 3 -13 -5 -17 -17 -4 -13 -14 -28 -23
-35 l-16 -12 23 -1 22 0 0 15 c0 8 5 15 10 15 6 0 10 -4 10 -10 0 -5 7 -10 15
-10 8 0 15 7 15 15 l0 15 -22 0 -23 1 18 13 18 14 -10 7 c-6 3 -11 1 -11 -5z" />
    <path d="M756 741 c-4 -5 -3 -16 0 -25 l6 -16 -11 0 c-6 0 -11 -11 -11 -25 l0
-25 15 0 c17 0 20 17 4 22 l-10 3 20 24 21 24 -11 14 c-13 15 -16 16 -23 4z" />
    <path d="M790 672 c0 -5 7 -9 15 -9 8 0 12 4 9 9 -3 4 -9 8 -15 8 -5 0 -9 -4
-9 -8z" />
    <path d="M226 657 l-19 -14 5 -14 c3 -8 -1 -21 -9 -31 -15 -17 -25 -79 -14
-95 3 -5 14 -12 24 -16 l17 -6 0 11 c0 6 -8 17 -17 24 l-18 14 11 7 c6 5 15
28 19 52 l7 45 22 18 21 17 -16 1 c-8 0 -23 -6 -33 -13z m-19 -94 c-4 -3 -10
-3 -14 0 -3 4 0 7 7 7 7 0 10 -3 7 -7z" />
    <path d="M805 640 l-6 -10 16 0 16 0 -6 10 c-3 6 -8 10 -10 10 -2 0 -7 -4 -10
-10z" />
    <path d="M764 616 c3 -12 6 -24 6 -28 0 -12 30 -9 30 2 0 6 -5 10 -11 10 l-11
0 4 18 5 19 -14 0 -14 0 5 -21z" />
    <path d="M837 585 l-18 -13 10 -6 10 -7 -9 -24 -9 -24 15 6 15 6 -3 21 c-1 11
1 27 6 34 12 19 4 22 -17 7z" />
    <path d="M230 563 c0 -7 7 -13 15 -13 8 0 15 6 15 13 0 8 -7 14 -15 14 -8 0
-15 -6 -15 -14z" />
    <path d="M410 570 c0 -5 9 -10 20 -10 11 0 20 5 20 10 0 6 -9 10 -20 10 -11 0
-20 -4 -20 -10z" />
    <path d="M580 570 c0 -5 7 -10 15 -10 8 0 15 5 15 10 0 6 -7 10 -15 10 -8 0
-15 -4 -15 -10z" />
    <path d="M645 560 c3 -5 13 -10 21 -10 8 0 14 5 14 10 0 6 -9 10 -21 10 l-20
0 6 -10z" />
    <path d="M310 525 c-12 -19 -20 -41 -17 -48 l4 -12 17 33 c9 17 20 32 25 32 5
0 11 7 15 15 l5 15 -13 0 c-8 0 -24 -16 -36 -35z" />
    <path d="M690 541 c0 -6 5 -13 10 -16 l10 -6 0 15 c0 9 -4 16 -10 16 -5 0 -10
-4 -10 -9z" />
    <path d="M460 516 c0 -7 11 -25 24 -39 l25 -26 23 19 23 19 -17 1 c-10 0 -18
-4 -18 -10 0 -5 -9 -2 -20 7 -11 10 -20 23 -20 30 0 7 -4 13 -10 13 -5 0 -10
-6 -10 -14z" />
    <path d="M720 490 c0 -5 5 -10 10 -10 6 0 10 5 10 10 0 6 -4 10 -10 10 -5 0
-10 -4 -10 -10z" />
    <path d="M766 478 c-9 -34 -8 -38 9 -38 l15 0 0 -26 0 -26 12 4 c6 2 14 10 16
18 l5 13 -12 -7 c-21 -13 -11 12 11 26 l21 14 -7 12 c-10 17 -26 15 -26 -3 0
-8 -5 -15 -10 -15 -6 0 -10 6 -9 13 5 40 -15 52 -25 15z" />
    <path d="M250 462 c0 -16 3 -32 7 -36 4 -4 9 -18 10 -32 l4 -24 -16 -6 c-8 -3
-12 -10 -9 -16 l6 -9 17 15 17 15 20 -12 c52 -30 94 -63 94 -74 0 -7 5 -13 10
-13 6 0 10 5 10 11 0 12 -25 39 -37 39 -4 0 -24 15 -44 33 l-37 33 -18 52
c-10 29 -22 52 -26 52 -5 0 -8 -13 -8 -28z" />
    <path d="M197 474 c-7 -8 3 -37 17 -46 6 -4 11 -13 12 -20 2 -30 5 -35 17 -35
l14 0 -5 24 c-2 13 -8 23 -13 23 -5 0 -9 8 -9 19 0 20 -23 45 -33 35z" />
    <path d="M665 460 l-6 -10 15 0 c9 0 16 5 16 10 0 6 -4 10 -9 10 -6 0 -13 -4
-16 -10z" />
    <path d="M400 440 c0 -5 7 -10 16 -10 l15 0 -6 10 c-3 6 -10 10 -16 10 -5 0
-9 -4 -9 -10z" />
    <path d="M580 420 c-14 -10 -21 -22 -17 -26 4 -4 17 2 29 14 28 28 20 36 -12
12z" />
    <path d="M440 411 c0 -11 31 -24 39 -16 3 3 -1 10 -9 15 -19 12 -30 12 -30 1z" />
    <path d="M740 407 c0 -8 7 -14 15 -14 8 0 15 6 15 14 0 7 -7 13 -15 13 -8 0
-15 -6 -15 -13z" />
    <path d="M710 370 c0 -5 7 -10 15 -10 8 0 15 -4 15 -10 0 -18 39 -10 50 10
l11 20 -20 0 c-11 0 -22 -6 -25 -12 l-6 -13 -6 13 c-7 14 -34 16 -34 2z" />
    <path d="M490 355 c0 -16 27 -32 37 -22 5 6 -21 37 -31 37 -3 0 -6 -7 -6 -15z" />
    <path d="M642 319 l-33 -22 3 -15 c2 -8 9 -17 17 -20 l13 -4 -6 20 -7 20 20 7
c21 6 49 35 35 35 -5 0 -24 -10 -42 -21z" />
    <path d="M472 268 c6 -18 28 -21 28 -4 0 9 -7 16 -16 16 -9 0 -14 -5 -12 -12z" />
    <path d="M510 265 c0 -8 7 -15 15 -15 8 0 15 7 15 15 0 8 -7 15 -15 15 -8 0
-15 -7 -15 -15z" />
    <path d="M384 248 l-7 -11 11 7 c12 7 16 16 8 16 -3 0 -8 -5 -12 -12z" />
    <path d="M630 241 c0 -5 7 -12 16 -15 l17 -6 -13 15 c-14 17 -20 19 -20 6z" />
    <path d="M404 228 c-10 -16 2 -18 21 -5 l18 14 -17 0 c-9 0 -19 -4 -22 -9z" />
    <path d="M510 222 l0 -20 20 5 c24 6 21 26 -3 31 l-17 3 0 -19z" />
    <path d="M450 209 c0 -5 5 -7 10 -4 6 3 10 8 10 11 0 2 -4 4 -10 4 -5 0 -10
-5 -10 -11z" />
  </g>
  <g transform="translate(0.000000,100.000000) scale(0.100000,-0.100000)" fill="#9f525d" stroke="none">
    <path d="M448 842 c-16 -2 -28 -8 -28 -13 l0 -10 -20 6 -20 6 -6 -15 -6 -15
-14 6 c-8 3 -14 1 -14 -5 0 -5 9 -12 21 -15 l21 -6 -7 -10 -6 -11 13 0 c15 1
44 21 46 33 1 4 2 11 2 16 0 4 15 12 32 17 37 11 27 22 -14 16z" />
    <path d="M513 838 c4 -20 23 -37 49 -43 l25 -6 6 22 6 23 -12 8 c-7 4 -27 8
-44 8 l-33 0 3 -12z" />
    <path d="M615 831 c-3 -5 2 -17 11 -25 l15 -16 -10 0 c-21 0 -11 -15 27 -40
45 -30 56 -43 83 -97 22 -45 41 -58 31 -21 l-5 21 11 -7 c15 -9 27 13 14 26
l-11 11 -16 -13 -15 -12 0 13 c0 7 10 23 22 36 l21 23 -12 0 c-7 0 -26 14 -44
31 -27 28 -100 79 -111 79 -3 0 -7 -4 -11 -9z m52 -68 c-4 -3 -7 0 -7 7 0 7 3
10 7 7 3 -4 3 -10 0 -14z m20 -10 c-4 -3 -7 0 -7 7 0 7 3 10 7 7 3 -4 3 -10 0
-14z m39 -31 c-9 -8 -26 10 -26 26 l1 17 14 -19 c8 -11 13 -21 11 -24z" />
    <path d="M440 800 c0 -5 7 -10 16 -10 l15 0 -6 10 c-3 6 -10 10 -16 10 -5 0
-9 -4 -9 -10z" />
    <path d="M320 769 c0 -3 -10 -9 -22 -12 -12 -4 -19 -9 -16 -12 7 -8 -27 -45
-41 -45 -5 0 -7 -9 -4 -20 6 -23 11 -24 48 -10 l27 10 -6 24 -6 24 20 -5 c11
-3 20 -1 20 3 0 5 3 18 6 30 l5 21 -15 0 c-9 0 -16 -4 -16 -8z" />
    <path d="M224 642 l7 -20 -14 -13 c-16 -17 -15 -65 1 -81 7 -7 12 -17 12 -23
0 -7 7 -12 15 -12 8 0 15 6 15 14 0 7 -7 13 -16 13 l-16 0 6 15 c3 8 1 15 -5
15 l-10 0 11 20 c6 11 15 18 20 15 10 -6 44 65 35 74 -4 3 -10 -1 -15 -9 l-9
-15 -22 13 -21 13 6 -19z m23 -39 c-4 -3 -7 0 -7 7 0 7 3 10 7 7 3 -4 3 -10 0
-14z" />
    <path d="M810 629 c0 -5 5 -7 10 -4 6 3 10 8 10 11 0 2 -4 4 -10 4 -5 0 -10
-5 -10 -11z" />
    <path d="M770 585 l0 -12 40 0 41 0 -4 11 c-2 6 -20 11 -40 12 l-37 1 0 -12z" />
    <path d="M595 570 c3 -5 10 -10 16 -10 5 0 9 5 9 10 0 6 -7 10 -16 10 l-15 0
6 -10z" />
    <path d="M630 570 c0 -5 7 -10 15 -10 8 0 15 5 15 10 0 6 -7 10 -15 10 -8 0
-15 -4 -15 -10z" />
    <path d="M550 554 l0 -16 15 12 c8 7 15 14 15 16 0 2 -7 4 -15 4 -8 0 -15 -7
-15 -16z" />
    <path d="M776 534 c-10 -27 -7 -32 24 -30 17 0 30 3 30 6 -1 10 -25 35 -37 37
-6 1 -14 -5 -17 -13z" />
    <path d="M307 523 c-4 -3 -7 -11 -7 -17 l0 -10 12 12 c6 6 9 14 7 17 -3 3 -9
2 -12 -2z" />
    <path d="M470 501 c0 -6 5 -13 10 -16 l10 -6 0 15 c0 9 -4 16 -10 16 -5 0 -10
-4 -10 -9z" />
    <path d="M540 490 c0 -5 5 -10 10 -10 6 0 10 5 10 10 0 6 -4 10 -10 10 -5 0
-10 -4 -10 -10z" />
    <path d="M730 485 c7 -9 15 -13 17 -11 7 7 -7 26 -19 26 l-10 0 12 -15z" />
    <path d="M193 467 l-6 -10 11 7 11 6 6 -21 7 -20 13 5 13 5 -5 -20 c-3 -10 -1
-19 5 -19 17 0 23 -32 10 -49 l-13 -16 16 12 c9 7 19 10 22 7 4 -4 5 7 4 25
l-2 31 -15 0 -15 0 14 9 13 9 -7 21 -7 22 -14 -12 -14 -11 -5 14 c-7 17 -33
20 -42 5z" />
    <path d="M500 470 c0 -5 7 -10 15 -10 8 0 15 5 15 10 0 6 -7 10 -15 10 -8 0
-15 -4 -15 -10z" />
    <path d="M767 473 l-18 -5 4 -54 4 -54 -9 0 c-5 0 -6 -4 -3 -10 9 -15 25 -12
25 5 0 8 7 15 15 15 8 0 19 10 26 21 l11 21 -10 -6 c-5 -3 -13 1 -16 10 -10
25 -7 34 8 28 8 -3 17 0 21 6 l8 12 -14 9 c-15 9 -23 10 -52 2z" />
    <path d="M300 462 c0 -5 14 -9 30 -10 17 0 30 4 30 9 0 5 -13 9 -30 9 -16 0
-30 -4 -30 -8z" />
    <path d="M680 463 c0 -5 14 -8 30 -9 17 -1 30 3 30 7 0 5 -13 9 -30 9 -16 0
-30 -3 -30 -7z" />
    <path d="M390 452 c0 -12 19 -26 26 -19 2 2 -2 10 -11 17 l-15 12 0 -10z" />
    <path d="M620 445 l-12 -15 10 0 c12 0 26 19 19 26 -2 2 -10 -2 -17 -11z" />
    <path d="M450 400 c0 -5 7 -10 16 -10 l15 0 -6 10 c-3 6 -10 10 -16 10 -5 0
-9 -4 -9 -10z" />
    <path d="M526 354 l-6 -16 12 4 c15 5 23 28 10 28 -5 0 -13 -7 -16 -16z" />
    <path d="M670 340 c-19 -17 -30 -30 -24 -30 5 0 25 13 44 30 19 16 31 29 25
29 -5 0 -26 -13 -45 -29z" />
    <path d="M365 320 c3 -5 11 -10 16 -10 6 0 7 5 4 10 -3 6 -11 10 -16 10 -6 0
-7 -4 -4 -10z" />
    <path d="M403 288 c0 -7 -2 -17 -3 -23 -5 -21 0 -45 11 -45 l10 0 -6 19 c-3
11 -1 22 5 26 5 3 10 13 10 21 0 17 -27 19 -27 2z" />
    <path d="M600 286 c0 -8 6 -16 13 -19 l12 -4 -11 -12 c-6 -7 -24 -13 -40 -14
l-29 -2 2 23 3 22 -15 0 c-9 0 -18 -7 -22 -15 l-5 -16 17 -19 18 -20 40 3 41
4 10 16 10 16 -14 25 c-15 28 -30 34 -30 12z" />
    <path d="M470 277 c0 -8 7 -14 15 -14 8 0 15 6 15 14 0 7 -7 13 -15 13 -8 0
-15 -6 -15 -13z" />
    <path d="M470 241 c0 -5 -10 -7 -22 -4 l-23 6 15 -16 c8 -8 30 -18 48 -20 l32
-5 0 12 c0 7 -5 17 -12 24 -14 14 -38 16 -38 3z" />
  </g>
  <g transform="translate(0.000000,100.000000) scale(0.100000,-0.100000)" fill="#d28f4a" stroke="none">
    <path d="M485 800 l-6 -10 35 0 c20 0 36 5 36 10 0 6 -13 10 -29 10 -17 0 -33
-4 -36 -10z" />
    <path d="M435 790 c-3 -5 1 -10 9 -10 8 0 18 5 21 10 3 6 -1 10 -9 10 -8 0
-18 -4 -21 -10z" />
    <path d="M565 790 c3 -5 13 -10 21 -10 8 0 14 5 14 10 0 6 -9 10 -21 10 l-20
0 6 -10z" />
    <path d="M620 776 c0 -2 11 -11 25 -20 l26 -17 -13 21 c-7 11 -18 20 -25 20
-7 0 -13 -2 -13 -4z" />
    <path d="M520 735 c-26 -28 -40 -32 -40 -11 0 8 -7 17 -15 20 l-16 6 -6 -17
-6 -16 15 -11 15 -11 -13 -13 -14 -13 -12 26 c-6 14 -15 25 -20 25 l-9 0 6
-20 7 -21 -12 3 c-7 2 -14 -2 -17 -9 l-4 -12 18 0 c43 -1 58 -5 66 -15 l7 -11
9 14 9 14 7 -22 c3 -11 11 -21 16 -21 5 0 9 -4 9 -9 0 -5 -9 -7 -20 -4 -11 3
-20 9 -20 14 0 5 -5 9 -11 9 l-11 0 5 -29 6 -29 -22 5 -22 4 19 -15 c26 -21
37 -20 43 4 3 11 9 20 13 20 5 0 15 3 24 6 l16 6 0 -27 0 -27 16 6 c9 3 20 6
25 6 5 0 9 5 9 11 l0 10 -22 -6 -21 -7 6 17 c4 9 7 19 7 21 0 2 7 4 15 4 8 0
15 7 15 15 l0 15 -19 0 -20 0 -4 -17 -5 -18 -1 18 c0 9 -5 17 -11 17 -5 0 -10
6 -10 14 l0 13 25 -5 25 -4 0 15 0 15 -16 -2 c-9 0 -19 5 -21 12 l-5 12 16 0
c22 0 30 20 14 36 l-14 14 -24 -25z m-10 -49 c0 -2 -7 -7 -16 -10 l-15 -6 6
10 c6 10 25 14 25 6z" />
    <path d="M340 740 c0 -5 4 -10 9 -10 6 0 13 5 16 10 l6 10 -15 0 c-9 0 -16 -4
-16 -10z" />
    <path d="M609 697 c-7 -15 -16 -24 -20 -21 -5 3 -9 -1 -9 -10 l0 -14 18 3 c9
2 22 4 29 4 l12 1 -3 25 c-4 37 -14 41 -27 12z" />
    <path d="M300 695 c0 -8 -4 -15 -10 -15 -5 0 -10 -8 -10 -17 l0 -18 20 25 c22
28 25 40 10 40 -5 0 -10 -7 -10 -15z" />
    <path d="M720 691 c0 -5 5 -13 10 -16 6 -3 10 -2 10 4 0 5 -4 13 -10 16 -5 3
-10 2 -10 -4z" />
    <path d="M755 623 c3 -16 11 -32 16 -37 l9 -10 0 22 c0 12 -4 22 -10 22 -5 0
-7 7 -4 15 l6 15 -12 0 -12 0 7 -27z" />
    <path d="M260 614 c-6 -14 -10 -30 -10 -37 l0 -11 9 10 c10 11 24 64 16 64 -3
0 -10 -12 -15 -26z" />
    <path d="M375 570 l-6 -10 15 0 c9 0 16 5 16 10 0 6 -4 10 -9 10 -6 0 -13 -4
-16 -10z" />
    <path d="M630 569 c0 -5 4 -8 8 -5 13 8 72 -32 72 -48 0 -8 7 -17 16 -20 l16
-6 -6 -17 -7 -16 12 -7 11 -7 -16 -31 c-8 -16 -35 -46 -58 -67 l-43 -36 -42
-12 c-24 -6 -43 -15 -43 -19 0 -4 3 -8 8 -8 4 0 17 -3 30 -6 l22 -6 0 15 c0 8
19 27 43 42 23 16 57 44 75 62 l32 34 0 30 0 29 -31 43 c-30 41 -62 66 -86 67
-7 0 -13 -5 -13 -11z" />
    <path d="M770 539 l0 -30 10 6 c6 3 10 17 10 31 0 13 -4 24 -10 24 -5 0 -10
-14 -10 -31z" />
    <path d="M311 527 c-30 -48 -26 -58 4 -12 15 20 24 39 22 42 -3 2 -14 -11 -26
-30z" />
    <path d="M493 535 c0 -8 6 -15 14 -15 7 0 13 7 13 15 0 8 -6 15 -13 15 -8 0
-14 -7 -14 -15z" />
    <path d="M270 455 l0 -14 15 5 c8 4 15 10 15 15 0 5 -7 9 -15 9 -8 0 -15 -7
-15 -15z" />
    <path d="M339 459 l-14 -9 23 0 c37 0 77 -26 127 -82 26 -29 45 -48 43 -43
-12 33 -47 75 -77 96 -20 13 -38 27 -41 30 -10 11 -48 16 -61 8z" />
    <path d="M662 463 c-35 -7 -124 -83 -130 -113 -2 -8 15 7 38 33 l41 47 40 11
c21 7 39 16 39 21 0 4 -1 7 -2 7 -2 -1 -13 -4 -26 -6z" />
    <path d="M310 372 c0 -12 19 -26 26 -19 2 2 -2 10 -11 17 l-15 12 0 -10z" />
    <path d="M384 309 c14 -11 32 -19 39 -16 l12 4 -32 16 c-43 23 -51 21 -19 -4z" />
    <path d="M455 269 l-7 -21 10 -10 c11 -11 32 -3 32 14 l0 10 -17 -13 -16 -14
13 22 14 21 14 -6 15 -5 -7 11 c-4 7 -16 12 -26 12 l-19 0 -6 -21z" />
    <path d="M550 245 c-7 -9 -10 -18 -7 -21 10 -11 37 5 37 21 0 19 -14 19 -30 0z" />
  </g>
  <g transform="translate(0.000000,100.000000) scale(0.100000,-0.100000)" fill="#b56b63" stroke="none">
    <path d="M450 830 c0 -5 7 -10 15 -10 8 0 15 5 15 10 0 6 -7 10 -15 10 -8 0
-15 -4 -15 -10z" />
    <path d="M518 829 c-14 -9 -1 -29 18 -29 8 0 12 5 9 10 -3 6 1 10 9 10 8 0 18
4 21 10 l6 10 -26 -2 c-14 -1 -31 -5 -37 -9z" />
    <path d="M583 829 l-12 -15 9 -14 c12 -19 22 -7 18 21 l-3 22 -12 -14z" />
    <path d="M385 810 c-3 -5 -15 -10 -26 -10 l-19 0 0 -19 0 -19 -17 2 c-9 0 -22
-8 -27 -20 -6 -11 -17 -19 -24 -16 -6 2 -12 -1 -12 -6 0 -13 25 -33 34 -27 3
3 2 0 -3 -7 l-10 -11 -16 13 c-8 7 -18 10 -21 7 -7 -7 20 -37 33 -37 13 0 34
40 28 50 l-6 10 15 -6 c19 -7 21 7 4 26 l-13 14 18 -13 17 -14 20 18 c11 10
17 22 13 28 l-6 10 17 -6 17 -7 -6 10 c-3 6 -2 10 3 10 6 0 12 7 16 15 l5 15
-14 0 c-7 0 -17 -4 -20 -10z" />
    <path d="M647 813 c-4 -3 -7 -11 -7 -17 l0 -10 12 12 c6 6 9 14 7 17 -3 3 -9
2 -12 -2z" />
    <path d="M691 780 l-13 -7 11 -7 c6 -4 11 -4 11 0 0 4 9 -5 21 -20 l21 -27 -5
-19 c-7 -27 5 -25 22 2 l14 22 -12 4 c-6 2 -11 10 -11 18 0 8 -4 14 -9 14 -5
0 -16 6 -24 14 l-14 14 -12 -8z" />
    <path d="M666 751 c-3 -5 1 -11 9 -15 8 -3 15 -1 15 4 0 13 -18 22 -24 11z" />
    <path d="M470 685 c-7 -9 -10 -18 -7 -21 10 -10 47 7 47 22 0 19 -24 18 -40
-1z" />
    <path d="M420 665 c0 -8 5 -15 10 -15 6 0 10 7 10 15 0 8 -4 15 -10 15 -5 0
-10 -7 -10 -15z" />
    <path d="M515 660 c-8 -26 -1 -35 20 -26 l16 6 -3 17 c-5 25 -25 27 -33 3z" />
    <path d="M560 665 c0 -8 7 -15 15 -15 8 0 15 7 15 15 0 8 -7 15 -15 15 -8 0
-15 -7 -15 -15z" />
    <path d="M220 640 c0 -5 5 -10 10 -10 6 0 10 5 10 10 0 6 -4 10 -10 10 -5 0
-10 -4 -10 -10z" />
    <path d="M783 637 c5 -15 37 -22 37 -9 0 5 -9 12 -21 15 l-20 5 4 -11z" />
    <path d="M207 588 c4 -7 6 -21 5 -30 l-3 -18 21 0 22 0 -6 16 c-3 9 -6 22 -6
30 l0 14 -21 0 -20 0 8 -12z" />
    <path d="M798 589 c-21 -12 -24 -39 -4 -39 7 0 19 7 26 15 l13 16 -9 9 -9 9
-17 -10z" />
    <path d="M604 573 c10 -11 36 -12 36 -2 0 5 -10 9 -22 9 -12 0 -18 -3 -14 -7z" />
    <path d="M463 548 c1 -10 4 -18 8 -18 4 0 9 8 11 18 l5 19 -13 0 c-7 0 -12 -9
-11 -19z" />
    <path d="M506 535 l6 -35 -16 0 c-17 0 -23 -19 -6 -21 6 -1 16 -2 23 -3 6 -1
19 1 28 5 l16 8 1 33 c1 34 -11 48 -41 48 l-18 0 7 -35z" />
    <path d="M324 538 l-7 -11 11 7 c7 4 12 9 12 12 0 8 -9 4 -16 -8z" />
    <path d="M797 533 c-13 -12 -7 -22 12 -20 l19 1 -5 13 c-6 14 -16 17 -26 6z" />
    <path d="M207 518 l-12 -8 15 -10 c20 -13 30 -13 30 1 0 5 5 7 10 4 6 -3 10 0
10 7 l0 14 -20 0 c-12 0 -26 -4 -33 -8z" />
    <path d="M277 476 l-16 -17 6 -16 7 -17 4 15 c3 7 9 17 15 20 5 4 8 12 5 19
l-4 13 -17 -17z" />
    <path d="M757 482 c-22 -5 -16 -28 7 -24 l16 3 0 -16 c0 -20 13 -19 33 3 20
22 11 37 -11 19 l-16 -12 7 11 7 12 -13 4 c-6 2 -20 3 -30 0z" />
    <path d="M230 440 c0 -10 4 -30 10 -44 l9 -26 16 6 15 6 0 -17 0 -17 15 12
c20 17 19 32 -2 28 l-18 -3 2 13 c2 6 -3 12 -11 12 l-14 0 5 19 5 18 -16 6
-16 6 0 -19z" />
    <path d="M600 429 c0 -5 5 -7 10 -4 6 3 10 8 10 11 0 2 -4 4 -10 4 -5 0 -10
-5 -10 -11z" />
    <path d="M569 403 l-14 -18 18 14 c16 13 21 21 13 21 -2 0 -10 -8 -17 -17z" />
    <path d="M450 406 c0 -2 7 -9 15 -16 l15 -12 0 10 c0 5 -7 12 -15 16 -8 3 -15
4 -15 2z" />
    <path d="M771 401 l-12 -8 14 -12 14 -11 12 14 12 14 -14 5 c-8 3 -19 2 -26
-2z" />
    <path d="M740 385 c0 -8 7 -15 16 -15 l16 0 -12 15 c-7 8 -14 15 -16 15 -2 0
-4 -7 -4 -15z" />
    <path d="M490 356 c0 -2 8 -10 18 -17 l17 -14 -14 18 c-13 16 -21 21 -21 13z" />
    <path d="M340 346 c0 -2 8 -10 18 -17 l17 -14 -14 18 c-13 16 -21 21 -21 13z" />
    <path d="M385 310 c3 -5 8 -10 11 -10 3 0 2 5 -1 10 -3 6 -8 10 -11 10 -3 0
-2 -4 1 -10z" />
    <path d="M414 292 c3 -6 2 -13 -4 -17 -13 -8 -13 -45 0 -45 6 0 10 7 10 15 0
8 7 15 16 15 l15 0 -3 17 c-2 10 -12 19 -22 21 l-18 4 6 -10z" />
    <path d="M460 270 c0 -5 5 -10 10 -10 6 0 10 5 10 10 0 6 -4 10 -10 10 -5 0
-10 -4 -10 -10z" />
    <path d="M488 260 c-7 -11 -22 -20 -32 -20 l-20 0 12 -12 11 -11 16 13 c8 7
15 9 15 5 0 -5 8 2 19 13 19 23 37 30 25 10 l-7 -11 11 6 c16 11 39 -2 46 -25
l5 -21 15 12 c18 15 12 31 -10 31 -8 0 -14 7 -14 15 l0 15 -40 0 -40 0 -12
-20z" />
    <path d="M610 270 c0 -5 5 -10 10 -10 6 0 10 5 10 10 0 6 -4 10 -10 10 -5 0
-10 -4 -10 -10z" />
  </g>
  <g transform="translate(0.000000,100.000000) scale(0.100000,-0.100000)" fill="#b7704b" stroke="none">
    <path d="M530 831 c0 -5 6 -12 13 -14 l12 -5 -13 -1 c-7 -1 -10 -5 -7 -11 11
-18 25 -10 25 15 l0 25 -15 0 c-8 0 -15 -4 -15 -9z" />
    <path d="M485 805 c-5 -2 -22 -6 -37 -9 -16 -4 -28 -12 -28 -18 l0 -12 12 12
c7 7 22 12 34 12 13 0 26 5 29 10 3 6 5 10 3 9 -2 0 -7 -2 -13 -4z" />
    <path d="M590 791 c0 -5 7 -11 15 -15 8 -3 15 -1 15 3 0 5 -7 11 -15 15 -8 3
-15 1 -15 -3z" />
    <path d="M635 770 c3 -5 8 -10 11 -10 2 0 4 5 4 10 0 6 -5 10 -11 10 -5 0 -7
-4 -4 -10z" />
    <path d="M360 754 l0 -16 15 12 c8 7 15 14 15 16 0 2 -7 4 -15 4 -8 0 -15 -7
-15 -16z" />
    <path d="M450 725 c0 -14 5 -25 10 -25 6 0 10 11 10 25 0 14 -4 25 -10 25 -5
0 -10 -11 -10 -25z" />
    <path d="M681 745 c0 -16 60 -78 67 -70 4 4 1 10 -5 12 -7 3 -13 12 -13 21 0
8 -3 13 -6 9 -4 -3 -15 4 -25 16 -10 12 -18 18 -18 12z" />
    <path d="M523 733 c-7 -3 -13 -11 -13 -19 l0 -13 -15 5 -15 6 -1 -13 c-1 -8
-1 -18 0 -23 1 -5 -5 -3 -15 4 l-16 14 3 -18 4 -19 23 -2 c12 -1 22 3 22 9 0
6 5 4 10 -4 l10 -15 10 15 9 15 -9 9 -9 9 10 19 c12 22 10 27 -8 21z" />
    <path d="M283 723 c-7 -3 -13 -9 -13 -15 0 -6 7 -8 15 -4 20 7 19 -8 0 -24 -9
-7 -14 -19 -11 -25 2 -7 -1 -18 -7 -25 l-12 -13 12 7 c7 4 20 22 29 41 l16 34
-9 14 c-4 8 -14 12 -20 10z" />
    <path d="M617 690 c8 -31 23 -34 23 -6 l0 26 -14 0 -14 0 5 -20z" />
    <path d="M415 672 c2 -9 4 -20 4 -24 1 -5 5 -8 10 -8 14 0 9 39 -5 44 l-12 5
3 -17z" />
    <path d="M545 664 c-11 -15 -20 -34 -20 -43 l0 -16 -20 0 -20 0 -3 -21 -3 -22
18 -17 18 -18 -13 -5 c-17 -5 -15 -32 3 -32 l15 0 0 21 0 20 10 -6 c6 -4 8
-11 5 -16 -4 -5 -1 -9 4 -9 6 0 11 12 11 26 0 14 -4 23 -8 20 -4 -2 -14 0 -22
5 l-15 10 19 -3 20 -3 9 38 c5 20 13 37 19 37 5 0 6 -4 3 -10 -3 -5 -2 -10 4
-10 5 0 12 4 15 8 8 13 -5 53 -15 46 l-9 -5 6 15 c10 25 -9 19 -31 -10z" />
    <path d="M748 647 c7 -8 10 -16 7 -19 -3 -3 1 -11 10 -18 l15 -12 0 11 c0 6
-4 11 -10 11 -5 0 -7 6 -4 14 l5 13 -17 7 -17 6 11 -13z" />
    <path d="M220 635 l-12 -15 16 0 c9 0 16 7 16 15 0 8 -2 15 -4 15 -2 0 -9 -7
-16 -15z" />
    <path d="M770 576 c0 -8 5 -18 10 -21 6 -3 10 1 10 9 0 8 -4 18 -10 21 -5 3
-10 -1 -10 -9z" />
    <path d="M373 573 c-13 -2 -23 -8 -23 -13 l0 -9 33 6 c17 3 36 10 42 14 l9 9
-19 -1 c-11 -1 -30 -4 -42 -6z" />
    <path d="M455 560 c3 -5 8 -10 11 -10 2 0 4 5 4 10 0 6 -5 10 -11 10 -5 0 -7
-4 -4 -10z" />
    <path d="M670 556 c14 -8 27 -12 29 -10 6 6 -1 11 -29 18 l-25 7 25 -15z" />
    <path d="M777 523 c-10 -10 -8 -33 2 -33 6 0 9 9 8 20 -1 23 -1 22 -10 13z" />
    <path d="M720 500 c0 -5 5 -10 11 -10 5 0 7 5 4 10 -3 6 -8 10 -11 10 -2 0 -4
-4 -4 -10z" />
    <path d="M290 480 c0 -7 3 -10 7 -7 3 4 3 10 0 14 -4 3 -7 0 -7 -7z" />
    <path d="M735 470 c-3 -5 -2 -10 4 -10 5 0 13 5 16 10 3 6 2 10 -4 10 -5 0
-13 -4 -16 -10z" />
    <path d="M355 460 c7 -11 45 -20 45 -10 0 4 -11 10 -25 12 -13 3 -22 2 -20 -2z" />
    <path d="M630 451 c0 -5 9 -7 20 -4 11 3 20 7 20 9 0 2 -9 4 -20 4 -11 0 -20
-4 -20 -9z" />
    <path d="M738 412 c-18 -38 -16 -52 8 -52 l15 0 -6 20 -7 21 13 15 12 15 -9 9
-9 8 -17 -36z" />
    <path d="M270 431 c0 -5 5 -13 10 -16 6 -3 10 -2 10 4 0 5 -4 13 -10 16 -5 3
-10 2 -10 -4z" />
    <path d="M415 430 c3 -5 11 -10 16 -10 6 0 7 5 4 10 -3 6 -11 10 -16 10 -6 0
-7 -4 -4 -10z" />
    <path d="M600 430 c0 -7 3 -10 7 -7 3 4 3 10 0 14 -4 3 -7 0 -7 -7z" />
    <path d="M290 391 c0 -5 7 -14 15 -21 16 -14 18 -10 9 14 -6 17 -24 22 -24 7z" />
    <path d="M540 375 l-12 -15 10 0 c12 0 26 19 19 26 -2 2 -10 -2 -17 -11z" />
    <path d="M485 360 c3 -5 8 -10 11 -10 2 0 4 5 4 10 0 6 -5 10 -11 10 -5 0 -7
-4 -4 -10z" />
    <path d="M335 350 c3 -5 8 -10 11 -10 3 0 2 5 -1 10 -3 6 -8 10 -11 10 -3 0
-2 -4 1 -10z" />
    <path d="M664 328 l-7 -11 11 7 c7 4 12 9 12 12 0 8 -9 4 -16 -8z" />
    <path d="M634 308 l-7 -11 11 7 c7 4 12 9 12 12 0 8 -9 4 -16 -8z" />
    <path d="M599 293 c-1 -5 -1 -11 0 -15 0 -4 -6 -5 -14 -2 l-15 6 0 -15 c0 -9
-3 -22 -6 -31 l-6 -16 16 0 c9 0 16 5 16 10 0 6 9 10 20 10 l20 0 0 14 c0 8
-5 18 -10 21 -6 4 -8 11 -5 16 4 5 1 9 -4 9 -6 0 -12 -3 -12 -7z" />
    <path d="M450 275 c0 -9 5 -15 11 -13 6 2 11 8 11 13 0 5 -5 11 -11 13 -6 2
-11 -4 -11 -13z" />
    <path d="M518 283 l-28 -4 0 -25 0 -24 16 0 16 0 -5 21 -6 21 25 -5 24 -4 0
13 c0 8 -3 13 -7 13 -5 -1 -20 -4 -35 -6z" />
    <path d="M455 230 c3 -5 10 -10 16 -10 5 0 9 5 9 10 0 6 -7 10 -16 10 l-15 0
6 -10z" />
  </g>
  <g transform="translate(0.000000,100.000000) scale(0.100000,-0.100000)" fill="#b96b7a" stroke="none">
    <path d="M528 838 l23 -11 -5 -14 -5 -13 13 0 c23 0 27 13 9 32 -9 10 -26 18
-37 17 l-21 0 23 -11z" />
    <path d="M416 823 c-3 -7 3 -17 14 -23 27 -14 34 -12 20 5 l-12 15 25 0 c14 0
28 4 32 9 l5 10 -40 -2 -40 -2 -4 -12z" />
    <path d="M591 824 l1 -19 5 13 c3 7 2 16 -1 19 -3 4 -6 -2 -5 -13z" />
    <path d="M506 815 l-5 -15 14 0 14 0 -5 15 c-4 8 -7 15 -9 15 -2 0 -5 -7 -9
-15z" />
    <path d="M620 815 c0 -8 2 -15 4 -15 2 0 6 7 10 15 3 8 1 15 -4 15 -6 0 -10
-7 -10 -15z" />
    <path d="M385 800 c10 -11 23 -20 28 -20 6 0 2 9 -8 20 -10 11 -23 20 -28 20
-6 0 -2 -9 8 -20z" />
    <path d="M642 795 l-12 -25 10 0 c6 0 10 6 10 14 0 8 5 18 12 22 l11 7 -6 -10
c-4 -6 0 -16 9 -23 l15 -13 -6 -16 -5 -16 15 19 c8 11 15 25 15 30 0 6 -5 4
-10 -4 -9 -14 -15 -7 -11 14 2 9 -18 26 -30 26 -3 0 -11 -11 -17 -25z" />
    <path d="M345 790 c3 -5 8 -10 11 -10 2 0 4 5 4 10 0 6 -5 10 -11 10 -5 0 -7
-4 -4 -10z" />
    <path d="M299 760 l-17 -18 9 -13 c8 -14 10 -12 13 14 1 6 7 11 14 10 7 -2 12
4 12 12 0 19 -11 18 -31 -5z" />
    <path d="M715 761 c-7 -12 34 -51 54 -51 17 0 5 15 -12 15 -7 0 -11 8 -9 18
l3 17 -17 -7 -17 -6 7 11 c4 7 5 12 2 12 -3 0 -7 -4 -11 -9z" />
    <path d="M260 720 c0 -5 5 -10 11 -10 5 0 7 5 4 10 -3 6 -8 10 -11 10 -2 0 -4
-4 -4 -10z" />
    <path d="M240 680 c0 -13 3 -20 7 -17 3 4 12 2 20 -4 l13 -11 0 9 c0 6 -9 18
-20 28 l-20 18 0 -23z" />
    <path d="M769 678 c-6 -21 -5 -37 1 -33 5 3 13 -3 19 -12 l10 -18 12 13 13 12
-16 0 -16 0 5 20 5 20 -16 0 c-9 0 -16 -1 -17 -2z m16 -18 c3 -5 4 -10 1 -10
-3 0 -8 5 -11 10 -3 6 -4 10 -1 10 3 0 8 -4 11 -10z" />
    <path d="M240 640 c0 -5 -7 -10 -16 -10 l-16 0 11 -14 12 -14 -18 -5 -18 -5
19 -1 18 -1 -13 -17 -14 -18 18 14 c9 7 17 24 17 37 l0 23 18 -6 17 -7 -14 17
c-15 19 -21 21 -21 7z" />
    <path d="M785 580 c-3 -5 -5 -24 -3 -43 l2 -34 13 0 c15 0 17 13 3 22 -5 3
-10 12 -9 18 l1 12 5 -12 c2 -7 9 -13 14 -13 4 0 6 7 3 15 -4 8 -1 22 6 30
l12 15 -20 0 c-12 0 -23 -4 -27 -10z m12 -17 c-4 -3 -7 0 -7 7 0 7 3 10 7 7 3
-4 3 -10 0 -14z" />
    <path d="M214 534 l6 -16 -20 5 c-23 6 -28 -8 -5 -16 14 -6 28 7 31 31 1 6 -2
12 -8 12 l-10 0 6 -16z" />
    <path d="M549 518 c0 -2 -2 -11 -4 -21 l-3 -18 14 12 c7 6 11 15 8 20 -5 9
-13 12 -15 7z" />
    <path d="M225 496 c-3 -9 -7 -23 -10 -31 -2 -8 -1 -15 4 -15 5 0 8 -6 7 -14 0
-8 3 -15 9 -15 l9 -1 -3 43 c-3 47 -8 58 -16 33z" />
    <path d="M502 481 c4 -13 18 -16 19 -4 0 4 -5 9 -11 12 -7 2 -11 -2 -8 -8z" />
    <path d="M753 467 c0 -7 8 -13 18 -13 l17 0 -5 13 c-3 7 -11 13 -17 13 -7 0
-13 -6 -13 -13z" />
    <path d="M790 476 c0 -2 7 -9 15 -16 l15 -12 0 16 c0 9 -7 16 -15 16 -8 0 -15
-2 -15 -4z" />
    <path d="M760 429 c0 -4 5 -11 10 -14 6 -3 10 -11 10 -16 0 -6 -4 -7 -10 -4
-15 9 -12 -1 5 -15 l15 -12 0 34 0 35 -15 0 c-8 0 -15 -4 -15 -8z" />
    <path d="M258 403 c7 -3 16 -2 19 1 4 3 -2 6 -13 5 l-19 -1 13 -5z" />
    <path d="M246 381 c3 -3 11 -6 17 -6 7 0 12 -4 12 -10 0 -5 -4 -9 -8 -7 -5 1
-5 -3 -2 -9 l7 -11 11 11 c6 6 12 17 13 24 l2 13 -29 0 c-16 0 -26 -2 -23 -5z" />
    <path d="M731 364 c6 -8 18 -14 25 -14 8 0 14 6 14 14 l0 14 -25 0 -25 0 11
-14z" />
    <path d="M524 248 l-7 -11 11 7 c12 7 16 16 8 16 -3 0 -8 -5 -12 -12z" />
    <path d="M405 239 c-11 -17 1 -21 15 -4 l12 15 -10 0 c-6 0 -14 -5 -17 -11z" />
    <path d="M465 230 c3 -5 8 -10 11 -10 2 0 4 5 4 10 0 6 -5 10 -11 10 -5 0 -7
-4 -4 -10z" />
    <path d="M585 220 c3 -5 8 -10 11 -10 3 0 2 5 -1 10 -3 6 -8 10 -11 10 -3 0
-2 -4 1 -10z" />
  </g>
  <g transform="translate(0.000000,100.000000) scale(0.100000,-0.100000)" fill="#8a3c46" stroke="none">
    <path d="M430 820 c0 -5 7 -7 15 -4 8 4 15 8 15 10 0 2 -7 4 -15 4 -8 0 -15
-4 -15 -10z" />
    <path d="M567 820 l11 -15 -45 4 -46 3 8 -11 c3 -7 14 -9 24 -6 9 2 31 1 49
-4 17 -5 32 -6 32 -2 0 4 -10 16 -22 27 -13 10 -17 12 -11 4z" />
    <path d="M663 793 c4 -3 10 -3 14 0 3 4 0 7 -7 7 -7 0 -10 -3 -7 -7z" />
    <path d="M395 780 c-4 -6 -16 -10 -28 -8 -12 2 -22 -2 -22 -7 0 -6 -18 -32
-39 -58 l-39 -48 13 -12 13 -12 -7 13 -8 13 49 48 c26 27 58 52 71 55 12 4 22
12 22 17 0 12 -17 12 -25 -1z" />
    <path d="M610 780 c0 -5 10 -10 23 -10 l22 0 -15 10 c-19 13 -30 13 -30 0z" />
    <path d="M669 758 c-6 -13 -8 -20 -4 -15 5 4 18 -1 29 -10 l21 -18 -17 21
c-20 23 -24 39 -6 28 l11 -7 -7 11 c-4 7 -9 12 -11 12 -2 0 -10 -10 -16 -22z" />
    <path d="M745 720 c3 -5 8 -10 11 -10 3 0 2 5 -1 10 -3 6 -8 10 -11 10 -3 0
-2 -4 1 -10z" />
    <path d="M721 709 c0 -9 6 -22 14 -29 l15 -12 0 11 c0 6 -4 11 -9 11 -5 0 -12
8 -14 18 l-5 17 -1 -16z" />
    <path d="M244 668 l-7 -11 11 7 c12 7 16 16 8 16 -3 0 -8 -5 -12 -12z" />
    <path d="M756 633 l-7 -18 12 12 c7 7 10 15 7 18 -3 3 -9 -2 -12 -12z" />
    <path d="M250 620 c13 -23 20 -26 20 -6 0 8 -7 16 -15 20 l-15 6 10 -20z" />
    <path d="M772 600 c0 -14 2 -19 5 -12 2 6 2 18 0 25 -3 6 -5 1 -5 -13z" />
    <path d="M383 567 l-6 -10 29 6 c16 3 38 1 49 -5 l20 -10 -12 12 c-15 16 -71
21 -80 7z" />
    <path d="M576 571 c-3 -5 5 -8 18 -7 13 0 22 4 19 9 -6 10 -31 9 -37 -2z" />
    <path d="M630 570 c0 -7 3 -10 7 -7 3 4 3 10 0 14 -4 3 -7 0 -7 -7z" />
    <path d="M239 558 c-8 -7 -12 -12 -10 -11 2 2 10 -2 18 -8 l13 -11 0 21 c0 11
-1 21 -3 21 -2 0 -10 -6 -18 -12z" />
    <path d="M345 560 l-6 -10 16 0 16 0 -6 10 c-3 6 -8 10 -10 10 -2 0 -7 -4 -10
-10z" />
    <path d="M673 553 c4 -3 10 -3 14 0 3 4 0 7 -7 7 -7 0 -10 -3 -7 -7z" />
    <path d="M781 534 l1 -19 5 13 c3 7 2 16 -1 19 -3 4 -6 -2 -5 -13z" />
    <path d="M460 531 c0 -6 5 -13 10 -16 l10 -6 0 15 c0 9 -4 16 -10 16 -5 0 -10
-4 -10 -9z" />
    <path d="M700 534 c0 -5 7 -19 15 -30 8 -10 15 -14 15 -8 0 5 -7 19 -15 30 -8
10 -15 14 -15 8z" />
    <path d="M205 519 l-20 -9 23 4 24 5 -7 -17 -6 -17 12 13 13 12 -9 9 -10 9
-20 -9z" />
    <path d="M771 496 l-13 -15 8 -12 7 -12 9 23 c10 28 5 36 -11 16z" />
    <path d="M254 484 c3 -9 6 -19 6 -23 0 -5 14 -8 31 -9 l30 -1 -11 14 c-6 8
-18 11 -26 8 l-14 -5 0 16 c0 9 -5 16 -11 16 l-11 0 6 -16z" />
    <path d="M480 489 c0 -5 5 -7 10 -4 6 3 10 8 10 11 0 2 -4 4 -10 4 -5 0 -10
-5 -10 -11z" />
    <path d="M680 460 c0 -7 3 -10 7 -7 3 4 3 10 0 14 -4 3 -7 0 -7 -7z" />
    <path d="M725 460 c-3 -5 -2 -10 4 -10 5 0 13 5 16 10 3 6 2 10 -4 10 -5 0
-13 -4 -16 -10z" />
    <path d="M378 453 c7 -3 16 -2 19 1 4 3 -2 6 -13 5 l-19 -1 13 -5z" />
    <path d="M638 453 c7 -3 16 -2 19 1 4 3 -2 6 -13 5 l-19 -1 13 -5z" />
    <path d="M225 441 c-3 -5 -1 -12 5 -16 l10 -6 0 15 c0 18 -6 21 -15 7z" />
    <path d="M753 444 c4 -7 -4 -27 -16 -46 l-23 -34 17 0 c10 0 16 3 14 6 -2 4 3
19 11 35 l15 28 -12 11 -12 11 6 -11z" />
    <path d="M272 425 c2 -11 9 -26 16 -33 7 -8 9 -19 5 -25 -3 -7 -3 -9 2 -5 4 4
15 2 24 -4 l16 -13 -20 24 c-11 13 -19 26 -19 30 1 3 -5 15 -13 26 l-14 20 3
-20z" />
    <path d="M425 430 c3 -5 8 -10 11 -10 3 0 2 5 -1 10 -3 6 -8 10 -11 10 -3 0
-2 -4 1 -10z" />
    <path d="M235 390 c-3 -5 -1 -10 4 -10 6 0 11 5 11 10 0 6 -2 10 -4 10 -3 0
-8 -4 -11 -10z" />
    <path d="M470 394 c0 -13 18 -39 24 -34 2 3 -2 14 -10 24 -8 11 -14 16 -14 10z" />
    <path d="M544 378 l-19 -23 23 19 c12 11 22 21 22 23 0 8 -8 2 -26 -19z" />
    <path d="M793 393 c4 -3 10 -3 14 0 3 4 0 7 -7 7 -7 0 -10 -3 -7 -7z" />
    <path d="M515 340 c-3 -5 -2 -10 4 -10 5 0 13 5 16 10 3 6 2 10 -4 10 -5 0
-13 -4 -16 -10z" />
    <path d="M397 299 c7 -7 15 -10 18 -7 3 3 -2 9 -12 12 l-18 7 12 -12z" />
    <path d="M435 280 c3 -5 1 -10 -5 -10 -6 0 -10 -8 -8 -17 2 -10 10 -18 18 -18
l15 0 3 28 3 27 -16 0 -16 0 6 -10z" />
    <path d="M565 281 c-6 -11 9 -23 19 -14 9 9 7 23 -3 23 -6 0 -12 -4 -16 -9z" />
    <path d="M490 256 c0 -29 17 -43 33 -27 l11 11 -22 20 -22 21 0 -25z" />
    <path d="M620 251 c0 -5 5 -13 10 -16 6 -3 10 -2 10 4 0 5 -4 13 -10 16 -5 3
-10 2 -10 -4z" />
    <path d="M573 235 c0 -8 4 -15 8 -15 4 0 9 7 13 15 l5 15 -13 0 c-7 0 -13 -7
-13 -15z" />
  </g>
  <g transform="translate(0.000000,100.000000) scale(0.100000,-0.100000)" fill="#9f5447" stroke="none">
    <path d="M357 786 l-27 -25 7 -17 6 -16 -21 6 -20 7 -7 -10 -6 -11 15 6 16 6
0 -11 c0 -6 -4 -11 -10 -11 -5 0 -10 -5 -10 -11 0 -12 68 41 69 53 1 4 -7 5
-16 1 l-18 -6 29 31 c35 38 30 42 -7 8z" />
    <path d="M514 798 l-7 -11 11 7 c12 7 16 16 8 16 -3 0 -8 -5 -12 -12z" />
    <path d="M550 799 c0 -4 11 -9 24 -11 l24 -5 -4 11 c-5 12 -44 16 -44 5z" />
    <path d="M443 793 c4 -3 10 -3 14 0 3 4 0 7 -7 7 -7 0 -10 -3 -7 -7z" />
    <path d="M395 773 l-20 -16 18 7 c10 3 23 6 28 6 5 0 9 5 9 10 0 14 -12 12
-35 -7z" />
    <path d="M610 780 c0 -6 7 -10 15 -10 8 0 15 2 15 4 0 2 -7 6 -15 10 -8 3 -15
1 -15 -4z" />
    <path d="M455 731 c-3 -5 -1 -12 4 -15 5 -3 11 1 15 9 6 16 -9 21 -19 6z" />
    <path d="M725 690 c3 -5 8 -10 11 -10 3 0 2 5 -1 10 -3 6 -8 10 -11 10 -3 0
-2 -4 1 -10z" />
    <path d="M266 668 c3 -4 9 -8 15 -8 5 0 9 4 9 8 0 5 -7 9 -15 9 -8 0 -12 -4
-9 -9z" />
    <path d="M423 673 c-15 -5 -18 -33 -4 -33 5 0 11 9 14 20 3 11 4 20 4 19 -1 0
-8 -3 -14 -6z" />
    <path d="M510 654 l0 -15 10 6 c6 4 8 11 5 16 -9 14 -15 11 -15 -7z" />
    <path d="M553 644 c-16 -16 -17 -44 -2 -44 6 0 9 6 6 13 -2 6 3 17 11 23 l15
11 -9 5 c-5 3 -15 0 -21 -8z" />
    <path d="M256 604 c-8 -21 -6 -105 3 -128 4 -11 15 -20 24 -22 l16 -2 -21 28
-21 28 5 56 c3 31 4 56 2 56 -1 0 -5 -7 -8 -16z" />
    <path d="M224 578 l-7 -11 11 7 c12 7 16 16 8 16 -3 0 -8 -5 -12 -12z" />
    <path d="M778 563 l6 -28 4 19 c2 10 0 22 -6 28 l-10 10 6 -29z" />
    <path d="M560 567 c-14 -7 -26 -20 -26 -29 l-2 -18 15 0 14 0 -7 11 -7 12 24
18 c27 21 25 22 -11 6z" />
    <path d="M340 560 c-8 -5 -12 -12 -9 -15 4 -3 12 1 19 10 14 17 11 19 -10 5z" />
    <path d="M503 563 c-17 -6 -17 -20 0 -20 8 0 14 6 14 14 0 7 -1 13 -1 12 -1 0
-7 -3 -13 -6z" />
    <path d="M700 533 c13 -18 25 -33 27 -33 8 0 -17 38 -33 51 l-18 14 24 -32z" />
    <path d="M752 477 l-22 -24 15 0 c8 0 13 3 10 5 -3 3 3 11 13 18 9 7 14 15 11
18 -3 3 -15 -5 -27 -17z" />
    <path d="M227 441 c3 -12 9 -21 14 -21 14 0 11 16 -5 29 l-14 12 5 -20z" />
    <path d="M780 408 c0 -35 12 -30 17 7 l4 25 -11 0 c-5 0 -10 -14 -10 -32z" />
    <path d="M430 426 c0 -2 8 -10 18 -17 l17 -14 -14 18 c-13 16 -21 21 -21 13z" />
    <path d="M286 405 c4 -8 11 -15 16 -15 l10 0 -12 15 c-7 8 -14 15 -16 15 -2 0
-1 -7 2 -15z" />
    <path d="M476 377 c3 -10 9 -15 12 -12 3 3 0 11 -7 18 l-12 12 7 -18z" />
    <path d="M747 375 c3 -8 9 -12 14 -9 12 7 11 11 -5 17 l-15 6 6 -14z" />
    <path d="M323 353 c4 -3 10 -3 14 0 3 4 0 7 -7 7 -7 0 -10 -3 -7 -7z" />
    <path d="M426 284 c-9 -24 -7 -36 4 -29 6 4 8 11 5 16 -4 5 -1 9 5 9 l12 0 -6
-25 -6 -25 9 0 c8 0 11 7 20 45 1 5 -6 12 -17 16 l-20 8 -6 -15z" />
    <path d="M601 291 c-8 -5 -24 -7 -37 -5 -12 2 -26 -1 -30 -7 l-7 -12 10 6 c12
7 27 -20 24 -40 -1 -7 3 -13 9 -13 6 0 8 5 5 10 l-6 10 27 0 26 0 -12 15 -13
16 -8 -13 -9 -13 0 13 0 13 -12 -7 -11 -7 6 11 c8 11 25 11 44 -1 l12 -7 -2
20 c-1 11 -1 20 -2 20 0 0 -6 -4 -14 -9z" />
    <path d="M493 253 c4 -3 10 -3 14 0 3 4 0 7 -7 7 -7 0 -10 -3 -7 -7z" />
  </g>
  <g transform="translate(0.000000,100.000000) scale(0.100000,-0.100000)" fill="#cd8761" stroke="none">
    <path d="M545 830 c3 -5 11 -10 16 -10 6 0 7 5 4 10 -3 6 -11 10 -16 10 -6 0
-7 -4 -4 -10z" />
    <path d="M394 768 l-7 -11 11 7 c12 7 16 16 8 16 -3 0 -8 -5 -12 -12z" />
    <path d="M561 732 l-10 -19 15 0 14 0 0 19 c0 10 -2 18 -5 18 -2 0 -9 -8 -14
-18z" />
    <path d="M455 731 c-3 -5 -2 -12 3 -15 5 -3 9 1 9 9 0 17 -3 19 -12 6z" />
    <path d="M265 710 c3 -5 11 -10 16 -10 6 0 7 5 4 10 -3 6 -11 10 -16 10 -6 0
-7 -4 -4 -10z" />
    <path d="M744 708 l-7 -11 11 7 c7 4 12 9 12 12 0 8 -9 4 -16 -8z" />
    <path d="M475 674 l-15 -23 16 6 15 6 6 -21 c8 -31 28 -16 27 20 l-1 31 -16 3
c-9 1 -23 -9 -32 -22z m35 -17 c0 -5 -4 -5 -10 -2 -5 3 -10 14 -10 23 l0 17
10 -15 c5 -8 10 -19 10 -23z" />
    <path d="M625 691 c-3 -5 -1 -12 5 -16 l10 -6 0 15 c0 18 -6 21 -15 7z" />
    <path d="M540 648 l0 -18 15 0 15 0 0 18 0 19 -15 0 -15 0 0 -19z" />
    <path d="M226 634 l-6 -16 12 4 c15 5 23 28 10 28 -5 0 -13 -7 -16 -16z" />
    <path d="M550 610 c0 -7 3 -10 7 -7 3 4 3 10 0 14 -4 3 -7 0 -7 -7z" />
    <path d="M510 591 l-10 -20 10 -6 c5 -3 11 -5 11 -3 4 8 6 48 3 48 -2 0 -8 -9
-14 -19z" />
    <path d="M800 574 l0 -15 10 6 c6 3 10 10 10 16 0 5 -4 9 -10 9 -5 0 -10 -7
-10 -16z" />
    <path d="M423 573 c4 -3 10 -3 14 0 3 4 0 7 -7 7 -7 0 -10 -3 -7 -7z" />
    <path d="M516 548 l-28 -31 -9 14 -9 14 0 -21 0 -22 26 -17 c30 -20 48 -10 20
11 -11 8 -14 14 -8 14 7 0 12 7 12 15 0 9 11 20 25 25 14 5 25 12 25 15 0 4
-4 4 -9 1 -5 -4 -11 -2 -13 3 -1 6 -16 -4 -32 -21z" />
    <path d="M588 573 c7 -3 16 -2 19 1 4 3 -2 6 -13 5 l-19 -1 13 -5z" />
    <path d="M485 560 c3 -5 8 -10 11 -10 3 0 2 5 -1 10 -3 6 -8 10 -11 10 -3 0
-2 -4 1 -10z" />
    <path d="M536 515 c4 -8 10 -15 15 -15 5 0 9 7 9 15 0 8 -7 15 -15 15 l-14 0
5 -15z" />
    <path d="M260 483 c0 -4 5 -15 10 -23 l10 -15 0 17 c0 9 -4 20 -10 23 -5 3
-10 3 -10 -2z" />
    <path d="M755 480 c-3 -5 -1 -10 4 -10 6 0 11 5 11 10 0 6 -2 10 -4 10 -3 0
-8 -4 -11 -10z" />
    <path d="M750 450 c0 -7 3 -10 7 -7 3 4 3 10 0 14 -4 3 -7 0 -7 -7z" />
    <path d="M235 430 c-3 -5 -2 -10 4 -10 5 0 13 5 16 10 3 6 2 10 -4 10 -5 0
-13 -4 -16 -10z" />
    <path d="M780 430 c0 -5 5 -10 11 -10 5 0 7 5 4 10 -3 6 -8 10 -11 10 -2 0 -4
-4 -4 -10z" />
    <path d="M295 400 c3 -5 8 -10 11 -10 3 0 2 5 -1 10 -3 6 -8 10 -11 10 -3 0
-2 -4 1 -10z" />
    <path d="M746 371 c-4 -7 -5 -15 -2 -18 9 -9 19 4 14 18 l-4 13 -8 -13z" />
    <path d="M524 338 l-7 -11 11 7 c12 7 16 16 8 16 -3 0 -8 -5 -12 -12z" />
    <path d="M587 283 c-3 -5 -1 -19 4 -31 l9 -24 12 4 c7 3 14 12 16 21 l3 16
-20 10 c-11 6 -22 8 -24 4z m23 -18 l12 -15 -10 0 c-5 0 -12 7 -16 15 -3 8 -4
15 -2 15 2 0 9 -7 16 -15z" />
    <path d="M410 260 c0 -11 5 -20 10 -20 6 0 10 9 10 20 0 11 -4 20 -10 20 -5 0
-10 -9 -10 -20z" />
    <path d="M450 250 l0 -20 18 0 17 0 -14 9 c-7 5 -10 14 -7 20 4 6 2 11 -3 11
-6 0 -11 -9 -11 -20z" />
    <path d="M555 250 c2 -12 7 -25 10 -28 3 -3 4 4 2 16 -2 12 -6 24 -10 28 -3 4
-4 -4 -2 -16z" />
    <path d="M503 240 c-1 -11 2 -20 8 -20 5 0 9 9 9 20 0 11 -4 20 -8 20 -4 0 -8
-9 -9 -20z" />
  </g>
  <g transform="translate(0.000000,100.000000) scale(0.100000,-0.100000)" fill="#ce8579" stroke="none">
    <path d="M460 830 l-15 -10 18 0 c9 0 17 5 17 10 0 12 -1 12 -20 0z" />
    <path d="M530 829 c0 -5 5 -7 10 -4 6 3 10 8 10 11 0 2 -4 4 -10 4 -5 0 -10
-5 -10 -11z" />
    <path d="M623 823 c4 -3 10 -3 14 0 3 4 0 7 -7 7 -7 0 -10 -3 -7 -7z" />
    <path d="M380 810 c0 -5 5 -10 10 -10 6 0 10 5 10 10 0 6 -4 10 -10 10 -5 0
-10 -4 -10 -10z" />
    <path d="M584 808 l-7 -11 11 7 c12 7 16 16 8 16 -3 0 -8 -5 -12 -12z" />
    <path d="M350 784 l0 -15 10 6 c6 4 8 11 5 16 -9 14 -15 11 -15 -7z" />
    <path d="M320 760 c0 -5 5 -10 11 -10 5 0 7 5 4 10 -3 6 -8 10 -11 10 -2 0 -4
-4 -4 -10z" />
    <path d="M303 733 c4 -3 10 -3 14 0 3 4 0 7 -7 7 -7 0 -10 -3 -7 -7z" />
    <path d="M245 680 c3 -5 10 -10 16 -10 5 0 9 5 9 10 0 6 -7 10 -16 10 l-15 0
6 -10z" />
    <path d="M564 668 l-7 -11 11 7 c12 7 16 16 8 16 -3 0 -8 -5 -12 -12z" />
    <path d="M235 640 c3 -5 8 -10 11 -10 2 0 4 5 4 10 0 6 -5 10 -11 10 -5 0 -7
-4 -4 -10z" />
    <path d="M790 629 c0 -5 5 -7 10 -4 6 3 10 8 10 11 0 2 -4 4 -10 4 -5 0 -10
-5 -10 -11z" />
    <path d="M225 590 c3 -5 8 -10 11 -10 3 0 2 5 -1 10 -3 6 -8 10 -11 10 -3 0
-2 -4 1 -10z" />
    <path d="M803 583 c4 -3 10 -3 14 0 3 4 0 7 -7 7 -7 0 -10 -3 -7 -7z" />
    <path d="M495 520 c-4 -6 -11 -8 -16 -5 -5 4 -9 3 -9 0 0 -9 43 -44 53 -45 13
0 2 25 -11 26 -25 3 -26 6 -8 13 l20 8 -11 6 c-7 4 -14 3 -18 -3z" />
    <path d="M203 513 c4 -3 10 -3 14 0 3 4 0 7 -7 7 -7 0 -10 -3 -7 -7z" />
    <path d="M230 510 c0 -7 3 -10 7 -7 3 4 3 10 0 14 -4 3 -7 0 -7 -7z" />
    <path d="M550 510 c0 -7 3 -10 7 -7 3 4 3 10 0 14 -4 3 -7 0 -7 -7z" />
    <path d="M220 465 c0 -8 2 -15 4 -15 2 0 6 7 10 15 3 8 1 15 -4 15 -6 0 -10
-7 -10 -15z" />
    <path d="M753 473 c4 -3 10 -3 14 0 3 4 0 7 -7 7 -7 0 -10 -3 -7 -7z" />
    <path d="M235 430 l-6 -10 15 6 c18 7 21 14 7 14 -6 0 -13 -4 -16 -10z" />
    <path d="M780 420 c0 -5 5 -10 10 -10 6 0 10 5 10 10 0 6 -4 10 -10 10 -5 0
-10 -4 -10 -10z" />
    <path d="M244 398 l-7 -11 11 7 c12 7 16 16 8 16 -3 0 -8 -5 -12 -12z" />
    <path d="M780 380 c0 -7 3 -10 7 -7 3 4 3 10 0 14 -4 3 -7 0 -7 -7z" />
    <path d="M745 360 l-6 -10 16 0 16 0 -6 10 c-3 6 -8 10 -10 10 -2 0 -7 -4 -10
-10z" />
    <path d="M415 270 c4 -6 1 -18 -6 -26 l-12 -14 17 6 c18 7 22 44 5 44 -5 0 -7
-5 -4 -10z" />
    <path d="M615 268 l7 -18 -17 0 -16 0 7 -11 6 -11 16 16 16 16 -13 12 -12 13
6 -17z" />
    <path d="M453 263 c4 -3 10 -3 14 0 3 4 0 7 -7 7 -7 0 -10 -3 -7 -7z" />
    <path d="M554 248 l-7 -11 11 7 c12 7 16 16 8 16 -3 0 -8 -5 -12 -12z" />
    <path d="M450 240 c0 -7 3 -10 7 -7 3 4 3 10 0 14 -4 3 -7 0 -7 -7z" />
    <path d="M503 223 c4 -3 10 -3 14 0 3 4 0 7 -7 7 -7 0 -10 -3 -7 -7z" />
  </g>
  <g transform="translate(0.000000,100.000000) scale(0.100000,-0.100000)" fill="#d09132" stroke="none">
    <path d="M503 793 c4 -3 10 -3 14 0 3 4 0 7 -7 7 -7 0 -10 -3 -7 -7z" />
    <path d="M408 773 c7 -3 16 -2 19 1 4 3 -2 6 -13 5 l-19 -1 13 -5z" />
    <path d="M613 773 c4 -3 10 -3 14 0 3 4 0 7 -7 7 -7 0 -10 -3 -7 -7z" />
    <path d="M530 750 c0 -5 5 -10 10 -10 6 0 10 5 10 10 0 6 -4 10 -10 10 -5 0
-10 -4 -10 -10z" />
    <path d="M455 740 c3 -5 11 -10 16 -10 6 0 7 5 4 10 -3 6 -11 10 -16 10 -6 0
-7 -4 -4 -10z" />
    <path d="M570 721 c0 -17 0 -34 -1 -38 0 -4 4 -9 9 -11 12 -4 14 66 2 73 l-10
6 0 -30z" />
    <path d="M404 714 c3 -9 6 -21 6 -27 l0 -11 11 11 c13 13 5 43 -12 43 l-11 0
6 -16z" />
    <path d="M510 720 c0 -7 3 -10 7 -7 3 4 3 10 0 14 -4 3 -7 0 -7 -7z" />
    <path d="M540 720 c0 -5 5 -10 11 -10 5 0 7 5 4 10 -3 6 -8 10 -11 10 -2 0 -4
-4 -4 -10z" />
    <path d="M454 708 l-7 -11 11 7 c12 7 16 16 8 16 -3 0 -8 -5 -12 -12z" />
    <path d="M485 700 c3 -5 8 -10 11 -10 2 0 4 5 4 10 0 6 -5 10 -11 10 -5 0 -7
-4 -4 -10z" />
    <path d="M630 684 l0 -25 10 6 c6 3 10 15 10 26 0 10 -4 19 -10 19 -5 0 -10
-12 -10 -26z" />
    <path d="M380 680 c0 -5 5 -10 10 -10 6 0 10 5 10 10 0 6 -4 10 -10 10 -5 0
-10 -4 -10 -10z" />
    <path d="M455 670 c2 -14 5 -38 6 -55 l0 -30 8 20 c9 23 8 30 -8 65 l-12 25 6
-25z" />
    <path d="M601 664 l1 -19 5 13 c3 7 2 16 -1 19 -3 4 -6 -2 -5 -13z" />
    <path d="M410 655 c0 -8 4 -15 10 -15 5 0 7 7 4 15 -4 8 -8 15 -10 15 -2 0 -4
-7 -4 -15z" />
    <path d="M490 646 c0 -8 5 -18 10 -21 6 -3 10 1 10 9 0 8 -4 18 -10 21 -5 3
-10 -1 -10 -9z" />
    <path d="M580 620 l-15 -10 12 0 c6 0 15 5 18 10 8 12 4 12 -15 0z" />
    <path d="M540 580 c0 -7 3 -10 7 -7 3 4 3 10 0 14 -4 3 -7 0 -7 -7z" />
    <path d="M490 550 c0 -7 3 -10 7 -7 3 4 3 10 0 14 -4 3 -7 0 -7 -7z" />
    <path d="M260 490 c0 -7 3 -10 7 -7 3 4 3 10 0 14 -4 3 -7 0 -7 -7z" />
    <path d="M298 453 c7 -3 16 -2 19 1 4 3 -2 6 -13 5 l-19 -1 13 -5z" />
    <path d="M723 453 c4 -3 10 -3 14 0 3 4 0 7 -7 7 -7 0 -10 -3 -7 -7z" />
    <path d="M510 329 c0 -5 5 -7 10 -4 6 3 10 8 10 11 0 2 -4 4 -10 4 -5 0 -10
-5 -10 -11z" />
    <path d="M453 283 c4 -3 10 -3 14 0 3 4 0 7 -7 7 -7 0 -10 -3 -7 -7z" />
    <path d="M543 283 c4 -3 10 -3 14 0 3 4 0 7 -7 7 -7 0 -10 -3 -7 -7z" />
  </g>
  <g transform="translate(0.000000,100.000000) scale(0.100000,-0.100000)" fill="#b06c2f" stroke="none">
    <path d="M530 736 c0 -8 5 -18 10 -21 l10 -6 0 20 c0 12 -4 21 -10 21 -5 0
-10 -6 -10 -14z" />
    <path d="M329 723 l-14 -18 18 14 c9 7 17 15 17 17 0 8 -8 3 -21 -13z" />
    <path d="M570 733 c0 -5 5 -15 10 -23 l10 -15 0 23 c0 12 -4 22 -10 22 -5 0
-10 -3 -10 -7z" />
    <path d="M410 710 c0 -7 3 -10 7 -7 3 4 3 10 0 14 -4 3 -7 0 -7 -7z" />
    <path d="M632 690 c0 -14 2 -19 5 -12 2 6 2 18 0 25 -3 6 -5 1 -5 -13z" />
    <path d="M496 687 c3 -10 9 -15 12 -12 3 3 0 11 -7 18 l-12 12 7 -18z" />
    <path d="M383 673 c4 -3 10 -3 14 0 3 4 0 7 -7 7 -7 0 -10 -3 -7 -7z" />
    <path d="M575 670 c3 -5 8 -10 11 -10 2 0 4 5 4 10 0 6 -5 10 -11 10 -5 0 -7
-4 -4 -10z" />
    <path d="M500 640 c0 -7 3 -10 7 -7 3 4 3 10 0 14 -4 3 -7 0 -7 -7z" />
    <path d="M460 620 c0 -7 3 -10 7 -7 3 4 3 10 0 14 -4 3 -7 0 -7 -7z" />
    <path d="M490 520 c0 -5 5 -10 10 -10 6 0 10 5 10 10 0 6 -4 10 -10 10 -5 0
-10 -4 -10 -10z" />
    <path d="M513 333 c4 -3 10 -3 14 0 3 4 0 7 -7 7 -7 0 -10 -3 -7 -7z" />
    <path d="M575 280 c4 -6 11 -8 16 -5 14 9 11 15 -7 15 l-15 0 6 -10z" />
  </g>
</svg>