<svg width="100.000000pt" height="100.000000pt" viewBox="0 0 100.000000 100.000000" xmlns="http://www.w3.org/2000/svg">
  <g transform="translate(0.000000,100.000000) scale(0.100000,-0.100000)" fill="#fefefe" stroke="none">
    <path d="M0 500 l0 -500 500 0 500 0 0 500 0 500 -500 0 -500 0 0 -500z m534
350 l26 -10 0 -20 c0 -11 5 -20 11 -20 22 0 87 -55 97 -84 l12 -30 -15 -23
c-9 -13 -24 -23 -35 -23 l-20 0 0 -16 c0 -9 -12 -25 -26 -36 l-26 -21 5 -18 5
-18 -14 6 c-7 2 -21 0 -31 -5 l-18 -10 -27 16 -28 16 0 23 0 23 -15 0 c-9 0
-18 7 -22 16 -3 8 -16 20 -29 25 -14 5 -29 20 -35 33 l-11 24 38 46 c21 25 44
46 51 46 7 0 13 9 13 20 l0 20 14 0 c7 0 19 7 26 15 15 18 20 18 54 5z m-294
-432 c-6 -69 -14 -88 -36 -88 -17 0 -19 21 -3 37 6 6 9 23 7 39 l-3 29 -21 3
-21 3 -5 -52 c-3 -29 -3 -60 -1 -70 l5 -19 39 0 c21 0 41 -4 44 -10 l6 -10
-90 0 c-49 0 -92 4 -96 9 l-5 10 27 3 28 3 0 65 0 65 -22 3 c-13 2 -23 8 -23
13 0 10 23 12 106 9 l52 -1 7 10 c3 6 7 11 8 11 1 0 0 -28 -3 -62z m223 30
l17 -9 0 -34 0 -35 -12 -1 c-7 -1 -22 -2 -33 -3 l-20 -1 -3 -30 c-4 -28 -42
-90 -42 -66 0 6 -8 11 -17 11 l-17 0 22 16 c12 8 22 23 22 34 l0 18 -31 11
c-18 6 -41 11 -52 11 l-19 0 6 23 c3 12 6 30 6 40 l0 17 35 0 35 0 0 11 0 11
43 -7 c23 -4 50 -11 60 -17z m116 11 l18 -12 31 11 31 11 26 -12 26 -12 -6
-47 c-3 -27 -2 -48 3 -48 4 0 6 -16 4 -36 l-4 -37 -67 5 c-37 3 -76 2 -88 -3
l-21 -8 -6 43 c-4 23 -4 51 0 60 l7 18 -12 7 -11 7 20 24 c11 13 20 27 20 32
0 11 7 10 29 -3z m335 0 l39 -11 -11 -7 c-6 -3 -11 -22 -11 -41 1 -19 -2 -50
-6 -67 l-7 -33 11 0 c6 0 11 -4 11 -8 0 -4 -16 -6 -35 -4 l-35 4 0 -11 c0 -6
-9 -11 -20 -11 l-20 0 0 -14 c0 -16 34 -31 50 -21 10 6 60 -38 60 -53 0 -13
-63 -24 -94 -16 l-26 6 0 -9 0 -9 -96 2 -97 3 -8 13 -8 13 -20 -12 -19 -12 -5
32 c-6 38 2 56 15 33 12 -21 27 -20 44 2 l13 17 1 -15 0 -16 79 -2 78 -2 7 32
6 32 -12 8 c-7 4 -21 8 -31 8 l-18 0 11 20 11 20 -8 33 c-5 17 -7 44 -5 58 l3
26 42 10 c58 14 66 14 111 2z m-722 -230 l4 -11 65 0 c36 0 75 5 87 11 l22 12
6 -15 6 -15 66 2 67 2 3 -24 c2 -12 1 -34 -2 -47 l-6 -24 -20 0 c-11 0 -20 5
-20 10 0 6 -11 16 -25 22 l-25 11 0 19 0 18 -15 0 -15 0 0 -21 0 -22 -49 7
-49 6 -4 -12 -5 -13 -17 14 -17 14 -25 -12 -25 -11 -12 7 c-7 5 -37 8 -67 8
l-55 0 -3 32 -3 32 28 4 c15 2 45 5 65 6 l36 1 4 -11z" />
    <path d="M520 745 l0 -15 20 0 20 0 0 15 0 15 -20 0 -20 0 0 -15z" />
    <path d="M590 735 c0 -8 7 -15 15 -15 8 0 15 7 15 15 0 8 -7 15 -15 15 -8 0
-15 -7 -15 -15z" />
    <path d="M540 625 c0 -8 7 -15 15 -15 8 0 15 7 15 15 0 8 -7 15 -15 15 -8 0
-15 -7 -15 -15z" />
    <path d="M350 415 l0 -15 35 0 35 0 0 15 0 15 -35 0 -35 0 0 -15z" />
  </g>
  <g transform="translate(0.000000,100.000000) scale(0.100000,-0.100000)" fill="#f0fdfe" stroke="none">
    <path d="M525 900 c3 -5 8 -10 11 -10 3 0 2 5 -1 10 -3 6 -8 10 -11 10 -3 0
-2 -4 1 -10z" />
    <path d="M500 882 c0 -7 -4 -11 -9 -8 -5 3 -11 -1 -15 -9 l-5 -15 12 0 c7 0
17 4 24 8 l12 8 -9 14 -10 15 0 -13z" />
    <path d="M545 841 l6 -21 -15 0 -16 0 0 -19 0 -19 36 0 c20 0 41 -5 47 -11
l11 -11 -53 0 -52 0 3 -17 3 -18 40 -5 40 -5 3 -51 3 -51 -16 -13 -15 -12 0
51 0 51 -25 0 c-14 0 -25 -2 -25 -5 0 -21 25 -111 32 -116 5 -3 -3 -14 -18
-23 l-26 -18 -24 13 c-29 15 -31 29 -4 29 l20 0 0 15 0 15 -28 0 -27 0 -12
-19 -11 -18 27 -24 c29 -26 35 -29 52 -29 l11 0 -5 -14 -6 -15 19 -6 19 -6 -6
-15 c-3 -7 -13 -14 -22 -14 -19 1 -53 25 -45 32 2 3 -9 4 -25 2 l-30 -4 -7 12
-7 11 13 -8 13 -8 -7 12 c-4 6 -12 8 -18 5 -6 -4 -20 -8 -32 -8 l-21 -2 3 -13
3 -14 -24 16 -24 15 -14 -9 c-8 -5 -10 -9 -5 -9 4 0 1 -12 -9 -26 -9 -15 -12
-23 -6 -20 6 4 11 2 11 -3 0 -6 -4 -11 -9 -11 l-10 0 9 -31 c11 -39 19 -47 29
-31 l7 12 32 -11 c18 -6 32 -15 32 -20 0 -5 -9 -14 -20 -21 -23 -15 -27 -38
-5 -38 20 0 19 -17 -2 -29 -28 -14 -34 -14 -50 6 l-15 18 6 -18 5 -17 -12 -1
c-11 -1 -39 1 -62 4 -5 1 -13 6 -17 12 -8 11 -98 15 -98 4 0 -5 -13 -6 -28 -4
l-29 3 4 -41 4 -42 26 -22 c28 -25 38 -29 28 -13 -3 6 -3 15 0 20 l6 10 21
-11 21 -11 7 12 8 12 6 -11 c4 -6 22 -10 41 -8 l33 2 -5 10 c-3 6 0 4 8 -2 7
-7 21 -13 30 -13 10 0 19 6 22 13 l4 12 22 -19 21 -19 0 13 0 12 15 -12 15
-12 0 12 0 12 17 -13 17 -14 -7 18 -6 17 28 -15 c16 -8 31 -21 34 -28 l5 -15
26 5 c14 3 26 10 26 15 0 5 3 7 8 5 4 -3 7 16 7 41 l0 47 -17 19 c-10 11 -18
24 -18 30 0 5 -3 6 -6 3 -4 -4 -1 -14 7 -23 l14 -17 -28 5 c-15 3 -30 1 -33
-3 l-5 -9 -28 15 c-16 8 -32 11 -37 7 -4 -4 -1 4 8 18 9 14 21 24 26 23 l10
-2 -6 21 -5 21 12 -8 13 -7 -11 21 c-7 11 -10 21 -9 22 2 0 16 2 31 3 l29 2 9
17 c6 9 15 17 21 17 l12 0 -11 -11 -11 -11 8 -31 c4 -18 6 -43 5 -55 l-2 -24
24 5 c29 5 38 -6 18 -23 l-15 -12 11 -20 11 -20 -11 6 c-6 4 -11 3 -11 -3 0
-5 5 -13 10 -16 6 -4 8 -10 5 -15 -11 -17 17 -22 34 -6 l19 17 6 -17 6 -16 16
6 c9 4 23 1 31 -5 l14 -12 11 11 c7 7 20 12 31 12 l18 0 -6 -10 -6 -10 15 6
16 6 0 -12 0 -13 18 15 c9 9 23 13 31 10 16 -6 31 15 31 46 l0 22 -17 1 -18 0
20 8 c11 5 26 6 34 3 7 -3 16 0 20 5 l6 11 13 -14 13 -14 -11 0 c-12 0 -14
-57 -1 -64 5 -3 12 2 15 11 l7 17 8 -13 9 -13 8 13 c10 17 17 55 8 47 -3 -4
-19 7 -35 24 l-29 31 -13 -11 -13 -11 -14 11 -15 10 18 -6 18 -6 6 15 5 16 36
-3 35 -3 2 17 3 18 -14 0 c-8 0 -14 7 -14 16 l0 15 12 -7 11 -7 -7 11 c-4 6
-2 21 4 33 l12 21 -11 11 c-6 6 -11 16 -11 22 0 5 5 3 10 -5 l10 -15 0 27 0
27 -42 11 c-24 6 -49 13 -57 16 -7 2 -20 -1 -27 -7 l-14 -12 -68 -1 -67 -1 1
17 c2 19 -14 19 -34 0 l-14 -13 -20 7 -21 6 7 -11 c4 -6 3 -11 -3 -11 -5 0
-16 13 -24 30 l-15 30 9 6 c6 3 8 12 5 19 -5 14 16 38 27 30 4 -3 5 -2 2 1 -2
4 3 13 11 21 8 8 11 19 8 24 l-6 10 17 -3 17 -3 21 28 21 27 -14 38 c-7 20
-21 43 -32 50 -10 7 -16 18 -13 23 l6 9 -14 -6 c-8 -3 -18 0 -23 7 l-7 12 13
-8 13 -8 -6 11 c-4 5 -16 8 -26 5 l-19 -5 -4 23 c-2 12 -9 24 -17 27 l-13 4 7
-21z m2 -98 c-4 -3 -10 -3 -14 0 -3 4 0 7 7 7 7 0 10 -3 7 -7z m112 -27 l13
-23 -11 -22 c-19 -34 -31 -24 -31 24 0 25 4 45 8 45 5 0 14 -11 21 -24z m-114
-196 c-3 -6 1 -13 9 -16 9 -3 16 -11 16 -16 l0 -10 -15 12 -15 12 0 -11 c0 -6
-4 -11 -10 -11 -14 0 -12 37 3 43 18 8 19 8 12 -3z m-230 -50 c3 -5 1 -10 -4
-10 -6 0 -11 5 -11 10 0 6 2 10 4 10 3 0 8 -4 11 -10z m121 -20 l32 0 5 -32
c2 -18 3 -35 1 -37 -1 -2 -18 -6 -36 -10 l-33 -7 -3 -42 -3 -42 -26 0 -27 0
18 13 18 13 -4 29 -3 29 -40 11 -40 10 3 33 3 32 34 0 c19 0 37 5 41 11 l6 11
11 -11 c6 -6 25 -11 43 -11z m471 3 l21 -5 4 -35 c2 -19 1 -36 -3 -38 -4 -3
-10 -21 -13 -40 l-7 -35 -17 0 c-10 0 -24 -6 -30 -12 l-13 -13 -8 13 -8 13
-38 -7 -38 -7 6 17 c4 10 7 47 7 82 l0 64 28 0 c15 0 34 5 42 10 8 5 22 7 30
4 8 -4 25 -9 37 -11z m-206 -10 l10 -10 -10 -26 c-6 -15 -8 -40 -5 -57 l7 -30
-12 0 c-6 0 -11 -7 -11 -15 0 -8 -5 -15 -11 -15 -6 0 -9 -6 -6 -12 l4 -13 24
4 c27 3 40 18 32 37 -2 7 0 22 7 33 l11 21 -16 0 c-8 0 -15 5 -15 11 l0 10 12
-7 11 -7 -5 21 -6 22 11 0 12 0 -13 8 -13 9 7 16 c10 26 25 9 19 -22 -2 -15
-1 -42 5 -59 l9 -32 -11 6 -11 7 6 -16 c3 -10 3 -17 -2 -17 -9 0 -11 -29 -2
-31 3 -1 16 -3 29 -4 29 -3 33 -7 22 -24 l-8 -14 -17 16 c-9 10 -19 17 -22 17
-4 0 -3 -3 0 -7 4 -3 2 -12 -5 -20 l-11 -13 16 5 c8 4 18 2 21 -3 l5 -9 -40 2
c-23 1 -45 8 -49 15 l-8 12 -12 -18 -12 -19 6 18 5 17 -13 0 c-8 0 -21 -3 -30
-6 l-16 -6 7 -12 6 -11 -12 11 c-6 6 -13 20 -16 32 l-4 21 15 -6 c8 -3 14 -9
14 -15 0 -5 7 -3 15 6 8 8 15 18 15 22 0 3 -22 4 -50 0 l-50 -7 0 41 c0 23 -4
50 -10 60 l-10 19 16 28 16 28 70 -2 c39 0 74 -5 79 -10z m-198 -28 c-3 -9 -8
-14 -10 -11 -3 3 -2 9 2 15 9 16 15 13 8 -4z m-313 -190 c0 -8 -7 -15 -15 -15
l-15 0 -6 -26 -7 -26 -7 12 -8 13 -26 -7 -26 -6 0 15 c0 8 7 15 15 15 8 0 15
7 15 15 l0 15 24 -6 24 -6 6 11 c10 16 26 13 26 -4z m387 -42 c-3 -10 -5 -2
-5 17 0 19 2 27 5 18 2 -10 2 -26 0 -35z m125 22 l60 3 27 -14 26 -14 -17 0
c-10 0 -18 -4 -18 -10 l0 -9 -72 5 -71 4 -12 17 -12 17 11 12 11 12 3 -13 3
-13 61 3z m-312 -16 l0 -19 -30 0 -30 0 0 19 0 20 18 3 c26 6 42 -2 42 -23z
m-122 15 c25 -7 31 -34 7 -34 -8 0 -15 5 -15 10 0 6 -9 10 -20 10 -11 0 -20
-4 -20 -10 0 -5 -7 -10 -15 -10 -21 0 -19 28 3 33 26 7 35 7 60 1z m202 -14
l0 -20 -20 0 -20 0 0 14 c0 8 8 17 18 19 9 3 18 5 20 6 1 0 2 -8 2 -19z m40
-15 l0 -35 -15 0 c-8 0 -15 5 -15 10 0 6 5 10 10 10 6 0 10 11 10 25 0 14 2
25 5 25 3 0 5 -16 5 -35z" />
    <path d="M327 434 c-4 -4 -7 -16 -7 -26 l0 -18 66 0 65 0 -3 23 -3 22 -55 3
c-31 2 -59 0 -63 -4z m76 -21 c-7 -2 -21 -2 -30 0 l-18 5 30 0 c17 0 24 -2 18
-5z" />
    <path d="M550 425 c0 -8 7 -15 15 -15 8 0 15 7 15 15 0 8 -7 15 -15 15 -8 0
-15 -7 -15 -15z" />
    <path d="M693 253 c4 -3 10 -3 14 0 3 4 0 7 -7 7 -7 0 -10 -3 -7 -7z" />
    <path d="M410 823 l0 -12 -17 5 -18 6 15 -11 15 -10 -12 -12 -12 -12 -7 16
c-9 24 -29 21 -31 -5 l-2 -23 8 13 8 13 12 -15 12 -14 -12 -8 -12 -7 8 14 8
14 -9 -8 c-5 -5 -9 -12 -9 -15 0 -15 -17 -32 -26 -26 l-10 6 5 -24 c8 -47 11
-53 29 -66 l17 -13 -7 -12 -7 -12 17 14 17 13 11 -26 c13 -27 35 -25 23 3 -4
9 -6 44 -5 79 l2 62 -17 0 -16 0 12 15 c7 8 19 15 26 15 l14 0 1 -52 c1 -29 1
-61 0 -70 l-2 -18 20 0 21 0 0 86 0 85 -14 14 c-17 17 -56 16 -56 -2z m17 -20
c-4 -3 -7 0 -7 7 0 7 3 10 7 7 3 -4 3 -10 0 -14z m-45 -108 c-2 -25 -7 -45
-11 -45 -12 0 -28 43 -23 62 2 9 11 19 20 21 9 3 17 5 17 6 0 0 -1 -19 -3 -44z" />
    <path d="M580 830 c0 -7 3 -10 7 -7 3 4 3 10 0 14 -4 3 -7 0 -7 -7z" />
    <path d="M346 536 c3 -9 11 -16 16 -16 13 0 5 23 -10 28 l-12 4 6 -16z" />
    <path d="M595 500 c3 -5 8 -10 11 -10 3 0 2 5 -1 10 -3 6 -8 10 -11 10 -3 0
-2 -4 1 -10z" />
    <path d="M56 468 c2 -3 -1 -8 -8 -10 l-13 -5 17 -16 c21 -21 28 -21 28 -2 l0
15 85 0 85 0 0 13 0 12 -99 0 c-55 0 -97 -3 -95 -7z" />
    <path d="M500 460 c0 -7 3 -10 7 -7 3 4 3 10 0 14 -4 3 -7 0 -7 -7z" />
    <path d="M99 426 l13 -16 -4 -55 -5 -55 14 0 14 0 -3 67 -3 68 -20 4 -19 3 13
-16z" />
    <path d="M150 371 l0 -69 13 -5 c6 -3 -7 -6 -30 -6 l-43 -1 -1 13 c-1 6 -1 16
0 20 1 4 -9 2 -21 -5 -13 -7 -26 -12 -29 -11 -3 1 -6 -4 -6 -12 0 -8 5 -13 11
-12 6 1 10 -2 9 -8 l-1 -10 108 0 c60 0 107 2 105 4 -3 2 0 12 6 22 l10 19
-10 0 c-5 0 -13 -4 -16 -10 -3 -5 -18 -10 -33 -9 l-27 1 20 6 c11 4 21 16 23
27 2 11 6 35 9 53 l5 32 -11 0 -11 0 0 -29 0 -29 -16 -6 c-26 -10 -28 -7 -10
13 l17 19 -3 29 -3 28 -32 3 -33 3 0 -70z m48 32 c2 -11 -4 -26 -13 -33 l-15
-12 0 37 0 37 13 -4 c6 -3 13 -14 15 -25z m2 -86 l15 -5 -21 -1 -22 -1 -5 23
-6 22 12 -16 c7 -9 19 -18 27 -22z" />
    <path d="M45 360 c3 -5 8 -10 11 -10 3 0 2 5 -1 10 -3 6 -8 10 -11 10 -3 0 -2
-4 1 -10z" />
    <path d="M0 310 c0 -7 3 -10 7 -7 3 4 3 10 0 14 -4 3 -7 0 -7 -7z" />
    <path d="M10 260 c0 -5 5 -10 11 -10 5 0 7 5 4 10 -3 6 -8 10 -11 10 -2 0 -4
-4 -4 -10z" />
    <path d="M544 248 l-7 -11 11 7 c12 7 16 16 8 16 -3 0 -8 -5 -12 -12z" />
    <path d="M255 240 c3 -5 8 -10 11 -10 3 0 2 5 -1 10 -3 6 -8 10 -11 10 -3 0
-2 -4 1 -10z" />
    <path d="M840 156 c0 -2 6 -9 13 -15 l14 -11 0 15 c0 8 -6 15 -14 15 -7 0 -13
-2 -13 -4z" />
  </g>
  <g transform="translate(0.000000,100.000000) scale(0.100000,-0.100000)" fill="#fefbf6" stroke="none">
    <path d="M525 890 c-3 -4 2 -11 11 -14 24 -9 36 -7 32 6 -5 13 -36 20 -43 8z" />
    <path d="M404 842 c3 -6 2 -13 -4 -17 -12 -7 -4 -25 11 -25 13 0 11 37 -3 46
l-11 7 7 -11z" />
    <path d="M337 823 c-12 -11 -8 -23 8 -23 l15 0 0 -20 c0 -11 -5 -20 -12 -20
-6 0 -8 -3 -5 -6 4 -4 13 -2 20 4 8 7 18 8 22 4 9 -7 7 -3 -15 41 -14 27 -21
32 -33 20z" />
    <path d="M605 821 c-3 -6 4 -15 15 -21 l22 -12 -12 21 c-12 23 -16 25 -25 12z" />
    <path d="M680 763 c0 -10 5 -25 10 -33 l10 -15 0 27 c0 15 -4 30 -10 33 l-10
6 0 -18z" />
    <path d="M320 726 c0 -8 4 -18 10 -21 l10 -6 -7 17 -6 17 13 -8 13 -8 -7 11
c-10 17 -26 15 -26 -2z" />
    <path d="M760 700 c0 -7 3 -10 7 -7 3 4 3 10 0 14 -4 3 -7 0 -7 -7z" />
    <path d="M700 664 l0 -15 10 6 c6 3 10 10 10 16 0 5 -4 9 -10 9 -5 0 -10 -7
-10 -16z" />
    <path d="M634 633 l7 -13 -12 0 -13 0 11 -11 c6 -6 19 -9 28 -7 l17 3 -23 20
c-12 11 -19 14 -15 8z" />
    <path d="M340 620 c0 -12 28 -25 36 -17 3 3 -4 10 -15 17 l-21 11 0 -11z" />
    <path d="M605 600 c3 -5 8 -10 11 -10 3 0 2 5 -1 10 -3 6 -8 10 -11 10 -3 0
-2 -4 1 -10z" />
    <path d="M414 588 l-7 -11 11 7 c7 4 12 9 12 12 0 8 -9 4 -16 -8z" />
    <path d="M725 579 c-4 -6 -5 -13 -2 -16 7 -7 27 6 27 18 0 12 -17 12 -25 -2z" />
    <path d="M343 565 c-3 -9 -3 -19 1 -22 7 -7 36 16 36 28 0 15 -30 10 -37 -6z" />
    <path d="M603 573 c4 -3 10 -3 14 0 3 4 0 7 -7 7 -7 0 -10 -3 -7 -7z" />
    <path d="M559 555 c-1 -3 -2 -9 -3 -14 0 -5 -4 -13 -8 -17 -5 -4 -8 -14 -8
-23 l1 -16 14 19 14 19 14 -11 13 -11 0 18 c0 11 -8 24 -18 30 -10 6 -19 9
-19 6z" />
    <path d="M390 539 c0 -5 5 -7 10 -4 6 3 10 8 10 11 0 2 -4 4 -10 4 -5 0 -10
-5 -10 -11z" />
    <path d="M790 519 l0 -20 10 6 c5 3 7 12 3 20 -7 21 -13 19 -13 -6z" />
    <path d="M418 509 l-18 -19 20 -10 20 -11 1 13 c0 7 2 21 4 31 4 22 -5 21 -27
-4z" />
    <path d="M680 511 c0 -11 7 -26 15 -34 8 -8 11 -18 7 -22 -4 -5 -1 -5 6 -1
l13 8 -16 18 c-9 10 -14 23 -11 29 4 5 2 12 -4 16 l-10 6 0 -20z" />
    <path d="M30 510 c0 -5 7 -10 15 -10 8 0 15 5 15 10 0 6 -7 10 -15 10 -8 0
-15 -4 -15 -10z" />
    <path d="M120 510 c0 -5 5 -10 10 -10 6 0 10 5 10 10 0 6 -4 10 -10 10 -5 0
-10 -4 -10 -10z" />
    <path d="M255 510 c3 -5 10 -10 16 -10 5 0 9 5 9 10 0 6 -7 10 -16 10 l-15 0
6 -10z" />
    <path d="M902 503 c2 -9 8 -18 15 -20 l11 -4 -5 20 c-6 25 -26 28 -21 4z" />
    <path d="M347 503 c-12 -11 -8 -31 8 -36 8 -4 16 -3 19 1 6 10 -20 43 -27 35z" />
    <path d="M820 500 c0 -7 3 -10 7 -7 3 4 3 10 0 14 -4 3 -7 0 -7 -7z" />
    <path d="M230 485 l-12 -15 11 0 c7 0 9 -4 6 -10 -3 -5 -1 -10 5 -10 15 0 25
29 13 41 l-10 10 -13 -16z" />
    <path d="M300 491 c0 -6 5 -13 10 -16 l10 -6 0 15 c0 9 -4 16 -10 16 -5 0 -10
-4 -10 -9z" />
    <path d="M616 485 c-11 -8 -15 -15 -9 -15 6 0 16 7 23 15 16 19 11 19 -14 0z" />
    <path d="M751 484 l1 -19 5 13 c3 7 2 16 -1 19 -3 4 -6 -2 -5 -13z" />
    <path d="M118 473 c7 -3 16 -2 19 1 4 3 -2 6 -13 5 l-19 -1 13 -5z" />
    <path d="M468 473 c7 -3 16 -2 19 1 4 3 -2 6 -13 5 l-19 -1 13 -5z" />
    <path d="M0 450 c0 -5 7 -10 15 -10 8 0 15 5 15 10 0 6 -7 10 -15 10 -8 0 -15
-4 -15 -10z" />
    <path d="M947 429 l7 -23 4 13 c2 7 -1 18 -6 23 l-11 11 6 -24z" />
    <path d="M65 430 c-3 -5 -2 -10 4 -10 5 0 13 5 16 10 3 6 2 10 -4 10 -5 0 -13
-4 -16 -10z" />
    <path d="M490 429 c0 -5 5 -7 10 -4 6 3 10 8 10 11 0 2 -4 4 -10 4 -5 0 -10
-5 -10 -11z" />
    <path d="M735 421 c2 -11 0 -21 -6 -21 -5 0 -9 -7 -9 -15 l0 -14 15 5 15 6 -3
24 c-1 13 -6 26 -10 30 -3 4 -5 -3 -2 -15z" />
    <path d="M260 418 c0 -9 7 -19 16 -22 l17 -6 -14 17 c-7 10 -15 20 -16 22 -2
2 -3 -3 -3 -11z" />
    <path d="M0 390 c0 -5 7 -10 15 -10 8 0 15 5 15 10 0 6 -7 10 -15 10 -8 0 -15
-4 -15 -10z" />
    <path d="M180 390 c0 -7 3 -10 7 -7 3 4 3 10 0 14 -4 3 -7 0 -7 -7z" />
    <path d="M14 347 c1 -7 7 -21 14 -32 l11 -20 1 26 0 27 -14 5 -14 6 2 -12z" />
    <path d="M254 316 l1 -23 15 1 c8 1 14 -5 12 -12 l-2 -13 10 6 c5 3 10 15 10
26 l0 20 -10 -6 c-5 -3 -10 -2 -10 3 0 6 -6 12 -14 15 l-14 6 2 -23z" />
    <path d="M740 331 c0 -6 4 -13 10 -16 l10 -6 -6 15 c-7 18 -14 21 -14 7z" />
    <path d="M940 330 c0 -5 5 -10 11 -10 5 0 7 5 4 10 -3 6 -8 10 -11 10 -2 0 -4
-4 -4 -10z" />
    <path d="M443 323 c-20 -7 -15 -23 7 -23 11 0 20 4 20 9 0 13 -12 19 -27 14z" />
    <path d="M70 310 c17 -11 57 -14 47 -3 -4 3 -19 8 -34 9 l-28 3 15 -9z" />
    <path d="M500 289 c0 -5 5 -7 10 -4 6 3 10 8 10 11 0 2 -4 4 -10 4 -5 0 -10
-5 -10 -11z" />
    <path d="M331 276 l-12 -15 19 -10 19 -10 -2 19 c-2 28 -10 33 -24 16z" />
    <path d="M575 270 c3 -5 8 -10 11 -10 3 0 2 5 -1 10 -3 6 -8 10 -11 10 -3 0
-2 -4 1 -10z" />
    <path d="M666 268 c3 -5 10 -6 15 -3 13 9 11 12 -6 12 -8 0 -12 -4 -9 -9z" />
    <path d="M25 260 l-20 -8 15 -5 c8 -3 22 -5 32 -4 l16 0 -5 14 c-6 15 -10 15
-38 3z" />
    <path d="M202 258 c-7 -7 -12 -16 -12 -22 0 -5 3 -6 7 -3 3 4 13 1 21 -6 l16
-12 -7 12 c-4 6 -2 13 4 15 l11 4 -14 12 -14 12 -12 -12z" />
    <path d="M768 264 c-14 -14 -8 -32 12 -37 11 -3 20 -1 20 4 0 5 -4 9 -9 9 -5
0 -11 7 -13 16 -2 9 -6 12 -10 8z" />
    <path d="M105 250 c3 -5 8 -10 11 -10 3 0 2 5 -1 10 -3 6 -8 10 -11 10 -3 0
-2 -4 1 -10z" />
    <path d="M403 253 c-19 -7 -16 -20 7 -26 10 -3 19 -2 18 2 -2 18 4 21 25 11
l22 -11 -19 15 c-20 16 -32 18 -53 9z" />
    <path d="M540 250 l-15 -9 22 2 c12 0 19 5 17 9 -6 10 -6 10 -24 -2z" />
    <path d="M615 250 c3 -5 8 -10 11 -10 3 0 2 5 -1 10 -3 6 -8 10 -11 10 -3 0
-2 -4 1 -10z" />
    <path d="M505 240 c3 -5 8 -10 11 -10 3 0 2 5 -1 10 -3 6 -8 10 -11 10 -3 0
-2 -4 1 -10z" />
    <path d="M263 226 c0 -7 6 -13 14 -13 17 0 17 13 0 20 l-14 5 0 -12z" />
    <path d="M723 233 c4 -3 10 -3 14 0 3 4 0 7 -7 7 -7 0 -10 -3 -7 -7z" />
    <path d="M20 185 l1 -30 10 18 11 19 -11 11 -11 11 0 -29z" />
    <path d="M950 200 c0 -7 3 -10 7 -7 3 4 3 10 0 14 -4 3 -7 0 -7 -7z" />
    <path d="M540 190 c0 -7 3 -10 7 -7 3 4 3 10 0 14 -4 3 -7 0 -7 -7z" />
    <path d="M415 161 c-3 -6 -10 -9 -14 -7 -3 3 -7 -4 -7 -15 l0 -19 20 20 c11
11 17 22 14 25 -3 4 -9 1 -13 -4z" />
    <path d="M337 143 c3 -7 6 -13 8 -13 2 0 5 6 8 13 l5 14 -13 0 -13 0 5 -14z" />
    <path d="M810 156 c0 -2 8 -10 18 -17 l17 -14 -14 18 c-13 16 -21 21 -21 13z" />
    <path d="M895 150 c3 -5 8 -10 11 -10 3 0 2 5 -1 10 -3 6 -8 10 -11 10 -3 0
-2 -4 1 -10z" />
    <path d="M937 144 c3 -7 9 -14 14 -14 14 0 10 17 -5 23 l-15 6 6 -15z" />
    <path d="M27 143 c-11 -10 -8 -63 3 -63 6 0 10 16 10 35 0 36 -2 40 -13 28z" />
    <path d="M106 131 c-4 -5 -2 -12 3 -15 5 -4 12 -2 15 3 4 5 2 12 -3 15 -5 4
-12 2 -15 -3z" />
    <path d="M705 131 c-3 -5 -2 -12 3 -15 5 -3 9 1 9 9 0 17 -3 19 -12 6z" />
    <path d="M185 100 c3 -5 8 -10 11 -10 2 0 4 5 4 10 0 6 -5 10 -11 10 -5 0 -7
-4 -4 -10z" />
    <path d="M280 100 c0 -5 5 -10 10 -10 6 0 10 5 10 10 0 6 -4 10 -10 10 -5 0
-10 -4 -10 -10z" />
    <path d="M330 90 c0 -7 3 -10 7 -7 3 4 3 10 0 14 -4 3 -7 0 -7 -7z" />
    <path d="M840 90 c0 -5 5 -10 10 -10 6 0 10 5 10 10 0 6 -4 10 -10 10 -5 0
-10 -4 -10 -10z" />
    <path d="M920 90 c0 -5 5 -10 10 -10 6 0 10 5 10 10 0 6 -4 10 -10 10 -5 0
-10 -4 -10 -10z" />
    <path d="M883 83 c4 -3 10 -3 14 0 3 4 0 7 -7 7 -7 0 -10 -3 -7 -7z" />
  </g>
  <g transform="translate(0.000000,100.000000) scale(0.100000,-0.100000)" fill="#e1fcfe" stroke="none">
    <path d="M510 862 c0 -11 41 -34 48 -27 4 4 -2 13 -12 21 -22 15 -36 18 -36 6z" />
    <path d="M456 838 c-9 -12 -13 -24 -11 -27 6 -5 45 29 45 41 0 15 -19 8 -34
-14z" />
    <path d="M502 803 l3 -18 49 -3 48 -3 -6 9 c-3 6 -20 9 -36 8 l-31 -2 5 13 5
13 -20 0 -20 0 3 -17z" />
    <path d="M392 778 c-7 -7 -12 -26 -12 -42 l1 -31 13 17 c7 10 16 15 19 11 4
-3 7 1 7 10 0 8 -6 18 -12 20 l-13 5 13 1 c6 1 12 6 12 11 0 14 -13 13 -28 -2z" />
    <path d="M440 750 l0 -24 12 12 12 12 -12 12 -12 12 0 -24z" />
    <path d="M502 743 c2 -10 12 -19 23 -22 l19 -3 -12 14 c-6 8 -9 18 -5 21 3 4
-1 7 -11 7 l-17 0 3 -17z" />
    <path d="M574 740 c0 -11 4 -20 8 -20 4 0 8 -25 8 -55 l0 -55 11 0 11 0 -6 63
c-3 34 -6 68 -7 75 -4 20 -25 14 -25 -8z" />
    <path d="M640 740 c0 -5 5 -10 10 -10 14 0 13 -53 -2 -68 -6 -6 -8 -15 -4 -19
11 -11 36 26 36 51 -1 21 -22 56 -34 56 -3 0 -6 -4 -6 -10z" />
    <path d="M340 721 c-5 -11 -10 -24 -10 -30 0 -17 17 -13 24 7 3 9 9 23 12 30
9 20 -14 14 -26 -7z" />
    <path d="M440 668 l0 -38 20 0 20 0 0 27 c0 14 -3 23 -7 20 -3 -4 -12 1 -19
11 l-13 17 -1 -37z m27 -15 c-4 -3 -10 -3 -14 0 -3 4 0 7 7 7 7 0 10 -3 7 -7z" />
    <path d="M500 680 l0 -20 21 0 20 0 -7 12 -7 11 21 -5 22 -6 0 14 0 14 -35 0
-35 0 0 -20z" />
    <path d="M407 662 c-5 -7 -13 -10 -18 -7 -5 4 -9 -1 -9 -10 0 -9 4 -14 9 -11
4 3 13 -6 19 -19 7 -14 16 -25 21 -25 5 0 12 -11 15 -25 4 -14 11 -25 16 -25
13 0 13 7 0 31 l-11 19 21 0 21 0 -6 -10 -6 -10 15 0 c9 0 16 6 16 14 0 14
-29 26 -67 26 l-22 0 -3 33 -3 32 -8 -13z" />
    <path d="M350 650 c0 -5 5 -10 10 -10 6 0 10 5 10 10 0 6 -4 10 -10 10 -5 0
-10 -4 -10 -10z" />
    <path d="M560 635 c0 -8 5 -15 10 -15 6 0 10 7 10 15 0 8 -4 15 -10 15 -5 0
-10 -7 -10 -15z" />
    <path d="M530 601 c0 -17 4 -31 10 -31 5 0 7 -7 4 -15 -4 -8 -1 -15 4 -15 17
0 25 21 13 33 -6 6 -11 19 -11 28 0 10 -4 21 -10 24 l-10 6 0 -30z" />
    <path d="M365 470 l-6 -10 26 0 26 0 -6 10 c-3 6 -12 10 -20 10 -8 0 -17 -4
-20 -10z" />
    <path d="M535 446 l-27 -36 11 -30 c5 -17 8 -37 5 -44 -3 -8 0 -17 6 -21 l11
-7 -2 54 c-1 29 3 64 8 77 l10 25 5 -22 6 -22 -9 6 c-5 3 -9 -4 -9 -15 l0 -21
15 0 c8 0 15 5 15 11 l0 10 15 -14 c7 -8 17 -26 21 -41 l6 -26 -11 0 c-6 0
-11 -7 -11 -15 0 -8 -4 -15 -10 -15 -5 0 -10 7 -10 15 0 8 -7 15 -15 15 l-15
0 0 -17 c0 -10 4 -23 8 -28 l7 -10 65 0 c36 0 71 4 78 8 18 12 15 27 -5 21
l-18 -6 17 11 17 11 -8 28 c-4 15 -6 33 -3 41 l5 14 -14 -5 c-7 -2 -21 -29
-30 -59 -9 -30 -18 -47 -19 -39 -1 8 -3 26 -4 40 -2 14 -6 37 -11 53 l-7 27
11 0 c6 0 11 7 11 15 l0 15 -20 0 -20 0 0 -15 c0 -8 -4 -15 -10 -15 -5 0 -10
8 -10 19 0 10 -6 24 -14 30 l-14 12 -27 -35z" />
    <path d="M655 470 c-3 -5 1 -13 10 -16 22 -9 29 1 11 15 l-14 12 -7 -11z" />
    <path d="M824 464 l-19 -15 29 4 c37 6 56 -1 56 -19 0 -8 7 -14 15 -14 8 0 15
-7 15 -15 0 -8 6 -15 13 -15 l12 0 0 30 0 30 -15 0 c-8 0 -24 7 -34 15 -25 19
-47 19 -72 -1z" />
    <path d="M50 451 c0 -6 12 -14 28 -17 15 -4 33 -11 40 -17 l12 -9 0 15 0 15
-24 6 c-13 3 -31 9 -40 12 l-16 6 0 -11z" />
    <path d="M230 409 c0 -62 16 -57 18 6 l2 45 -10 0 -10 0 0 -51z" />
    <path d="M700 441 c0 -12 5 -21 10 -21 6 0 10 6 10 14 0 8 -4 18 -10 21 l-10
6 0 -20z" />
    <path d="M160 440 c0 -5 8 -10 18 -10 10 0 23 -5 30 -12 l12 -12 0 16 0 16
-22 6 c-32 8 -38 7 -38 -4z" />
    <path d="M316 424 c-10 -25 -7 -34 10 -34 l15 0 -6 10 c-4 6 -1 17 5 25 l12
15 -15 0 c-8 0 -18 -7 -21 -16z" />
    <path d="M403 433 c5 -4 14 -8 20 -8 7 0 11 -8 11 -18 l-2 -17 15 0 14 0 -3
23 -3 22 -30 3 -30 4 8 -9z" />
    <path d="M470 402 l0 -22 -35 0 -35 0 0 -21 0 -21 13 10 c6 5 23 12 36 14 13
1 29 11 35 20 l11 17 -13 13 -12 12 0 -22z" />
    <path d="M286 401 c-4 -7 -5 -15 -2 -18 9 -9 19 4 14 18 l-4 13 -8 -13z" />
    <path d="M195 370 l-18 -20 17 0 c9 0 19 7 23 15 9 25 -2 27 -22 5z" />
    <path d="M315 370 c3 -5 14 -10 24 -10 9 0 22 -5 29 -12 l12 -12 0 22 0 22
-36 0 -35 0 6 -10z" />
    <path d="M570 365 c0 -8 7 -15 15 -15 8 0 15 7 15 15 0 8 -7 15 -15 15 -8 0
-15 -7 -15 -15z" />
    <path d="M920 364 l0 -16 15 12 c8 7 15 14 15 16 0 2 -7 4 -15 4 -8 0 -15 -7
-15 -16z" />
    <path d="M140 335 c0 -8 5 -15 10 -15 6 0 10 7 10 15 0 8 -4 15 -10 15 -5 0
-10 -7 -10 -15z" />
    <path d="M757 323 c-12 -19 4 -43 27 -43 29 0 35 7 29 31 -7 24 -33 25 -34 2
l0 -18 -8 19 -8 20 -6 -11z" />
    <path d="M360 305 l-12 -15 16 0 c9 0 16 7 16 15 0 8 -2 15 -4 15 -2 0 -9 -7
-16 -15z" />
    <path d="M71 297 c-6 -8 -8 -16 -5 -19 6 -7 54 14 54 25 0 12 -37 8 -49 -6z" />
    <path d="M160 294 c0 -17 17 -27 25 -14 3 5 22 10 41 10 l35 0 -6 10 c-3 6
-26 9 -51 8 l-44 -1 0 -13z" />
    <path d="M385 289 c-4 -6 -5 -13 -2 -16 7 -7 27 6 27 18 0 12 -17 12 -25 -2z" />
    <path d="M124 226 l6 -26 -15 0 -15 0 0 -20 0 -19 14 5 c8 3 17 1 21 -5 11
-18 22 -12 29 14 l7 26 9 -6 c6 -3 10 -15 10 -26 l0 -19 12 2 c7 2 19 10 25
18 l13 15 13 -15 c6 -8 17 -16 23 -17 l12 -2 4 35 c2 19 0 37 -4 40 -4 3 -8 1
-8 -5 0 -10 -19 -9 -38 3 l-13 8 -14 -12 -15 -12 -6 16 -7 17 -21 -3 c-11 -1
-27 2 -35 6 l-14 9 7 -27z m23 -53 c-4 -3 -7 0 -7 7 0 7 3 10 7 7 3 -4 3 -10
0 -14z" />
    <path d="M560 240 c0 -5 5 -10 10 -10 6 0 10 5 10 10 0 6 -4 10 -10 10 -5 0
-10 -4 -10 -10z" />
    <path d="M620 239 c0 -7 -7 -17 -16 -23 l-15 -12 20 -18 21 -19 0 26 c0 14 5
27 12 29 l12 4 -8 12 c-9 15 -26 16 -26 1z" />
    <path d="M796 241 c-3 -5 -3 -17 1 -27 l6 -17 -11 7 -12 7 0 -10 c0 -6 -9 -11
-20 -11 l-19 0 5 13 5 14 -42 1 -41 2 7 -28 c4 -15 8 -28 10 -30 8 -9 108 -2
135 8 3 1 8 2 13 1 4 0 8 14 8 32 l2 32 6 -40 6 -40 23 -3 22 -3 0 12 0 11 15
-12 15 -12 0 35 0 36 -20 11 -20 11 0 -12 c0 -7 8 -21 18 -32 l17 -20 -17 6
-17 6 -5 -12 c-2 -7 -5 6 -5 27 -1 22 -4 36 -8 33 -3 -4 -13 -1 -21 6 l-15 12
-5 -13 -4 -13 -13 11 -13 11 -6 -10z" />
    <path d="M343 225 c-17 -19 -16 -35 2 -35 l15 0 0 -18 0 -19 15 0 15 0 0 32
c0 28 -15 56 -29 55 -4 -1 -12 -7 -18 -15z" />
    <path d="M417 224 c-8 -8 18 -34 35 -35 7 0 3 -5 -9 -11 -26 -12 -32 -33 -7
-24 9 3 20 6 25 6 5 0 14 10 19 23 l9 22 0 -16 c1 -9 -6 -22 -14 -29 -21 -18
-19 -27 10 -32 26 -5 49 12 26 20 l-12 4 15 12 15 11 -13 17 c-7 10 -26 19
-43 21 -16 2 -34 6 -40 10 -5 3 -13 4 -16 1z" />
    <path d="M60 211 c0 -6 5 -13 10 -16 l10 -6 0 15 c0 9 -4 16 -10 16 -5 0 -10
-4 -10 -9z" />
    <path d="M70 171 c0 -6 5 -13 10 -16 l10 -6 0 15 c0 9 -4 16 -10 16 -5 0 -10
-4 -10 -9z" />
    <path d="M640 170 c0 -5 7 -10 15 -10 8 0 15 5 15 10 0 6 -7 10 -15 10 -8 0
-15 -4 -15 -10z" />
    <path d="M560 160 c0 -5 5 -10 10 -10 6 0 10 5 10 10 0 6 -4 10 -10 10 -5 0
-10 -4 -10 -10z" />
  </g>
  <g transform="translate(0.000000,100.000000) scale(0.100000,-0.100000)" fill="#2069a1" stroke="none">
    <path d="M473 848 c-4 -7 -6 -57 -4 -110 l3 -98 -11 0 -10 0 -3 73 -3 72 -20
0 -20 0 4 -90 c1 -49 4 -91 6 -93 1 -1 18 -5 38 -7 l36 -5 3 23 3 22 23 3 22
3 0 15 0 14 -20 0 c-11 0 -20 5 -20 10 0 6 7 10 15 10 8 0 15 7 15 15 0 8 -7
15 -15 15 l-15 0 0 70 0 70 -9 0 c-6 0 -13 -6 -18 -12z" />
    <path d="M510 851 c0 -21 13 -41 26 -41 15 0 17 10 8 34 -7 17 -34 22 -34 7z" />
    <path d="M515 782 c-3 -3 -5 -11 -5 -19 l0 -13 50 0 50 0 0 18 0 19 -45 0
c-25 0 -47 -3 -50 -5z" />
    <path d="M353 728 c-19 -25 -21 -46 -7 -67 8 -11 22 -21 30 -21 l14 0 0 50 0
50 -14 0 c-7 0 -18 -6 -23 -12z" />
    <path d="M550 716 c0 -8 6 -21 14 -29 l14 -14 -5 -43 -6 -42 19 4 18 3 -1 60
c-1 33 -2 63 -2 68 -1 4 -12 7 -26 7 l-25 0 0 -14z" />
    <path d="M624 716 c-3 -8 -4 -23 -2 -33 l3 -18 23 -3 23 -4 -3 34 -3 33 -18 3
-17 3 -6 -15z" />
    <path d="M500 594 c0 -9 -9 -18 -20 -21 -23 -6 -26 -26 -6 -42 l14 -12 25 6
25 7 0 39 1 39 -20 0 -19 0 0 -16z" />
    <path d="M362 453 l3 -18 23 -3 22 -3 0 20 0 21 -26 0 -25 0 3 -17z" />
    <path d="M641 389 l0 -80 22 3 22 3 -3 38 -4 37 16 0 16 0 0 28 0 27 -27 13
c-15 6 -30 12 -35 12 -4 0 -7 -36 -7 -81z" />
    <path d="M808 463 l-38 -4 -4 -22 c-3 -12 -7 -50 -9 -85 l-3 -63 15 3 16 3 3
38 c2 20 8 37 13 37 l11 0 -7 30 -7 30 17 0 17 0 -7 -30 -7 -30 11 0 c6 0 10
-12 10 -27 l-1 -28 -5 18 c-2 9 -11 17 -19 17 -15 0 -19 -27 -6 -47 4 -7 22
-16 40 -19 l32 -6 0 10 c0 6 7 12 16 14 l16 3 14 40 c7 22 14 43 14 48 0 4
-11 7 -25 7 l-25 0 0 -15 0 -16 -14 13 -14 13 11 3 c12 3 40 52 34 59 -7 6
-64 10 -99 6z m79 -130 c-4 -3 -10 -3 -14 0 -3 4 0 7 7 7 7 0 10 -3 7 -7z" />
    <path d="M100 444 c0 -8 5 -14 10 -14 6 0 10 -9 10 -20 l0 -20 13 0 c8 0 19
11 25 24 l11 24 20 -5 21 -5 0 -24 c0 -13 -5 -33 -12 -44 -15 -24 -3 -38 20
-24 l17 11 3 47 3 46 -15 0 c-9 0 -16 4 -16 10 l0 10 -55 -1 -55 -2 0 -13z" />
    <path d="M533 438 l-10 -23 5 -67 4 -68 14 0 14 0 1 28 2 27 4 -22 4 -23 19 0
18 0 6 23 c3 12 6 28 6 35 l0 12 -30 0 c-16 0 -30 5 -30 10 0 6 7 10 15 10 17
0 35 30 35 59 l0 21 -33 0 -34 0 -10 -22z m38 -25 l-10 -18 -1 16 c0 17 10 32
18 25 2 -3 -1 -13 -7 -23z" />
    <path d="M290 430 l0 -20 20 0 20 0 0 20 0 20 -20 0 -20 0 0 -20z" />
    <path d="M450 430 l0 -20 15 0 15 0 0 20 0 20 -15 0 -15 0 0 -20z" />
    <path d="M365 369 c4 -17 7 -46 7 -65 0 -19 3 -34 8 -34 17 0 27 27 29 78 l2
52 -26 0 -27 0 7 -31z" />
    <path d="M123 330 c3 -11 1 -20 -4 -20 -5 0 -9 -7 -9 -15 l0 -15 40 0 40 0 0
10 c0 6 -5 10 -10 10 -6 0 -16 11 -22 25 -6 14 -18 25 -26 25 l-14 0 5 -20z" />
    <path d="M60 290 c0 -5 7 -10 15 -10 8 0 15 5 15 10 0 6 -7 10 -15 10 -8 0
-15 -4 -15 -10z" />
  </g>
  <g transform="translate(0.000000,100.000000) scale(0.100000,-0.100000)" fill="#176daf" stroke="none">
    <path d="M479 858 c0 -2 -2 -13 -3 -25 -1 -12 1 -20 6 -17 4 3 8 -4 8 -16 l0
-21 -10 6 -10 6 0 -16 0 -16 10 6 10 6 0 -21 0 -21 -10 6 -10 6 0 -16 0 -16
10 6 10 6 0 -38 0 -39 -22 -1 c-13 -1 -24 -7 -26 -13 -2 -5 -7 -8 -11 -6 -4 3
-8 -1 -8 -9 0 -8 4 -12 8 -9 4 2 10 -2 13 -8 l6 -13 6 13 c3 6 10 12 15 12 6
0 7 -5 3 -12 l-7 -11 31 6 c35 7 41 -3 15 -24 l-17 -14 8 12 7 13 -14 -6 c-7
-2 -13 -15 -12 -27 l2 -22 23 -3 23 -4 -6 16 -6 15 16 -6 16 -6 -6 33 c-4 18
-7 45 -7 61 l0 28 -13 -5 -13 -4 -1 20 -2 20 24 0 c13 0 29 2 37 3 7 2 10 2 6
0 -5 -3 -8 -24 -8 -47 l0 -43 15 0 16 0 -11 11 c-12 12 -14 29 -2 23 4 -3 7
14 7 37 l0 43 -19 -5 -19 -5 7 11 7 12 -25 0 c-14 0 -28 5 -31 10 -3 6 -1 10
4 10 6 0 10 5 9 12 l-3 12 32 -2 c17 -2 34 1 38 7 l6 11 -40 0 c-43 0 -63 15
-31 23 l20 5 0 17 0 17 -16 -6 -15 -6 6 10 6 10 -25 0 c-14 0 -26 -1 -27 -2z
m-2 -235 c-4 -3 -10 -3 -14 0 -3 4 0 7 7 7 7 0 10 -3 7 -7z" />
    <path d="M422 768 c-14 -14 -16 -42 -3 -34 7 5 23 46 17 46 -1 0 -7 -5 -14
-12z" />
    <path d="M345 720 c-2 -4 -1 -33 4 -64 0 -5 7 -3 14 3 8 6 17 8 20 4 4 -3 7 9
7 28 l0 35 -21 0 c-11 0 -22 -3 -24 -6z m32 -37 c-4 -3 -7 0 -7 7 0 7 3 10 7
7 3 -4 3 -10 0 -14z" />
    <path d="M434 699 c-3 -6 -1 -16 5 -22 l11 -11 0 22 c0 24 -5 28 -16 11z" />
    <path d="M646 694 c-9 -8 -16 -16 -16 -18 0 -1 9 -2 20 -2 l20 0 0 18 c0 22
-4 22 -24 2z" />
    <path d="M115 443 c2 -10 4 -20 4 -22 1 -2 7 2 14 8 8 6 16 9 19 6 2 -3 5 2 5
10 l0 15 -23 0 -22 0 3 -17z" />
    <path d="M193 445 c0 -8 3 -15 6 -16 3 0 14 -2 24 -4 l17 -3 0 19 0 19 -23 0
-24 0 0 -15z" />
    <path d="M665 451 c-3 -5 -1 -12 5 -16 l10 -6 0 15 c0 18 -6 21 -15 7z" />
    <path d="M843 445 c0 -8 7 -15 15 -15 l14 0 -12 15 c-7 8 -13 15 -15 15 -1 0
-2 -7 -2 -15z" />
    <path d="M902 396 l2 -24 16 3 c14 2 16 7 12 35 -1 6 -9 10 -17 10 l-15 0 2
-24z" />
    <path d="M121 345 l2 -65 14 0 c8 0 12 4 9 9 -4 5 -2 11 2 13 5 1 6 26 3 53
l-6 50 -13 3 -13 2 2 -65z" />
    <path d="M573 389 l-2 -19 20 0 20 0 -3 17 c-2 9 -10 17 -18 18 l-16 3 -1 -19z" />
    <path d="M640 388 c0 -10 6 -18 13 -18 7 0 13 8 13 18 0 10 -6 19 -13 19 -7 0
-13 -9 -13 -19z" />
    <path d="M760 390 c0 -9 7 -17 15 -17 8 0 12 4 9 9 -3 4 0 8 5 8 6 0 11 4 11
8 0 4 -9 8 -20 8 l-20 0 0 -16z" />
    <path d="M843 393 l1 -18 23 -1 24 -2 -3 17 c-2 9 -13 17 -25 19 l-22 3 2 -18z" />
    <path d="M195 359 c-11 -17 1 -21 15 -4 l12 15 -10 0 c-6 0 -14 -5 -17 -11z" />
    <path d="M640 342 l0 -20 20 5 c11 3 20 10 20 16 0 6 -3 7 -7 4 -3 -4 -12 -2
-20 4 l-13 11 0 -20z" />
    <path d="M860 341 c0 -5 -10 -11 -22 -13 -31 -4 -33 -23 -3 -26 l26 -2 -7 13
-8 12 16 -13 16 -13 6 17 c10 25 7 34 -9 34 -8 0 -15 -4 -15 -9z" />
    <path d="M397 332 c-5 -7 -13 -10 -18 -7 l-9 6 0 -27 0 -26 17 13 17 14 -9
-15 -8 -15 12 11 c7 7 11 22 9 35 l-3 24 -8 -13z" />
  </g>
  <g transform="translate(0.000000,100.000000) scale(0.100000,-0.100000)" fill="#cff8ff" stroke="none">
    <path d="M485 860 l-6 -10 15 0 c9 0 16 5 16 10 0 6 -4 10 -9 10 -6 0 -13 -4
-16 -10z" />
    <path d="M500 802 c0 -12 19 -26 26 -19 2 2 -2 10 -11 17 l-15 12 0 -10z" />
    <path d="M599 773 c14 -27 60 -67 68 -60 4 4 -9 23 -27 42 -36 37 -57 46 -41
18z" />
    <path d="M390 770 c0 -5 5 -10 10 -10 6 0 10 5 10 10 0 6 -4 10 -10 10 -5 0
-10 -4 -10 -10z" />
    <path d="M500 742 c0 -12 19 -26 26 -19 2 2 -2 10 -11 17 l-15 12 0 -10z" />
    <path d="M593 705 c0 -8 4 -12 9 -9 5 3 6 10 3 15 -9 13 -12 11 -12 -6z" />
    <path d="M559 668 c3 -18 5 -46 3 -61 l-3 -29 -16 6 -15 6 4 -12 c3 -7 13 -13
24 -13 l19 0 0 64 0 64 -12 4 -11 4 7 -33z" />
    <path d="M660 684 l0 -15 10 6 c6 3 10 10 10 16 0 5 -4 9 -10 9 -5 0 -10 -7
-10 -16z" />
    <path d="M335 680 c3 -5 8 -10 11 -10 2 0 4 5 4 10 0 6 -5 10 -11 10 -5 0 -7
-4 -4 -10z" />
    <path d="M440 638 c0 -4 9 -8 20 -8 11 0 20 4 20 8 0 4 -9 8 -20 8 -11 0 -20
-4 -20 -8z" />
    <path d="M597 613 c-4 -3 -7 -11 -7 -17 l0 -10 12 12 c6 6 9 14 7 17 -3 3 -9
2 -12 -2z" />
    <path d="M443 593 c4 -3 10 -3 14 0 3 4 0 7 -7 7 -7 0 -10 -3 -7 -7z" />
    <path d="M485 590 l20 -9 -27 0 c-15 -1 -30 -6 -33 -12 l-7 -10 33 3 34 3 3
18 3 17 -23 -1 -23 0 20 -9z" />
    <path d="M475 530 c3 -5 11 -10 16 -10 6 0 7 5 4 10 -3 6 -11 10 -16 10 -6 0
-7 -4 -4 -10z" />
    <path d="M515 530 c-3 -5 -2 -10 4 -10 5 0 13 5 16 10 3 6 2 10 -4 10 -5 0
-13 -4 -16 -10z" />
    <path d="M355 460 c-3 -5 -2 -10 4 -10 5 0 13 5 16 10 3 6 2 10 -4 10 -5 0
-13 -4 -16 -10z" />
    <path d="M395 460 c3 -5 11 -10 16 -10 6 0 7 5 4 10 -3 6 -11 10 -16 10 -6 0
-7 -4 -4 -10z" />
    <path d="M84 441 c8 -12 46 -21 46 -11 0 8 -24 20 -41 20 -6 0 -8 -4 -5 -9z" />
    <path d="M154 433 l-14 -14 0 -48 0 -47 16 -20 16 -19 -7 20 c-8 21 -7 114 1
127 3 4 16 3 29 -2 l25 -10 0 9 c0 5 -12 11 -26 14 l-25 4 -15 -14z" />
    <path d="M555 439 c-11 -17 1 -21 15 -4 l12 15 -10 0 c-6 0 -14 -5 -17 -11z" />
    <path d="M669 433 c0 -10 -2 -29 -3 -43 -2 -14 0 -35 5 -47 l9 -23 -10 0 c-6
0 -10 -5 -10 -11 l0 -11 15 12 c9 7 14 19 11 26 -3 7 -1 16 4 19 4 3 7 13 5
23 -2 9 -4 29 -4 45 -1 29 -20 38 -22 10z" />
    <path d="M801 439 l-23 -9 7 -18 c9 -21 9 -27 -4 -77 l-10 -40 9 -9 9 -9 16
17 c9 9 14 20 11 25 -3 5 -3 30 0 55 l7 46 13 0 c8 0 14 4 14 9 0 14 -23 19
-49 10z" />
    <path d="M904 441 l6 -9 -20 5 -20 5 0 -11 0 -11 29 0 29 0 6 15 5 15 -20 0
c-11 0 -18 -4 -15 -9z" />
    <path d="M430 436 c0 -2 7 -9 15 -16 l15 -12 0 16 c0 9 -7 16 -15 16 -8 0 -15
-2 -15 -4z" />
    <path d="M577 423 c-4 -3 -7 -11 -7 -17 l0 -10 12 12 c6 6 9 14 7 17 -3 3 -9
2 -12 -2z" />
    <path d="M290 405 c0 -8 5 -15 10 -15 6 0 10 7 10 15 0 8 -4 15 -10 15 -5 0
-10 -7 -10 -15z" />
    <path d="M614 405 c1 -8 5 -17 8 -21 4 -3 2 -15 -5 -25 l-12 -19 23 -22 22
-22 0 15 c0 8 -5 20 -11 26 l-11 11 11 6 c6 4 11 20 11 37 l0 29 -19 0 -19 0
2 -15z" />
    <path d="M550 379 c0 -12 29 -38 43 -39 14 0 7 38 -9 44 -23 9 -34 7 -34 -5z" />
    <path d="M877 384 c-13 -13 -7 -24 14 -24 l21 0 -4 12 c-5 14 -22 21 -31 12z" />
    <path d="M920 370 c-6 -11 -17 -20 -25 -20 -8 0 -15 -7 -15 -16 l0 -16 15 6
c8 3 15 1 15 -5 0 -6 5 -7 10 -4 6 3 10 17 10 31 0 13 5 24 10 24 6 0 10 5 10
10 0 17 -19 11 -30 -10z" />
    <path d="M197 362 c-21 -23 -21 -32 -1 -32 l15 0 -7 11 c-3 6 0 15 7 20 7 4
11 10 8 14 -3 3 -13 -3 -22 -13z" />
    <path d="M820 335 l0 -15 20 0 19 0 -5 15 c-4 8 -12 15 -20 15 -8 0 -14 -7
-14 -15z" />
    <path d="M550 327 c0 -8 7 -14 15 -14 8 0 15 6 15 14 0 7 -7 13 -15 13 -8 0
-15 -6 -15 -13z" />
    <path d="M700 330 c0 -5 5 -10 11 -10 5 0 7 5 4 10 -3 6 -8 10 -11 10 -2 0 -4
-4 -4 -10z" />
    <path d="M110 305 l-12 -15 10 0 c12 0 26 19 19 26 -2 2 -10 -2 -17 -11z" />
    <path d="M827 304 c-8 -8 1 -24 14 -24 5 0 9 7 9 15 0 15 -12 20 -23 9z" />
    <path d="M870 298 l0 -13 30 -1 c32 -1 40 10 14 20 -25 10 -44 7 -44 -6z" />
    <path d="M840 207 l0 -47 14 0 14 0 -6 22 -5 21 11 -7 12 -7 0 11 c0 6 -9 20
-20 32 l-20 22 0 -47z" />
    <path d="M120 228 l0 -17 -20 4 -20 4 0 -15 c0 -8 3 -14 8 -15 4 0 14 -2 24
-4 l16 -3 6 21 c3 12 1 26 -4 31 l-10 10 0 -16z" />
    <path d="M176 225 c4 -8 10 -15 15 -15 5 0 9 7 9 15 0 8 -7 15 -15 15 l-14 0
5 -15z" />
    <path d="M351 233 c1 -5 1 -15 0 -22 l-1 -15 -12 12 c-18 18 -45 15 -53 -5
l-6 -18 -13 18 c-16 21 -42 22 -50 1 -3 -8 -10 -12 -16 -9 l-10 6 0 -15 c0
-19 20 -17 37 4 l13 15 15 -20 c9 -11 18 -20 20 -20 2 0 10 9 18 19 l14 19 11
-7 c7 -4 12 -16 12 -26 0 -18 14 -21 38 -7 6 5 12 5 13 0 0 -4 4 3 10 15 11
29 31 24 39 -9 l6 -24 8 13 c4 7 12 10 17 6 5 -3 7 -10 4 -15 l-6 -9 15 6 c20
8 21 24 1 24 l-15 0 0 21 c0 11 -4 18 -9 14 -5 -3 -12 -1 -16 5 -10 16 -42 12
-49 -6 -8 -22 -25 -8 -19 16 l5 20 -11 0 c-6 0 -10 -3 -10 -7z" />
    <path d="M628 193 c-3 -21 -4 -40 -2 -42 1 -1 9 1 16 5 7 5 22 7 34 6 l21 -3
0 16 0 15 -18 0 -18 0 -6 20 c-10 31 -22 24 -27 -17z" />
    <path d="M470 211 c0 -5 9 -11 20 -14 l20 -5 0 14 0 14 -20 0 c-11 0 -20 -4
-20 -9z" />
    <path d="M736 198 c-9 -34 -8 -38 10 -38 l15 0 -6 10 c-3 6 1 13 9 16 9 3 16
12 16 20 l0 14 -19 0 -19 0 -6 -22z" />
    <path d="M890 205 l0 -14 15 5 c8 4 15 10 15 15 0 5 -7 9 -15 9 -8 0 -15 -7
-15 -15z" />
    <path d="M150 194 l0 -15 10 6 c6 3 10 10 10 16 0 5 -4 9 -10 9 -5 0 -10 -7
-10 -16z" />
  </g>
  <g transform="translate(0.000000,100.000000) scale(0.100000,-0.100000)" fill="#286592" stroke="none">
    <path d="M500 860 c0 -5 7 -10 16 -10 l15 0 -6 10 c-3 6 -10 10 -16 10 -5 0
-9 -4 -9 -10z" />
    <path d="M455 830 c-8 -13 -1 -24 14 -19 l10 4 -8 14 -8 13 -8 -12z" />
    <path d="M536 825 l-5 -15 14 0 c8 0 15 7 15 15 0 8 -4 15 -9 15 -5 0 -11 -7
-15 -15z" />
    <path d="M420 786 c0 -2 7 -9 15 -16 l15 -12 0 16 c0 9 -7 16 -15 16 -8 0 -15
-2 -15 -4z" />
    <path d="M382 755 l-22 -23 15 -6 15 -5 0 14 c0 7 7 15 15 17 l14 3 -7 12 -7
12 -23 -24z" />
    <path d="M620 724 l0 -26 13 11 c16 13 27 5 27 -21 0 -21 -11 -23 -28 -6 l-12
12 0 -27 0 -27 14 0 c15 0 30 16 39 42 l6 17 -20 25 c-11 14 -25 26 -30 26 -5
0 -9 -12 -9 -26z" />
    <path d="M340 680 c0 -7 3 -10 7 -7 3 4 3 10 0 14 -4 3 -7 0 -7 -7z" />
    <path d="M572 655 l0 -30 5 18 c2 9 2 23 0 30 -3 6 -5 -1 -5 -18z" />
    <path d="M410 636 c0 -9 5 -16 10 -16 6 0 10 4 10 9 0 6 -4 13 -10 16 l-10 6
0 -15z" />
    <path d="M570 605 c0 -8 4 -15 10 -15 5 0 7 7 4 15 -4 8 -8 15 -10 15 -2 0 -4
-7 -4 -15z" />
    <path d="M535 569 c4 -5 1 -16 -5 -24 -15 -18 1 -20 18 -3 16 16 15 25 -4 32
l-15 6 6 -11z" />
    <path d="M452 558 c2 -6 15 -18 29 -27 l24 -15 -18 20 c-9 11 -14 24 -10 27 3
4 -2 7 -11 7 l-18 0 4 -12z" />
    <path d="M528 434 l-17 -37 12 -11 c7 -6 18 -11 25 -10 6 1 17 2 23 3 l11 1
-12 14 -11 15 -16 -6 -16 -6 5 14 c3 8 11 13 18 11 l12 -3 -4 13 -5 13 26 1
c14 1 20 -1 14 -3 -7 -3 -13 -11 -13 -18 l0 -13 18 2 17 3 3 21 3 22 -18 0
c-10 0 -27 2 -38 5 l-20 5 -17 -36z" />
    <path d="M70 450 c0 -5 9 -10 19 -10 11 0 23 5 26 10 l6 10 -25 0 c-14 0 -26
-4 -26 -10z" />
    <path d="M165 450 c4 -6 11 -8 16 -5 14 9 11 15 -7 15 l-15 0 6 -10z" />
    <path d="M315 440 l6 -20 -10 0 c-6 0 -11 -11 -11 -25 l0 -25 15 0 15 0 -1 23
c0 12 2 32 6 45 l7 22 -17 0 -16 0 6 -20z" />
    <path d="M360 446 l0 -16 30 0 30 0 0 15 c0 18 -17 20 -23 3 l-4 -13 -16 14
-17 13 0 -16z" />
    <path d="M444 438 c3 -13 6 -26 6 -30 0 -5 7 -8 15 -8 l15 0 0 30 0 30 -21 0
-21 0 6 -22z m23 -15 c-4 -3 -7 0 -7 7 0 7 3 10 7 7 3 -4 3 -10 0 -14z" />
    <path d="M680 447 c0 -8 7 -14 15 -14 8 0 15 6 15 14 0 7 -7 13 -15 13 -8 0
-15 -6 -15 -13z" />
    <path d="M760 440 c0 -11 2 -20 5 -20 2 0 9 9 15 20 l11 20 -16 0 -15 0 0 -20z" />
    <path d="M815 450 c4 -6 11 -8 16 -5 14 9 11 15 -7 15 l-15 0 6 -10z" />
    <path d="M895 450 c3 -5 15 -10 26 -10 10 0 19 5 19 10 0 6 -12 10 -26 10
l-25 0 6 -10z" />
    <path d="M787 433 c-10 -9 -9 -23 1 -23 5 0 9 7 9 15 0 17 -1 18 -10 8z" />
    <path d="M833 434 c-7 -3 -13 -12 -13 -20 0 -8 -7 -14 -16 -14 l-16 0 11 -14
11 -13 -25 2 -25 3 0 -27 0 -28 15 0 c8 0 15 6 15 12 l0 12 29 -5 28 -4 6 15
6 15 -16 6 -15 6 11 14 c6 7 8 16 4 19 -3 4 3 7 14 7 l20 0 -2 -23 -3 -23 18
0 c10 0 18 3 18 6 0 3 0 11 1 18 l1 13 11 -6 c6 -4 8 -13 6 -19 -3 -7 1 -13 9
-13 8 0 14 6 14 14 0 7 -4 13 -10 13 -5 0 -10 7 -10 15 l0 15 -22 0 c-13 0
-32 2 -43 5 -11 2 -26 2 -32 -1z m-56 -91 c-4 -3 -7 0 -7 7 0 7 3 10 7 7 3 -4
3 -10 0 -14z" />
    <path d="M143 370 c0 -30 2 -43 4 -27 2 15 2 39 0 55 -2 15 -4 2 -4 -28z" />
    <path d="M680 393 c0 -8 5 -13 12 -11 18 6 21 25 3 25 -8 0 -15 -7 -15 -14z" />
    <path d="M350 385 c0 -8 6 -15 13 -15 8 0 14 7 14 15 0 8 -6 15 -14 15 -7 0
-13 -7 -13 -15z" />
    <path d="M396 385 c4 -8 12 -15 20 -15 8 0 14 7 14 15 l0 15 -20 0 -19 0 5
-15z" />
    <path d="M593 379 c-1 -12 -7 -27 -13 -33 l-11 -11 6 18 7 17 -10 0 c-6 0 -14
-5 -17 -10 -4 -6 -11 -8 -16 -5 -5 4 -9 -2 -9 -11 0 -10 3 -14 6 -11 4 3 15 2
26 -4 l20 -11 14 19 13 18 1 -17 c0 -10 7 -18 15 -18 8 0 15 -4 15 -10 0 -5 7
-10 15 -10 8 0 15 -4 15 -10 0 -5 7 -10 15 -10 8 0 15 5 15 10 0 6 -7 10 -15
10 -8 0 -15 4 -15 8 0 5 -11 15 -25 22 l-25 13 0 29 0 28 -13 0 c-7 0 -13 -10
-14 -21z" />
    <path d="M640 376 c0 -7 7 -13 15 -13 8 0 15 4 15 8 0 4 -7 9 -15 13 l-15 5 0
-13z" />
    <path d="M180 347 c0 -8 6 -14 14 -14 l14 0 -5 14 c-3 7 -9 13 -14 13 -5 0 -9
-6 -9 -13z" />
    <path d="M903 338 c3 -9 1 -20 -5 -26 l-10 -10 12 -7 c14 -9 17 -6 22 24 l3
24 -14 5 -14 5 6 -15z" />
    <path d="M805 310 c-8 -13 -1 -24 14 -19 l10 4 -8 14 -8 13 -8 -12z" />
    <path d="M596 302 c-3 -6 -1 -14 5 -17 15 -10 25 3 12 16 l-11 11 -6 -10z" />
    <path d="M90 290 c0 -5 7 -10 15 -10 8 0 15 5 15 10 0 6 -7 10 -15 10 -8 0
-15 -4 -15 -10z" />
    <path d="M350 285 l0 -15 20 0 19 0 -5 15 c-4 8 -12 15 -20 15 -8 0 -14 -7
-14 -15z" />
    <path d="M530 283 c0 -7 7 -13 15 -13 8 0 15 6 15 13 0 8 -7 14 -15 14 -8 0
-15 -6 -15 -14z" />
    <path d="M840 285 c0 -8 7 -15 15 -15 8 0 15 4 15 9 0 5 -7 11 -15 15 l-15 5
0 -14z" />
    <path d="M830 215 c0 -25 14 -34 24 -16 8 12 -3 41 -15 41 -5 0 -9 -11 -9 -25z" />
    <path d="M620 205 c0 -14 4 -25 9 -25 5 0 11 11 13 25 l5 25 -13 0 -14 0 0
-25z" />
    <path d="M420 185 c0 -14 5 -25 10 -25 6 0 10 11 10 25 0 14 -4 25 -10 25 -5
0 -10 -11 -10 -25z" />
    <path d="M320 175 c0 -8 5 -15 10 -15 6 0 10 7 10 15 0 8 -4 15 -10 15 -5 0
-10 -7 -10 -15z" />
  </g>
  <g transform="translate(0.000000,100.000000) scale(0.100000,-0.100000)" fill="#386789" stroke="none">
    <path d="M596 765 l-5 -15 14 0 c16 0 20 16 6 24 -5 3 -11 -1 -15 -9z" />
    <path d="M585 720 c3 -5 8 -10 11 -10 2 0 4 5 4 10 0 6 -5 10 -11 10 -5 0 -7
-4 -4 -10z" />
    <path d="M660 711 c0 -6 4 -13 10 -16 l10 -6 -6 15 c-7 18 -14 21 -14 7z" />
    <path d="M371 651 l-13 -8 12 -8 c13 -8 24 -1 19 14 l-4 10 -14 -8z" />
    <path d="M620 643 c0 -8 5 -13 12 -11 18 6 21 25 3 25 -8 0 -15 -7 -15 -14z" />
    <path d="M571 624 l1 -19 5 13 c3 7 2 16 -1 19 -3 4 -6 -2 -5 -13z" />
    <path d="M410 610 c0 -5 5 -10 11 -10 5 0 7 5 4 10 -3 6 -8 10 -11 10 -2 0 -4
-4 -4 -10z" />
    <path d="M571 589 c-31 -33 -26 -48 6 -17 15 15 24 30 21 33 -3 4 -15 -4 -27
-16z" />
    <path d="M444 561 c5 -8 56 -3 56 5 0 2 -14 4 -31 4 -16 0 -28 -4 -25 -9z" />
    <path d="M640 460 c0 -5 7 -7 15 -4 8 4 15 8 15 10 0 2 -7 4 -15 4 -8 0 -15
-4 -15 -10z" />
    <path d="M840 462 c0 -4 9 -8 20 -8 11 0 20 4 20 8 0 4 -9 8 -20 8 -11 0 -20
-4 -20 -8z" />
    <path d="M60 450 c0 -5 4 -10 9 -10 6 0 13 5 16 10 l6 10 -15 0 c-9 0 -16 -4
-16 -10z" />
    <path d="M290 445 l0 -16 21 12 21 11 -6 -11 -7 -11 25 0 26 0 0 15 0 15 -40
0 -40 0 0 -15z" />
    <path d="M403 445 l0 -15 24 0 23 0 0 -15 0 -15 -18 0 -19 0 0 -15 0 -15 39 0
c21 0 38 3 38 7 0 3 -7 14 -16 24 -8 9 -16 26 -17 38 l-1 21 -26 0 -27 0 0
-15z" />
    <path d="M925 450 c3 -5 10 -10 16 -10 5 0 9 5 9 10 0 6 -7 10 -16 10 l-15 0
6 -10z" />
    <path d="M802 418 c3 -7 11 -14 20 -16 l15 -3 0 16 0 15 -19 0 -20 0 4 -12z" />
    <path d="M287 393 c-16 -15 -4 -23 36 -23 l44 0 0 15 0 15 -37 0 c-20 0 -40
-3 -43 -7z" />
    <path d="M936 385 c4 -8 8 -15 10 -15 2 0 4 7 4 15 0 8 -4 15 -10 15 -5 0 -7
-7 -4 -15z" />
    <path d="M603 383 c-18 -7 -16 -20 2 -20 8 0 15 6 15 14 0 7 -1 13 -2 12 -2 0
-9 -3 -15 -6z" />
    <path d="M785 371 c-3 -5 -1 -12 5 -16 l10 -6 0 15 c0 18 -6 21 -15 7z" />
    <path d="M813 355 c0 -8 8 -15 17 -15 9 0 17 7 17 15 0 8 -8 15 -17 15 -9 0
-17 -7 -17 -15z" />
    <path d="M873 355 c0 -8 8 -15 17 -15 9 0 17 7 17 15 0 8 -8 15 -17 15 -9 0
-17 -7 -17 -15z" />
    <path d="M567 323 c3 -7 9 -10 14 -7 14 8 11 21 -5 21 l-14 0 5 -14z" />
    <path d="M680 330 c0 -5 7 -10 15 -10 8 0 15 5 15 10 0 6 -7 10 -15 10 -8 0
-15 -4 -15 -10z" />
    <path d="M750 286 l0 -19 20 18 20 18 0 -11 0 -11 15 5 c24 10 6 24 -26 22
l-29 -2 0 -20z" />
    <path d="M906 301 c-3 -5 1 -11 9 -15 l15 -5 0 14 c0 16 -16 20 -24 6z" />
    <path d="M220 290 c0 -5 9 -10 20 -10 11 0 20 5 20 10 0 6 -9 10 -20 10 -11 0
-20 -4 -20 -10z" />
    <path d="M340 285 c0 -8 6 -15 13 -15 8 0 14 7 14 15 0 8 -6 15 -14 15 -7 0
-13 -7 -13 -15z" />
    <path d="M620 290 l0 -10 50 1 c28 1 50 6 50 10 0 5 -22 9 -50 9 l-50 0 0 -10z" />
    <path d="M835 290 c-8 -13 -1 -24 14 -19 l10 4 -8 14 -8 13 -8 -12z" />
    <path d="M107 243 c-4 -3 -7 -14 -7 -24 0 -10 -7 -22 -15 -27 l-16 -8 7 -18
c7 -19 29 -16 29 5 1 8 6 24 13 36 7 12 12 26 12 32 0 12 -13 15 -23 4z" />
    <path d="M157 243 c-4 -3 -7 -15 -7 -25 0 -10 -6 -21 -14 -24 l-14 -5 5 -20
c8 -31 25 -17 39 32 8 24 14 45 14 47 0 5 -17 2 -23 -5z" />
    <path d="M565 238 c-9 -23 -2 -83 10 -83 14 0 19 75 6 88 l-10 10 -6 -15z" />
    <path d="M624 237 c-8 -21 -3 -29 13 -19 l12 8 -9 14 -9 14 -7 -17z" />
    <path d="M837 243 c-4 -3 -7 -11 -7 -17 l0 -10 12 12 c6 6 9 14 7 17 -3 3 -9
2 -12 -2z" />
    <path d="M872 203 c2 -27 8 -48 13 -48 6 0 11 21 13 48 l3 47 -16 0 -16 0 3
-47z" />
    <path d="M62 219 c2 -7 10 -15 17 -17 l14 -4 -5 13 c-2 7 -10 15 -17 17 l-13
5 4 -14z" />
    <path d="M380 210 c0 -5 4 -10 9 -10 6 0 13 5 16 10 l6 10 -15 0 c-9 0 -16 -4
-16 -10z" />
    <path d="M457 213 c-14 -13 -6 -36 19 -60 14 -13 30 -21 35 -18 14 9 11 25 -5
25 -7 0 -20 7 -27 16 l-13 16 19 14 19 14 -20 0 c-12 0 -24 -3 -27 -7z" />
    <path d="M654 205 c-7 -17 2 -45 14 -45 4 0 9 14 10 30 l2 30 -10 0 c-6 0 -13
-7 -16 -15z" />
    <path d="M690 206 c0 -9 7 -16 16 -16 17 0 14 22 -4 28 -7 2 -12 -3 -12 -12z" />
    <path d="M912 209 c2 -7 10 -15 17 -17 l14 -4 -5 13 c-2 7 -10 15 -17 17 l-13
5 4 -14z" />
    <path d="M832 182 c2 -14 8 -27 14 -29 l11 -4 -1 29 -1 29 -13 0 -13 0 3 -25z" />
    <path d="M250 175 c0 -8 5 -15 10 -15 6 0 10 7 10 15 0 8 -4 15 -10 15 -5 0
-10 -7 -10 -15z" />
    <path d="M620 176 c0 -8 5 -18 10 -21 l10 -6 0 20 c0 12 -4 21 -10 21 -5 0
-10 -6 -10 -14z" />
    <path d="M320 166 c0 -9 5 -16 10 -16 6 0 10 4 10 9 0 6 -4 13 -10 16 l-10 6
0 -15z" />
    <path d="M420 171 c0 -5 5 -13 10 -16 6 -3 10 -2 10 4 0 5 -4 13 -10 16 -5 3
-10 2 -10 -4z" />
  </g>
  <g transform="translate(0.000000,100.000000) scale(0.100000,-0.100000)" fill="#38729f" stroke="none">
    <path d="M490 860 l-15 -10 17 0 c9 0 20 5 23 10 8 13 -5 13 -25 0z" />
    <path d="M540 835 c7 -9 15 -13 17 -11 7 7 -7 26 -19 26 l-10 0 12 -15z" />
    <path d="M550 783 c24 -3 51 -10 60 -16 l15 -12 -14 18 -13 17 -47 -2 -46 -1
45 -4z" />
    <path d="M627 743 c-4 -3 -7 -13 -7 -21 l0 -14 13 11 c8 6 18 7 23 3 4 -4 2 1
-5 11 -15 19 -15 19 -24 10z" />
    <path d="M566 687 c3 -10 9 -15 12 -12 3 3 0 11 -7 18 l-12 12 7 -18z" />
    <path d="M340 671 c0 -5 5 -13 10 -16 6 -3 10 -2 10 4 0 5 -4 13 -10 16 -5 3
-10 2 -10 -4z" />
    <path d="M620 664 c0 -8 4 -13 9 -10 5 4 11 1 13 -6 l4 -12 7 10 c3 5 -3 15
-14 22 l-19 12 0 -16z" />
    <path d="M410 624 l0 -15 10 6 c6 4 8 11 5 16 -9 14 -15 11 -15 -7z" />
    <path d="M590 600 c0 -7 3 -10 7 -7 3 4 3 10 0 14 -4 3 -7 0 -7 -7z" />
    <path d="M494 568 l-7 -11 11 7 c7 4 12 9 12 12 0 8 -9 4 -16 -8z" />
    <path d="M465 540 c3 -5 8 -10 11 -10 2 0 4 5 4 10 0 6 -5 10 -11 10 -5 0 -7
-4 -4 -10z" />
    <path d="M515 530 l-6 -10 15 6 c18 7 21 14 7 14 -6 0 -13 -4 -16 -10z" />
    <path d="M380 466 c0 -2 7 -7 16 -10 l15 -6 -6 10 c-6 10 -25 14 -25 6z" />
    <path d="M835 460 c-3 -5 -1 -10 4 -10 6 0 11 5 11 10 0 6 -2 10 -4 10 -3 0
-8 -4 -11 -10z" />
    <path d="M60 450 c0 -5 7 -7 15 -4 8 4 15 8 15 10 0 2 -7 4 -15 4 -8 0 -15 -4
-15 -10z" />
    <path d="M229 409 l3 -51 -11 6 -11 7 6 -15 c13 -34 24 -13 24 44 0 33 -3 60
-7 60 -5 0 -6 -23 -4 -51z" />
    <path d="M353 445 c0 -8 6 -15 13 -15 l13 0 -5 15 c-4 8 -9 15 -13 15 -4 0 -8
-7 -8 -15z" />
    <path d="M547 433 c3 -7 6 -13 8 -13 2 0 5 6 8 13 l5 14 -13 0 -13 0 5 -14z" />
    <path d="M445 430 c3 -5 8 -10 11 -10 2 0 4 5 4 10 0 6 -5 10 -11 10 -5 0 -7
-4 -4 -10z" />
    <path d="M578 422 l-5 -19 12 0 13 0 -6 15 -5 15 13 -8 13 -8 -7 11 c-11 17
-23 15 -28 -6z" />
    <path d="M855 430 c3 -5 10 -10 16 -10 5 0 9 5 9 10 0 6 -7 10 -16 10 l-15 0
6 -10z" />
    <path d="M290 422 c0 -12 19 -26 26 -19 2 2 -2 10 -11 17 l-15 12 0 -10z" />
    <path d="M630 421 c0 -6 5 -13 10 -16 l10 -6 0 15 c0 9 -4 16 -10 16 -5 0 -10
-4 -10 -9z" />
    <path d="M700 414 l0 -15 10 6 c6 3 10 10 10 16 0 5 -4 9 -10 9 -5 0 -10 -7
-10 -16z" />
    <path d="M792 421 l-14 -8 19 -5 20 -5 0 13 c0 16 -6 17 -25 5z" />
    <path d="M920 411 c0 -6 4 -13 10 -16 l10 -6 -6 15 c-7 18 -14 21 -14 7z" />
    <path d="M664 379 c-3 -6 -1 -16 4 -21 l11 -11 -2 22 c-1 24 -3 25 -13 10z" />
    <path d="M840 370 c0 -5 5 -10 11 -10 5 0 7 5 4 10 -3 6 -8 10 -11 10 -2 0 -4
-4 -4 -10z" />
    <path d="M903 353 c0 -7 5 -12 11 -10 15 5 18 24 3 24 -8 0 -14 -6 -14 -14z" />
    <path d="M598 317 l5 -19 -18 4 c-10 2 -20 -2 -22 -9 l-4 -12 38 3 c21 2 46 4
56 5 9 0 17 8 17 17 l0 15 -10 -6 -10 -6 0 16 0 15 -29 -2 -28 -2 5 -19z m42
-6 c0 -5 -9 -11 -20 -14 l-20 -5 11 19 c9 18 29 18 29 0z" />
    <path d="M675 330 c4 -6 11 -8 16 -5 14 9 11 15 -7 15 l-15 0 6 -10z" />
    <path d="M780 330 c0 -7 3 -10 7 -7 3 4 3 10 0 14 -4 3 -7 0 -7 -7z" />
    <path d="M877 326 l-6 -15 14 6 c8 3 12 9 9 14 -7 12 -11 11 -17 -5z" />
    <path d="M840 308 c0 -12 3 -18 7 -14 11 10 12 36 2 36 -5 0 -9 -10 -9 -22z" />
    <path d="M116 301 c-3 -5 -19 -7 -36 -5 l-30 4 0 -10 c0 -6 17 -10 38 -10 l39
0 0 15 c0 17 -3 19 -11 6z" />
    <path d="M916 296 c3 -9 11 -16 16 -16 13 0 5 23 -10 28 l-12 4 6 -16z" />
    <path d="M175 290 l-6 -10 36 0 36 0 -6 10 c-3 6 -17 10 -30 10 -13 0 -27 -4
-30 -10z" />
    <path d="M860 285 l-12 -15 10 0 c12 0 26 19 19 26 -2 2 -10 -2 -17 -11z" />
    <path d="M60 227 c0 -8 6 -14 14 -14 l14 0 -5 14 c-7 17 -23 17 -23 0z" />
    <path d="M100 227 c0 -16 37 -57 50 -57 14 0 13 5 -8 37 -19 30 -42 41 -42 20z" />
    <path d="M800 200 l0 -40 10 0 10 0 0 40 0 40 -10 0 -10 0 0 -40z" />
    <path d="M830 216 c0 -7 7 -13 15 -13 8 0 15 4 15 8 0 4 -7 9 -15 13 l-15 5 0
-13z" />
    <path d="M890 217 c0 -10 6 -16 12 -14 7 1 14 -8 16 -20 5 -32 22 -29 22 4 0
14 -3 23 -7 20 -3 -4 -15 0 -25 10 l-18 16 0 -16z" />
    <path d="M220 212 c0 -4 9 -8 20 -8 11 0 20 4 20 8 0 4 -9 8 -20 8 -11 0 -20
-4 -20 -8z" />
    <path d="M412 206 c13 -14 28 -12 28 5 0 5 -9 9 -20 9 l-21 0 13 -14z" />
    <path d="M494 182 l-2 -39 14 0 14 0 0 39 0 38 -12 0 -13 0 -1 -38z" />
    <path d="M320 189 l0 -20 10 6 c6 3 10 13 10 21 0 8 -4 14 -10 14 -5 0 -10 -9
-10 -21z" />
    <path d="M650 195 c0 -6 7 -12 15 -12 8 0 15 6 15 12 0 6 -7 12 -15 12 -8 0
-15 -6 -15 -12z" />
    <path d="M620 184 l0 -15 10 6 c6 4 8 11 5 16 -9 14 -15 11 -15 -7z" />
    <path d="M80 186 c0 -2 7 -9 15 -16 l15 -12 0 16 c0 9 -7 16 -15 16 -8 0 -15
-2 -15 -4z" />
  </g>
  <g transform="translate(0.000000,100.000000) scale(0.100000,-0.100000)" fill="#b4e6fe" stroke="none">
    <path d="M500 811 c0 -5 9 -7 20 -4 11 3 20 7 20 9 0 2 -9 4 -20 4 -11 0 -20
-4 -20 -9z" />
    <path d="M623 690 c0 -30 2 -43 4 -27 2 15 2 39 0 55 -2 15 -4 2 -4 -28z" />
    <path d="M656 663 l-7 -18 12 12 c7 7 10 15 7 18 -3 3 -9 -2 -12 -12z" />
    <path d="M501 584 l1 -19 5 13 c3 7 2 16 -1 19 -3 4 -6 -2 -5 -13z" />
    <path d="M340 460 l-35 -7 32 -2 c17 0 35 4 38 9 3 6 5 9 3 9 -2 -1 -19 -5
-38 -9z" />
    <path d="M870 460 c0 -5 5 -10 11 -10 5 0 7 5 4 10 -3 6 -8 10 -11 10 -2 0 -4
-4 -4 -10z" />
    <path d="M418 453 c12 -2 30 -2 40 0 9 3 -1 5 -23 4 l-40 0 23 -4z" />
    <path d="M633 435 c0 -8 4 -15 9 -15 4 0 8 7 8 15 0 8 -4 15 -8 15 -5 0 -9 -7
-9 -15z" />
    <path d="M320 424 l0 -16 -13 5 -14 5 0 -14 0 -14 94 0 93 0 0 15 0 16 -19
-11 c-11 -5 -47 -10 -81 -10 l-61 0 11 20 11 20 -11 0 c-5 0 -10 -7 -10 -16z" />
    <path d="M580 430 c0 -7 3 -10 7 -7 3 4 3 10 0 14 -4 3 -7 0 -7 -7z" />
    <path d="M793 425 c0 -8 4 -12 9 -9 5 3 6 10 3 15 -9 13 -12 11 -12 -6z" />
    <path d="M835 430 c-3 -5 -2 -10 4 -10 5 0 13 5 16 10 3 6 2 10 -4 10 -5 0
-13 -4 -16 -10z" />
    <path d="M598 418 c-7 -20 16 -58 35 -58 27 0 20 27 -10 38 -16 6 -22 11 -15
11 6 1 12 6 12 11 0 14 -17 13 -22 -2z m39 -45 c-4 -3 -10 -3 -14 0 -3 4 0 7
7 7 7 0 10 -3 7 -7z" />
    <path d="M805 400 l-6 -10 25 0 c14 0 26 5 26 10 0 6 -9 10 -19 10 -11 0 -23
-4 -26 -10z" />
    <path d="M870 400 c0 -5 9 -10 20 -10 11 0 20 5 20 10 0 6 -9 10 -20 10 -11 0
-20 -4 -20 -10z" />
    <path d="M790 368 c0 -7 12 -23 26 -35 l27 -23 -18 -6 -17 -7 13 -8 c7 -4 17
-5 21 -3 13 8 9 44 -4 44 l-13 0 15 10 15 10 -28 0 -28 0 6 9 c3 5 1 12 -5 16
-5 3 -10 0 -10 -7z" />
    <path d="M820 370 c0 -5 7 -10 15 -10 8 0 15 5 15 10 0 6 -7 10 -15 10 -8 0
-15 -4 -15 -10z" />
    <path d="M874 343 c10 -11 36 -12 36 -2 0 5 -10 9 -22 9 -12 0 -18 -3 -14 -7z" />
    <path d="M203 333 c4 -3 10 -3 14 0 3 4 0 7 -7 7 -7 0 -10 -3 -7 -7z" />
    <path d="M636 305 l-5 -15 14 0 14 0 -5 15 c-4 8 -7 15 -9 15 -2 0 -5 -7 -9
-15z" />
    <path d="M756 312 c-3 -3 -6 -10 -6 -16 0 -6 5 -4 10 4 l10 15 0 -12 0 -12 15
6 c9 3 13 8 10 11 -8 8 -33 11 -39 4z" />
    <path d="M155 300 c3 -5 8 -10 11 -10 3 0 2 5 -1 10 -3 6 -8 10 -11 10 -3 0
-2 -4 1 -10z" />
    <path d="M862 284 l-13 -14 10 0 c10 0 25 19 20 25 -2 1 -10 -3 -17 -11z" />
    <path d="M573 283 c4 -3 10 -3 14 0 3 4 0 7 -7 7 -7 0 -10 -3 -7 -7z" />
    <path d="M163 236 l0 -14 14 5 c7 3 13 9 13 14 0 5 -6 9 -13 9 -8 0 -14 -6
-14 -14z" />
    <path d="M563 205 l0 -40 4 23 c2 12 2 30 0 40 -3 9 -5 -1 -4 -23z" />
    <path d="M892 200 c-1 -22 0 -40 2 -40 7 0 12 60 6 70 -4 6 -7 -7 -8 -30z" />
    <path d="M60 221 c0 -6 4 -13 10 -16 l10 -6 -6 15 c-7 18 -14 21 -14 7z" />
    <path d="M103 205 c0 -8 4 -12 9 -9 4 3 8 1 8 -4 0 -5 7 -9 15 -9 21 0 19 14
-4 27 -25 13 -28 13 -28 -5z" />
    <path d="M850 209 c0 -5 5 -7 10 -4 6 3 10 8 10 11 0 2 -4 4 -10 4 -5 0 -10
-5 -10 -11z" />
    <path d="M670 194 l0 -14 21 0 21 0 -4 12 c-2 6 -12 12 -21 14 l-17 2 0 -14z" />
    <path d="M730 195 c0 -8 5 -15 10 -15 6 0 10 7 10 15 0 8 -4 15 -10 15 -5 0
-10 -7 -10 -15z" />
    <path d="M463 177 c0 -8 6 -14 14 -14 l13 0 -11 14 c-6 7 -12 13 -14 13 -1 0
-2 -6 -2 -13z" />
    <path d="M506 143 l-7 -18 12 12 c7 7 10 15 7 18 -3 3 -9 -2 -12 -12z" />
  </g>
  <g transform="translate(0.000000,100.000000) scale(0.100000,-0.100000)" fill="#3a7db0" stroke="none">
    <path d="M525 850 c3 -5 11 -10 16 -10 6 0 7 5 4 10 -3 6 -11 10 -16 10 -6 0
-7 -4 -4 -10z" />
    <path d="M500 806 c0 -8 4 -17 9 -20 l9 -6 -5 20 c-6 23 -13 26 -13 6z" />
    <path d="M533 783 c4 -3 10 -3 14 0 3 4 0 7 -7 7 -7 0 -10 -3 -7 -7z" />
    <path d="M500 746 c0 -8 4 -17 8 -20 4 -2 8 4 8 15 0 10 -4 19 -8 19 -4 0 -8
-6 -8 -14z" />
    <path d="M655 720 c3 -5 8 -10 11 -10 3 0 2 5 -1 10 -3 6 -8 10 -11 10 -3 0
-2 -4 1 -10z" />
    <path d="M340 710 c0 -7 3 -10 7 -7 3 4 3 10 0 14 -4 3 -7 0 -7 -7z" />
    <path d="M500 689 c0 -5 5 -7 10 -4 6 3 10 8 10 11 0 2 -4 4 -10 4 -5 0 -10
-5 -10 -11z" />
    <path d="M533 615 c0 -27 2 -38 4 -22 2 15 2 37 0 50 -2 12 -4 0 -4 -28z" />
    <path d="M373 463 c4 -3 10 -3 14 0 3 4 0 7 -7 7 -7 0 -10 -3 -7 -7z" />
    <path d="M117 453 c24 -2 62 -2 85 0 24 2 5 4 -42 4 -47 0 -66 -2 -43 -4z" />
    <path d="M531 433 l-11 -28 15 19 c8 11 15 23 15 28 0 15 -7 8 -19 -19z" />
    <path d="M613 440 l-13 -19 10 -6 c6 -3 10 1 10 9 0 9 7 16 15 16 8 0 15 5 15
10 0 17 -25 11 -37 -10z" />
    <path d="M672 443 c0 -10 0 -22 -2 -28 -5 -20 0 -35 13 -35 l12 0 0 40 0 40
-12 0 c-6 0 -11 -8 -11 -17z" />
    <path d="M123 370 c0 -41 2 -58 4 -37 2 20 2 54 0 75 -2 20 -4 3 -4 -38z" />
    <path d="M620 390 c0 -5 7 -10 15 -10 8 0 15 5 15 10 0 6 -7 10 -15 10 -8 0
-15 -4 -15 -10z" />
    <path d="M211 374 l1 -19 5 13 c3 7 2 16 -1 19 -3 4 -6 -2 -5 -13z" />
    <path d="M365 370 c3 -5 8 -10 11 -10 2 0 4 5 4 10 0 6 -5 10 -11 10 -5 0 -7
-4 -4 -10z" />
    <path d="M400 369 c0 -5 5 -7 10 -4 6 3 10 8 10 11 0 2 -4 4 -10 4 -5 0 -10
-5 -10 -11z" />
    <path d="M920 370 c0 -7 3 -10 7 -7 3 4 3 10 0 14 -4 3 -7 0 -7 -7z" />
    <path d="M634 344 c7 -39 16 -42 16 -6 0 18 -5 32 -10 32 l-10 0 4 -26z" />
    <path d="M670 360 c0 -5 5 -10 10 -10 6 0 10 5 10 10 0 6 -4 10 -10 10 -5 0
-10 -4 -10 -10z" />
    <path d="M576 324 l-6 -17 15 13 c17 14 19 20 6 20 -5 0 -12 -7 -15 -16z" />
    <path d="M816 323 l-7 -18 12 12 c7 7 10 15 7 18 -3 3 -9 -2 -12 -12z" />
    <path d="M899 331 c-1 -3 -1 -10 0 -15 1 -5 -5 -6 -14 -3 -8 4 -15 2 -15 -3 0
-6 7 -10 15 -10 8 0 18 0 22 -1 4 0 10 8 14 19 l7 19 -14 0 c-8 0 -15 -3 -15
-6z" />
    <path d="M761 325 c0 -5 3 -16 8 -23 l8 -14 6 17 7 16 -9 -6 c-5 -3 -12 1 -14
7 -3 7 -6 9 -6 3z" />
    <path d="M155 290 l-6 -10 16 0 16 0 -6 10 c-3 6 -8 10 -10 10 -2 0 -7 -4 -10
-10z" />
    <path d="M389 283 l-14 -18 18 14 c16 13 21 21 13 21 -2 0 -10 -8 -17 -17z" />
    <path d="M550 285 c0 -9 5 -15 11 -13 6 2 11 8 11 13 0 5 -5 11 -11 13 -6 2
-11 -4 -11 -13z" />
    <path d="M800 241 c0 -6 5 -13 10 -16 l10 -6 0 15 c0 9 -4 16 -10 16 -5 0 -10
-4 -10 -9z" />
    <path d="M320 204 l0 -15 10 6 c6 3 10 10 10 16 0 5 -4 9 -10 9 -5 0 -10 -7
-10 -16z" />
    <path d="M853 213 c4 -3 10 -3 14 0 3 4 0 7 -7 7 -7 0 -10 -3 -7 -7z" />
    <path d="M70 185 l0 -14 15 5 c8 4 15 10 15 15 0 5 -7 9 -15 9 -8 0 -15 -7
-15 -15z" />
    <path d="M505 191 c-3 -5 -1 -12 5 -16 l10 -6 0 15 c0 18 -6 21 -15 7z" />
    <path d="M805 191 c-3 -5 -1 -12 5 -16 l10 -6 0 15 c0 18 -6 21 -15 7z" />
  </g>
  <g transform="translate(0.000000,100.000000) scale(0.100000,-0.100000)" fill="#89b7db" stroke="none">
    <path d="M474 848 l-7 -11 11 7 c12 7 16 16 8 16 -3 0 -8 -5 -12 -12z" />
    <path d="M465 810 c3 -5 8 -10 11 -10 2 0 4 5 4 10 0 6 -5 10 -11 10 -5 0 -7
-4 -4 -10z" />
    <path d="M408 720 c2 -22 6 -40 8 -40 2 0 4 18 4 40 0 22 -3 40 -8 40 -4 0 -6
-18 -4 -40z" />
    <path d="M344 718 l-7 -11 11 7 c12 7 16 16 8 16 -3 0 -8 -5 -12 -12z" />
    <path d="M412 635 l0 -30 5 18 c2 9 2 23 0 30 -3 6 -5 -1 -5 -18z" />
    <path d="M503 523 c4 -3 10 -3 14 0 3 4 0 7 -7 7 -7 0 -10 -3 -7 -7z" />
    <path d="M608 435 c2 -14 9 -25 14 -25 6 0 8 6 5 14 -3 7 0 19 6 25 l11 11
-21 0 -20 0 5 -25z" />
    <path d="M699 438 c4 -13 6 -30 4 -38 l-4 -15 10 16 c11 17 4 59 -10 59 l-9 0
9 -22z" />
    <path d="M760 425 c0 -19 2 -35 4 -35 2 0 6 16 8 35 2 19 0 35 -4 35 -4 0 -8
-16 -8 -35z" />
    <path d="M818 423 c6 -2 18 -2 25 0 6 3 1 5 -13 5 -14 0 -19 -2 -12 -5z" />
    <path d="M890 426 c0 -2 9 -6 20 -9 11 -3 20 -1 20 4 0 5 -9 9 -20 9 -11 0
-20 -2 -20 -4z" />
    <path d="M615 390 c-3 -5 -2 -10 4 -10 5 0 13 5 16 10 3 6 2 10 -4 10 -5 0
-13 -4 -16 -10z" />
    <path d="M368 343 l4 -35 -13 -9 -14 -9 18 0 17 0 0 39 c0 22 -4 42 -8 45 -4
2 -6 -11 -4 -31z" />
    <path d="M404 366 c-3 -8 -4 -27 -2 -43 l4 -28 5 43 c5 43 2 53 -7 28z" />
    <path d="M550 365 c0 -16 16 -20 24 -6 3 5 -1 11 -9 15 l-15 5 0 -14z" />
    <path d="M762 350 c0 -19 2 -27 5 -17 2 9 2 25 0 35 -3 9 -5 1 -5 -18z" />
    <path d="M820 370 c0 -6 7 -10 15 -10 8 0 15 2 15 4 0 2 -7 6 -15 10 -8 3 -15
1 -15 -4z" />
    <path d="M890 370 l-15 -10 18 0 c9 0 17 5 17 10 0 12 -1 12 -20 0z" />
    <path d="M815 340 c3 -5 8 -10 11 -10 3 0 2 5 -1 10 -3 6 -8 10 -11 10 -3 0
-2 -4 1 -10z" />
    <path d="M693 333 c4 -3 10 -3 14 0 3 4 0 7 -7 7 -7 0 -10 -3 -7 -7z" />
    <path d="M610 290 l-15 -11 30 7 c37 8 45 14 19 14 -10 0 -26 -5 -34 -10z" />
    <path d="M670 296 c0 -2 11 -6 25 -8 14 -3 25 -1 25 3 0 5 -11 9 -25 9 -14 0
-25 -2 -25 -4z" />
    <path d="M925 290 c-3 -5 -1 -10 4 -10 6 0 11 5 11 10 0 6 -2 10 -4 10 -3 0
-8 -4 -11 -10z" />
    <path d="M805 200 c0 -28 3 -50 6 -50 8 0 16 58 11 83 -7 35 -17 16 -17 -33z" />
    <path d="M60 229 c0 -5 5 -7 10 -4 6 3 10 8 10 11 0 2 -4 4 -10 4 -5 0 -10 -5
-10 -11z" />
    <path d="M100 225 c0 -8 4 -15 10 -15 5 0 7 7 4 15 -4 8 -8 15 -10 15 -2 0 -4
-7 -4 -15z" />
    <path d="M126 211 c-4 -7 -5 -15 -2 -18 9 -9 19 4 14 18 l-4 13 -8 -13z" />
    <path d="M463 213 c4 -3 2 -12 -5 -20 l-11 -14 10 -10 10 -10 0 13 c0 7 4 21
8 31 l7 17 -13 0 c-7 0 -9 -3 -6 -7z" />
    <path d="M505 210 c3 -5 8 -10 11 -10 2 0 4 5 4 10 0 6 -5 10 -11 10 -5 0 -7
-4 -4 -10z" />
    <path d="M657 213 c-10 -9 -9 -41 2 -47 4 -3 6 5 4 18 l-5 24 31 -3 31 -3 -6
9 c-6 11 -48 12 -57 2z" />
    <path d="M737 214 c-8 -8 1 -24 12 -24 4 0 8 7 8 15 0 16 -9 20 -20 9z" />
    <path d="M770 190 c0 -11 5 -20 10 -20 6 0 10 9 10 20 0 11 -4 20 -10 20 -5 0
-10 -9 -10 -20z" />
    <path d="M928 185 c-3 -14 -1 -25 3 -25 5 0 9 11 9 25 0 14 -2 25 -4 25 -2 0
-6 -11 -8 -25z" />
    <path d="M80 196 c0 -2 7 -9 15 -16 l15 -12 0 16 c0 9 -7 16 -15 16 -8 0 -15
-2 -15 -4z" />
    <path d="M512 170 c0 -14 2 -19 5 -12 2 6 2 18 0 25 -3 6 -5 1 -5 -13z" />
    <path d="M845 160 l-6 -10 15 0 c9 0 16 5 16 10 0 6 -4 10 -9 10 -6 0 -13 -4
-16 -10z" />
  </g>
  <g transform="translate(0.000000,100.000000) scale(0.100000,-0.100000)" fill="#688fab" stroke="none">
    <path d="M462 838 c-15 -15 -15 -28 0 -28 6 0 8 3 5 7 -4 3 -2 12 4 20 14 16
7 17 -9 1z" />
    <path d="M410 786 c0 -2 9 -6 20 -9 11 -3 20 -1 20 4 0 5 -9 9 -20 9 -11 0
-20 -2 -20 -4z" />
    <path d="M371 747 l-11 -14 15 0 c8 0 15 6 15 14 0 7 -2 13 -4 13 -2 0 -9 -6
-15 -13z" />
    <path d="M555 460 c3 -5 11 -10 16 -10 6 0 7 5 4 10 -3 6 -11 10 -16 10 -6 0
-7 -4 -4 -10z" />
    <path d="M466 445 c4 -8 8 -15 10 -15 2 0 4 7 4 15 0 8 -4 15 -10 15 -5 0 -7
-7 -4 -15z" />
    <path d="M613 424 c0 -8 6 -14 14 -14 7 0 13 4 13 9 0 5 -6 11 -13 14 l-14 5
0 -14z" />
    <path d="M212 405 l0 -30 5 18 c2 9 2 23 0 30 -3 6 -5 -1 -5 -18z" />
    <path d="M564 398 l-7 -11 11 7 c12 7 16 16 8 16 -3 0 -8 -5 -12 -12z" />
    <path d="M445 380 l-40 -7 43 -2 42 -1 0 10 c0 6 -1 9 -2 9 -2 -1 -21 -5 -43
-9z" />
    <path d="M308 373 c12 -2 32 -2 45 0 12 2 2 4 -23 4 -25 0 -35 -2 -22 -4z" />
    <path d="M591 364 l1 -19 5 13 c3 7 2 16 -1 19 -3 4 -6 -2 -5 -13z" />
    <path d="M531 323 c0 -29 3 -53 7 -53 4 0 6 17 4 38 -6 64 -10 69 -11 15z" />
    <path d="M610 360 c0 -5 7 -10 15 -10 8 0 15 5 15 10 0 6 -7 10 -15 10 -8 0
-15 -4 -15 -10z" />
    <path d="M680 360 c0 -5 7 -10 15 -10 8 0 15 5 15 10 0 6 -7 10 -15 10 -8 0
-15 -4 -15 -10z" />
    <path d="M225 350 c-3 -5 -1 -10 4 -10 6 0 11 5 11 10 0 6 -2 10 -4 10 -3 0
-8 -4 -11 -10z" />
    <path d="M805 300 c3 -5 8 -10 11 -10 3 0 2 5 -1 10 -3 6 -8 10 -11 10 -3 0
-2 -4 1 -10z" />
    <path d="M240 290 l-15 -10 18 0 c9 0 17 5 17 10 0 12 -1 12 -20 0z" />
    <path d="M755 290 c3 -5 8 -10 11 -10 3 0 2 5 -1 10 -3 6 -8 10 -11 10 -3 0
-2 -4 1 -10z" />
    <path d="M837 293 c-10 -9 -9 -23 1 -23 5 0 9 7 9 15 0 17 -1 18 -10 8z" />
    <path d="M60 240 c0 -5 5 -10 10 -10 6 0 10 5 10 10 0 6 -4 10 -10 10 -5 0
-10 -4 -10 -10z" />
    <path d="M115 240 c3 -5 8 -10 11 -10 2 0 4 5 4 10 0 6 -5 10 -11 10 -5 0 -7
-4 -4 -10z" />
    <path d="M175 240 c3 -5 10 -10 16 -10 5 0 9 5 9 10 0 6 -7 10 -16 10 l-15 0
6 -10z" />
    <path d="M150 221 c0 -6 5 -13 10 -16 l10 -6 0 15 c0 9 -4 16 -10 16 -5 0 -10
-4 -10 -9z" />
    <path d="M210 185 c0 -19 5 -35 10 -35 6 0 10 16 10 35 0 19 -4 35 -10 35 -5
0 -10 -16 -10 -35z" />
    <path d="M250 205 c0 -8 5 -15 10 -15 6 0 10 7 10 15 0 8 -4 15 -10 15 -5 0
-10 -7 -10 -15z" />
    <path d="M350 210 c0 -5 5 -10 10 -10 6 0 10 5 10 10 0 6 -4 10 -10 10 -5 0
-10 -4 -10 -10z" />
    <path d="M463 213 c4 -3 10 -3 14 0 3 4 0 7 -7 7 -7 0 -10 -3 -7 -7z" />
    <path d="M660 216 c0 -2 9 -6 20 -9 l20 -5 -6 9 c-5 9 -34 13 -34 5z" />
    <path d="M739 218 c0 -2 -3 -15 -5 -30 l-4 -27 11 -7 12 -7 -6 16 -6 17 14 0
14 0 -5 -15 -6 -15 16 0 16 0 -4 33 -3 32 -22 3 c-11 2 -21 2 -22 0z m28 -14
c-3 -3 -12 -4 -19 -1 l-13 5 19 1 c11 1 17 -2 13 -5z" />
    <path d="M70 194 l0 -15 11 7 c6 3 15 0 20 -7 l9 -14 0 16 c0 9 -7 20 -16 23
-22 9 -24 8 -24 -10z" />
    <path d="M697 196 l-17 -14 20 -5 20 -5 0 19 c0 10 -1 19 -2 19 -2 0 -11 -7
-21 -14z" />
    <path d="M450 190 c0 -5 5 -10 10 -10 6 0 10 5 10 10 0 6 -4 10 -10 10 -5 0
-10 -4 -10 -10z" />
    <path d="M180 170 c0 -11 5 -20 10 -20 6 0 10 9 10 20 0 11 -4 20 -10 20 -5 0
-10 -9 -10 -20z" />
    <path d="M280 170 c0 -11 5 -20 10 -20 6 0 10 9 10 20 0 11 -4 20 -10 20 -5 0
-10 -9 -10 -20z" />
    <path d="M137 173 c-10 -9 -9 -23 1 -23 5 0 9 7 9 15 0 17 -1 18 -10 8z" />
    <path d="M380 165 c0 -8 5 -15 10 -15 6 0 10 7 10 15 0 8 -4 15 -10 15 -5 0
-10 -7 -10 -15z" />
    <path d="M480 160 c0 -5 5 -10 10 -10 6 0 10 5 10 10 0 6 -4 10 -10 10 -5 0
-10 -4 -10 -10z" />
  </g>
  <g transform="translate(0.000000,100.000000) scale(0.100000,-0.100000)" fill="#b0d6f2" stroke="none">
    <path d="M503 863 c4 -3 10 -3 14 0 3 4 0 7 -7 7 -7 0 -10 -3 -7 -7z" />
    <path d="M540 820 l-15 -10 18 0 c9 0 17 5 17 10 0 12 -1 12 -20 0z" />
    <path d="M474 720 c0 -52 1 -74 3 -47 2 26 2 68 0 95 -2 26 -3 4 -3 -48z" />
    <path d="M533 753 c15 -2 39 -2 55 0 15 2 2 4 -28 4 -30 0 -43 -2 -27 -4z" />
    <path d="M340 673 c0 -5 10 -18 23 -29 l22 -19 -20 25 c-11 14 -21 27 -22 29
-2 2 -3 0 -3 -6z" />
    <path d="M510 666 c0 -2 7 -6 15 -10 8 -3 15 -1 15 4 0 6 -7 10 -15 10 -8 0
-15 -2 -15 -4z" />
    <path d="M645 650 c-4 -6 -11 -8 -16 -5 -5 4 -9 1 -9 -4 0 -16 16 -13 30 4 7
8 10 15 7 15 -3 0 -9 -5 -12 -10z" />
    <path d="M534 538 l-7 -11 11 7 c12 7 16 16 8 16 -3 0 -8 -5 -12 -12z" />
    <path d="M635 460 c-3 -5 -1 -10 4 -10 6 0 11 5 11 10 0 6 -2 10 -4 10 -3 0
-8 -4 -11 -10z" />
    <path d="M290 450 c0 -5 7 -7 15 -4 8 4 15 8 15 10 0 2 -7 4 -15 4 -8 0 -15
-4 -15 -10z" />
    <path d="M763 453 c4 -3 10 -3 14 0 3 4 0 7 -7 7 -7 0 -10 -3 -7 -7z" />
    <path d="M287 393 c-10 -9 -9 -23 1 -23 5 0 9 7 9 15 0 17 -1 18 -10 8z" />
    <path d="M475 390 c3 -5 8 -10 11 -10 3 0 2 5 -1 10 -3 6 -8 10 -11 10 -3 0
-2 -4 1 -10z" />
    <path d="M694 388 l-7 -11 11 7 c7 4 12 9 12 12 0 8 -9 4 -16 -8z" />
    <path d="M566 303 l-7 -18 12 12 c7 7 10 15 7 18 -3 3 -9 -2 -12 -12z" />
    <path d="M910 311 c0 -5 7 -12 16 -15 l17 -6 -13 15 c-14 17 -20 19 -20 6z" />
    <path d="M250 290 c0 -7 3 -10 7 -7 3 4 3 10 0 14 -4 3 -7 0 -7 -7z" />
    <path d="M340 289 c0 -5 5 -7 10 -4 6 3 10 8 10 11 0 2 -4 4 -10 4 -5 0 -10
-5 -10 -11z" />
    <path d="M373 273 c4 -3 10 -3 14 0 3 4 0 7 -7 7 -7 0 -10 -3 -7 -7z" />
    <path d="M104 238 l-7 -11 11 7 c12 7 16 16 8 16 -3 0 -8 -5 -12 -12z" />
    <path d="M625 239 c-4 -6 -5 -12 -2 -15 2 -3 7 2 10 11 7 17 1 20 -8 4z" />
    <path d="M826 225 c-3 -8 -1 -15 4 -15 6 0 10 7 10 15 0 8 -2 15 -4 15 -2 0
-6 -7 -10 -15z" />
    <path d="M870 235 c-1 -5 -2 -26 -4 -46 l-3 -36 11 0 12 0 -4 36 c-2 20 -5 41
-7 46 l-3 10 -2 -10z" />
    <path d="M124 208 l-7 -11 11 7 c12 7 16 16 8 16 -3 0 -8 -5 -12 -12z" />
    <path d="M320 209 c0 -5 5 -7 10 -4 6 3 10 8 10 11 0 2 -4 4 -10 4 -5 0 -10
-5 -10 -11z" />
    <path d="M454 208 l-7 -11 11 7 c12 7 16 16 8 16 -3 0 -8 -5 -12 -12z" />
    <path d="M654 208 l-7 -11 11 7 c7 4 12 9 12 12 0 8 -9 4 -16 -8z" />
    <path d="M685 210 c3 -5 8 -10 11 -10 2 0 4 5 4 10 0 6 -5 10 -11 10 -5 0 -7
-4 -4 -10z" />
    <path d="M905 210 c4 -6 11 -8 16 -5 14 9 11 15 -7 15 l-15 0 6 -10z" />
    <path d="M420 186 c0 -14 4 -27 8 -30 5 -3 6 8 4 25 -5 35 -12 38 -12 5z" />
    <path d="M708 185 c-3 -14 -1 -25 3 -25 5 0 9 11 9 25 0 14 -2 25 -4 25 -2 0
-6 -11 -8 -25z" />
    <path d="M620 176 c0 -8 4 -17 9 -20 l9 -6 -5 20 c-6 23 -13 26 -13 6z" />
    <path d="M560 171 c0 -6 4 -13 10 -16 l10 -6 -6 15 c-7 18 -14 21 -14 7z" />
    <path d="M763 173 c-17 -6 -17 -23 0 -23 8 0 14 7 14 15 0 8 -1 15 -1 14 -1 0
-7 -3 -13 -6z" />
    <path d="M830 171 c0 -6 4 -13 10 -16 l10 -6 -6 15 c-7 18 -14 21 -14 7z" />
    <path d="M280 160 c0 -5 5 -10 11 -10 5 0 7 5 4 10 -3 6 -8 10 -11 10 -2 0 -4
-4 -4 -10z" />
    <path d="M83 153 c4 -3 10 -3 14 0 3 4 0 7 -7 7 -7 0 -10 -3 -7 -7z" />
    <path d="M183 153 c4 -3 10 -3 14 0 3 4 0 7 -7 7 -7 0 -10 -3 -7 -7z" />
  </g>
  <g transform="translate(0.000000,100.000000) scale(0.100000,-0.100000)" fill="#537b99" stroke="none">
    <path d="M550 826 c0 -9 5 -16 10 -16 6 0 10 4 10 9 0 6 -4 13 -10 16 l-10 6
0 -15z" />
    <path d="M583 783 c4 -3 10 -3 14 0 3 4 0 7 -7 7 -7 0 -10 -3 -7 -7z" />
    <path d="M607 763 c-3 -4 1 -14 9 -20 l13 -13 5 9 c3 5 -1 14 -8 20 -8 7 -16
8 -19 4z" />
    <path d="M540 462 c0 -5 7 -9 15 -9 8 0 12 4 9 9 -3 4 -9 8 -15 8 -5 0 -9 -4
-9 -8z" />
    <path d="M665 460 c3 -5 8 -10 11 -10 3 0 2 5 -1 10 -3 6 -8 10 -11 10 -3 0
-2 -4 1 -10z" />
    <path d="M834 458 l-7 -11 11 7 c7 4 12 9 12 12 0 8 -9 4 -16 -8z" />
    <path d="M622 421 l-14 -8 19 -5 20 -5 0 13 c0 16 -6 17 -25 5z" />
    <path d="M920 420 c0 -7 3 -10 7 -7 3 4 3 10 0 14 -4 3 -7 0 -7 -7z" />
    <path d="M283 373 c4 -3 10 -3 14 0 3 4 0 7 -7 7 -7 0 -10 -3 -7 -7z" />
    <path d="M610 355 c0 -6 8 -11 18 -11 10 0 19 6 19 12 0 7 -9 12 -19 11 -10
-1 -18 -6 -18 -12z" />
    <path d="M679 357 l11 -11 10 10 10 10 -22 1 -21 2 12 -12z" />
    <path d="M920 360 c0 -7 3 -10 7 -7 3 4 3 10 0 14 -4 3 -7 0 -7 -7z" />
    <path d="M180 345 c0 -8 2 -15 4 -15 2 0 6 7 10 15 3 8 1 15 -4 15 -6 0 -10
-7 -10 -15z" />
    <path d="M215 340 l-6 -10 15 6 c18 7 21 14 7 14 -6 0 -13 -4 -16 -10z" />
    <path d="M800 310 l-15 -10 12 0 c6 0 15 5 18 10 8 12 4 12 -15 0z" />
    <path d="M906 303 l-7 -18 12 12 c7 7 10 15 7 18 -3 3 -9 -2 -12 -12z" />
    <path d="M655 300 l-6 -10 16 0 16 0 -6 10 c-3 6 -8 10 -10 10 -2 0 -7 -4 -10
-10z" />
    <path d="M930 290 c0 -5 5 -10 10 -10 6 0 10 5 10 10 0 6 -4 10 -10 10 -5 0
-10 -4 -10 -10z" />
    <path d="M350 240 c0 -5 5 -10 10 -10 6 0 10 5 10 10 0 6 -4 10 -10 10 -5 0
-10 -4 -10 -10z" />
    <path d="M803 243 c4 -3 10 -3 14 0 3 4 0 7 -7 7 -7 0 -10 -3 -7 -7z" />
    <path d="M870 242 c0 -5 7 -9 15 -9 8 0 15 4 15 9 0 4 -7 8 -15 8 -8 0 -15 -4
-15 -8z" />
    <path d="M150 230 c0 -5 5 -10 11 -10 5 0 7 5 4 10 -3 6 -8 10 -11 10 -2 0 -4
-4 -4 -10z" />
    <path d="M804 217 l-7 -12 8 7 c4 4 14 3 22 -3 l13 -11 0 10 c0 15 -28 23 -36
9z" />
    <path d="M75 210 c-3 -6 1 -13 10 -16 21 -9 26 -2 10 13 l-14 13 -6 -10z" />
    <path d="M217 213 c-10 -9 -8 -43 2 -43 5 0 9 11 9 25 0 27 -1 28 -11 18z" />
    <path d="M253 213 c4 -3 10 -3 14 0 3 4 0 7 -7 7 -7 0 -10 -3 -7 -7z" />
    <path d="M280 211 c0 -5 11 -8 25 -7 33 1 33 16 0 16 -14 0 -25 -4 -25 -9z" />
    <path d="M350 186 c0 -20 5 -36 10 -36 6 0 10 13 10 29 0 17 -4 33 -10 36
l-10 6 0 -35z" />
    <path d="M392 208 c-14 -14 -16 -38 -3 -38 5 0 11 11 13 25 3 14 5 25 4 25 -1
0 -7 -5 -14 -12z" />
    <path d="M420 209 c0 -5 5 -7 10 -4 6 3 10 8 10 11 0 2 -4 4 -10 4 -5 0 -10
-5 -10 -11z" />
    <path d="M490 216 c0 -2 7 -7 16 -10 l15 -6 -6 10 c-6 10 -25 14 -25 6z" />
    <path d="M683 213 c4 -3 10 -3 14 0 3 4 0 7 -7 7 -7 0 -10 -3 -7 -7z" />
    <path d="M750 216 c0 -2 7 -7 16 -10 l15 -6 -6 10 c-6 10 -25 14 -25 6z" />
    <path d="M908 213 c7 -3 16 -2 19 1 4 3 -2 6 -13 5 l-19 -1 13 -5z" />
    <path d="M450 200 c0 -5 5 -10 11 -10 5 0 7 5 4 10 -3 6 -8 10 -11 10 -2 0 -4
-4 -4 -10z" />
    <path d="M735 200 c3 -5 8 -10 11 -10 3 0 2 5 -1 10 -3 6 -8 10 -11 10 -3 0
-2 -4 1 -10z" />
    <path d="M250 175 c0 -14 4 -25 9 -25 5 0 9 11 9 25 0 14 -4 25 -9 25 -5 0 -9
-11 -9 -25z" />
    <path d="M735 170 c3 -5 8 -10 11 -10 3 0 2 5 -1 10 -3 6 -8 10 -11 10 -3 0
-2 -4 1 -10z" />
    <path d="M665 160 c3 -5 10 -10 16 -10 5 0 9 5 9 10 0 6 -7 10 -16 10 l-15 0
6 -10z" />
    <path d="M800 160 c0 -5 5 -10 11 -10 5 0 7 5 4 10 -3 6 -8 10 -11 10 -2 0 -4
-4 -4 -10z" />
    <path d="M920 160 c0 -5 5 -10 10 -10 6 0 10 5 10 10 0 6 -4 10 -10 10 -5 0
-10 -4 -10 -10z" />
    <path d="M460 138 c0 -4 12 -8 27 -8 14 0 23 3 19 7 -10 10 -46 11 -46 1z" />
  </g>
  <g transform="translate(0.000000,100.000000) scale(0.100000,-0.100000)" fill="#a1c6e1" stroke="none">
    <path d="M465 810 c3 -5 8 -10 11 -10 3 0 2 5 -1 10 -3 6 -8 10 -11 10 -3 0
-2 -4 1 -10z" />
    <path d="M386 763 c-3 -3 -5 -34 -4 -67 l2 -61 3 55 c3 30 9 57 15 61 l10 7
-10 5 c-5 4 -12 4 -16 0z" />
    <path d="M634 638 l-7 -11 11 7 c7 4 12 9 12 12 0 8 -9 4 -16 -8z" />
    <path d="M580 587 c-8 -7 -22 -21 -30 -32 -8 -11 0 -7 18 9 29 27 37 37 30 36
-2 0 -10 -6 -18 -13z" />
    <path d="M455 550 c10 -11 20 -20 23 -20 3 0 -3 9 -13 20 -10 11 -20 20 -23
20 -3 0 3 -9 13 -20z" />
    <path d="M493 523 c4 -3 10 -3 14 0 3 4 0 7 -7 7 -7 0 -10 -3 -7 -7z" />
    <path d="M540 460 c0 -7 3 -10 7 -7 3 4 3 10 0 14 -4 3 -7 0 -7 -7z" />
    <path d="M60 450 c0 -7 3 -10 7 -7 3 4 3 10 0 14 -4 3 -7 0 -7 -7z" />
    <path d="M600 456 c0 -2 7 -7 16 -10 l15 -6 -6 10 c-6 10 -25 14 -25 6z" />
    <path d="M935 450 c3 -5 8 -10 11 -10 2 0 4 5 4 10 0 6 -5 10 -11 10 -5 0 -7
-4 -4 -10z" />
    <path d="M870 430 c0 -6 7 -10 15 -10 8 0 15 2 15 4 0 2 -7 6 -15 10 -8 3 -15
1 -15 -4z" />
    <path d="M705 420 c3 -5 8 -10 11 -10 2 0 4 5 4 10 0 6 -5 10 -11 10 -5 0 -7
-4 -4 -10z" />
    <path d="M803 423 c4 -3 10 -3 14 0 3 4 0 7 -7 7 -7 0 -10 -3 -7 -7z" />
    <path d="M514 409 c-7 -12 17 -32 26 -22 3 3 -1 8 -8 10 -6 3 -10 9 -6 14 3 5
3 9 0 9 -3 0 -8 -5 -12 -11z" />
    <path d="M800 370 l-15 -10 23 0 c12 0 22 5 22 10 0 13 -11 13 -30 0z" />
    <path d="M870 370 c0 -5 5 -10 11 -10 5 0 7 5 4 10 -3 6 -8 10 -11 10 -2 0 -4
-4 -4 -10z" />
    <path d="M914 348 l-7 -11 11 7 c7 4 12 9 12 12 0 8 -9 4 -16 -8z" />
    <path d="M780 321 c0 -6 4 -13 10 -16 l10 -6 -6 15 c-7 18 -14 21 -14 7z" />
    <path d="M400 300 c0 -7 3 -10 7 -7 3 4 3 10 0 14 -4 3 -7 0 -7 -7z" />
    <path d="M50 290 c0 -5 5 -10 11 -10 5 0 7 5 4 10 -3 6 -8 10 -11 10 -2 0 -4
-4 -4 -10z" />
    <path d="M345 290 c-7 -11 22 -26 32 -16 4 3 -1 6 -11 6 l-17 0 6 10 c3 6 4
10 1 10 -3 0 -8 -5 -11 -10z" />
    <path d="M710 290 c0 -7 3 -10 7 -7 3 4 3 10 0 14 -4 3 -7 0 -7 -7z" />
    <path d="M545 280 l-6 -10 16 0 16 0 -6 10 c-3 6 -8 10 -10 10 -2 0 -7 -4 -10
-10z" />
    <path d="M821 213 c7 -12 15 -20 18 -17 3 2 -3 12 -13 22 l-18 17 13 -22z" />
    <path d="M80 205 c0 -8 4 -15 10 -15 5 0 7 7 4 15 -4 8 -8 15 -10 15 -2 0 -4
-7 -4 -15z" />
    <path d="M350 210 c0 -7 3 -10 7 -7 3 4 3 10 0 14 -4 3 -7 0 -7 -7z" />
    <path d="M424 208 l-7 -11 11 7 c12 7 16 16 8 16 -3 0 -8 -5 -12 -12z" />
    <path d="M925 210 c3 -5 8 -10 11 -10 3 0 2 5 -1 10 -3 6 -8 10 -11 10 -3 0
-2 -4 1 -10z" />
    <path d="M600 201 c0 -5 7 -11 15 -15 l15 -5 0 14 c0 8 -7 15 -15 15 -8 0 -15
-4 -15 -9z" />
    <path d="M770 199 c0 -5 5 -7 10 -4 6 3 10 8 10 11 0 2 -4 4 -10 4 -5 0 -10
-5 -10 -11z" />
    <path d="M251 184 l1 -19 5 13 c3 7 2 16 -1 19 -3 4 -6 -2 -5 -13z" />
    <path d="M745 190 c3 -5 8 -10 11 -10 2 0 4 5 4 10 0 6 -5 10 -11 10 -5 0 -7
-4 -4 -10z" />
    <path d="M96 163 l-7 -18 12 12 c7 7 10 15 7 18 -3 3 -9 -2 -12 -12z" />
    <path d="M144 171 c4 -5 1 -12 -4 -14 l-10 -5 12 2 c15 3 23 26 8 26 -6 0 -9
-4 -6 -9z" />
    <path d="M320 165 c0 -8 4 -15 10 -15 5 0 7 7 4 15 -4 8 -8 15 -10 15 -2 0 -4
-7 -4 -15z" />
    <path d="M574 158 l-7 -11 11 7 c12 7 16 16 8 16 -3 0 -8 -5 -12 -12z" />
    <path d="M675 160 l-6 -10 20 0 c12 0 21 5 21 10 0 6 -6 10 -14 10 -8 0 -18
-4 -21 -10z" />
    <path d="M740 160 c0 -5 7 -10 16 -10 l15 0 -6 10 c-3 6 -10 10 -16 10 -5 0
-9 -4 -9 -10z" />
    <path d="M480 156 c0 -2 7 -9 15 -16 l15 -13 -6 17 c-3 9 -10 16 -15 16 -5 0
-9 -2 -9 -4z" />
    <path d="M843 153 c4 -3 10 -3 14 0 3 4 0 7 -7 7 -7 0 -10 -3 -7 -7z" />
  </g>
  <g transform="translate(0.000000,100.000000) scale(0.100000,-0.100000)" fill="#cae6f7" stroke="none">
    <path d="M533 850 c15 -12 25 -26 21 -31 -3 -5 0 -9 5 -9 25 0 -1 36 -39 54
-8 4 -3 -2 13 -14z" />
    <path d="M453 813 c4 -3 10 -3 14 0 3 4 0 7 -7 7 -7 0 -10 -3 -7 -7z" />
    <path d="M616 745 c4 -8 8 -15 10 -15 2 0 4 7 4 15 0 8 -4 15 -10 15 -5 0 -7
-7 -4 -15z" />
    <path d="M623 633 c4 -3 10 -3 14 0 3 4 0 7 -7 7 -7 0 -10 -3 -7 -7z" />
    <path d="M563 573 c4 -3 10 -3 14 0 3 4 0 7 -7 7 -7 0 -10 -3 -7 -7z" />
    <path d="M290 450 c0 -7 3 -10 7 -7 3 4 3 10 0 14 -4 3 -7 0 -7 -7z" />
    <path d="M463 453 c4 -3 10 -3 14 0 3 4 0 7 -7 7 -7 0 -10 -3 -7 -7z" />
    <path d="M933 453 c4 -3 10 -3 14 0 3 4 0 7 -7 7 -7 0 -10 -3 -7 -7z" />
    <path d="M480 380 c0 -7 3 -10 7 -7 3 4 3 10 0 14 -4 3 -7 0 -7 -7z" />
    <path d="M813 373 c4 -3 10 -3 14 0 3 4 0 7 -7 7 -7 0 -10 -3 -7 -7z" />
    <path d="M940 290 c0 -7 3 -10 7 -7 3 4 3 10 0 14 -4 3 -7 0 -7 -7z" />
    <path d="M340 280 c0 -5 5 -10 11 -10 5 0 7 5 4 10 -3 6 -8 10 -11 10 -2 0 -4
-4 -4 -10z" />
    <path d="M63 243 c4 -3 10 -3 14 0 3 4 0 7 -7 7 -7 0 -10 -3 -7 -7z" />
    <path d="M113 243 c4 -3 10 -3 14 0 3 4 0 7 -7 7 -7 0 -10 -3 -7 -7z" />
    <path d="M168 243 c6 -2 18 -2 25 0 6 3 1 5 -13 5 -14 0 -19 -2 -12 -5z" />
    <path d="M350 239 c0 -5 5 -7 10 -4 6 3 10 8 10 11 0 2 -4 4 -10 4 -5 0 -10
-5 -10 -11z" />
    <path d="M564 238 l-7 -11 11 7 12 7 1 -43 0 -43 9 23 9 22 -9 25 c-11 28 -15
30 -26 13z" />
    <path d="M870 240 c0 -7 3 -10 7 -7 3 4 3 10 0 14 -4 3 -7 0 -7 -7z" />
    <path d="M890 240 c0 -7 3 -10 7 -7 3 4 3 10 0 14 -4 3 -7 0 -7 -7z" />
    <path d="M450 200 c0 -7 3 -10 7 -7 3 4 3 10 0 14 -4 3 -7 0 -7 -7z" />
    <path d="M890 190 c0 -7 3 -10 7 -7 3 4 3 10 0 14 -4 3 -7 0 -7 -7z" />
    <path d="M70 180 c0 -7 3 -10 7 -7 3 4 3 10 0 14 -4 3 -7 0 -7 -7z" />
    <path d="M250 160 c0 -5 5 -10 11 -10 5 0 7 5 4 10 -3 6 -8 10 -11 10 -2 0 -4
-4 -4 -10z" />
    <path d="M350 160 c0 -5 5 -10 11 -10 5 0 7 5 4 10 -3 6 -8 10 -11 10 -2 0 -4
-4 -4 -10z" />
    <path d="M380 160 c0 -5 5 -10 11 -10 5 0 7 5 4 10 -3 6 -8 10 -11 10 -2 0 -4
-4 -4 -10z" />
    <path d="M775 160 c-3 -5 -1 -10 4 -10 6 0 11 5 11 10 0 6 -2 10 -4 10 -3 0
-8 -4 -11 -10z" />
    <path d="M855 160 c-3 -5 -1 -10 4 -10 6 0 11 5 11 10 0 6 -2 10 -4 10 -3 0
-8 -4 -11 -10z" />
    <path d="M884 158 l-7 -11 11 7 c7 4 12 9 12 12 0 8 -9 4 -16 -8z" />
    <path d="M925 160 c-3 -5 -1 -10 4 -10 6 0 11 5 11 10 0 6 -2 10 -4 10 -3 0
-8 -4 -11 -10z" />
    <path d="M213 153 c4 -3 10 -3 14 0 3 4 0 7 -7 7 -7 0 -10 -3 -7 -7z" />
    <path d="M323 153 c4 -3 10 -3 14 0 3 4 0 7 -7 7 -7 0 -10 -3 -7 -7z" />
    <path d="M483 153 c4 -3 10 -3 14 0 3 4 0 7 -7 7 -7 0 -10 -3 -7 -7z" />
    <path d="M803 153 c4 -3 10 -3 14 0 3 4 0 7 -7 7 -7 0 -10 -3 -7 -7z" />
  </g>
  <g transform="translate(0.000000,100.000000) scale(0.100000,-0.100000)" fill="#6199c4" stroke="none">
    <path d="M401 776 l-12 -14 11 -7 c6 -4 14 -4 17 -1 4 3 1 6 -7 6 l-12 0 12
15 c7 8 10 15 7 15 -2 0 -10 -6 -16 -14z" />
    <path d="M354 728 l-7 -11 11 7 c12 7 16 16 8 16 -3 0 -8 -5 -12 -12z" />
    <path d="M560 451 c0 -4 11 -6 25 -3 14 2 25 6 25 8 0 2 -11 4 -25 4 -14 0
-25 -4 -25 -9z" />
    <path d="M619 443 l-14 -18 20 15 c11 8 22 16 24 17 2 2 0 3 -6 3 -6 0 -17 -8
-24 -17z" />
    <path d="M670 450 c0 -5 7 -7 15 -4 8 4 15 8 15 10 0 2 -7 4 -15 4 -8 0 -15
-4 -15 -10z" />
    <path d="M793 453 c9 -2 25 -2 35 0 9 3 1 5 -18 5 -19 0 -27 -2 -17 -5z" />
    <path d="M883 453 c9 -2 25 -2 35 0 9 3 1 5 -18 5 -19 0 -27 -2 -17 -5z" />
    <path d="M850 436 c0 -2 7 -6 15 -10 8 -3 15 -1 15 4 0 6 -7 10 -15 10 -8 0
-15 -2 -15 -4z" />
    <path d="M550 410 c0 -11 4 -20 9 -20 5 0 7 9 4 20 -3 11 -7 20 -9 20 -2 0 -4
-9 -4 -20z" />
    <path d="M590 401 c0 -5 7 -12 16 -15 l17 -6 -13 15 c-14 17 -20 19 -20 6z" />
    <path d="M532 380 c0 -14 2 -19 5 -12 2 6 2 18 0 25 -3 6 -5 1 -5 -13z" />
    <path d="M870 370 c0 -7 3 -10 7 -7 3 4 3 10 0 14 -4 3 -7 0 -7 -7z" />
    <path d="M673 363 c4 -3 10 -3 14 0 3 4 0 7 -7 7 -7 0 -10 -3 -7 -7z" />
    <path d="M183 353 c4 -3 10 -3 14 0 3 4 0 7 -7 7 -7 0 -10 -3 -7 -7z" />
    <path d="M875 340 c3 -5 8 -10 11 -10 3 0 2 5 -1 10 -3 6 -8 10 -11 10 -3 0
-2 -4 1 -10z" />
    <path d="M530 330 c0 -7 3 -10 7 -7 3 4 3 10 0 14 -4 3 -7 0 -7 -7z" />
    <path d="M605 319 c-4 -6 -5 -12 -2 -15 2 -3 7 2 10 11 7 17 1 20 -8 4z" />
    <path d="M59 287 c4 -4 48 -6 97 -5 l89 3 -97 5 c-53 3 -94 1 -89 -3z" />
    <path d="M614 288 l-7 -11 11 7 c12 7 16 16 8 16 -3 0 -8 -5 -12 -12z" />
    <path d="M180 201 c0 -11 5 -23 10 -26 l10 -6 0 25 c0 14 -4 26 -10 26 -5 0
-10 -9 -10 -19z" />
    <path d="M281 190 l0 -35 11 23 11 23 -11 11 -12 12 1 -34z" />
    <path d="M380 192 c0 -17 4 -33 8 -36 10 -6 10 50 0 60 -5 4 -8 -7 -8 -24z" />
    <path d="M320 200 c0 -7 3 -10 7 -7 3 4 3 10 0 14 -4 3 -7 0 -7 -7z" />
    <path d="M765 200 c-3 -5 -1 -10 4 -10 6 0 11 5 11 10 0 6 -2 10 -4 10 -3 0
-8 -4 -11 -10z" />
    <path d="M710 190 c0 -7 3 -10 7 -7 3 4 3 10 0 14 -4 3 -7 0 -7 -7z" />
    <path d="M673 183 c4 -3 10 -3 14 0 3 4 0 7 -7 7 -7 0 -10 -3 -7 -7z" />
  </g>
  <g transform="translate(0.000000,100.000000) scale(0.100000,-0.100000)" fill="#77a6c9" stroke="none">
    <path d="M443 705 c0 -44 2 -61 4 -37 2 23 2 59 0 80 -2 20 -4 1 -4 -43z" />
    <path d="M386 762 c-3 -5 1 -9 9 -9 8 0 12 4 9 9 -3 4 -7 8 -9 8 -2 0 -6 -4
-9 -8z" />
    <path d="M410 730 c0 -7 3 -10 7 -7 3 4 3 10 0 14 -4 3 -7 0 -7 -7z" />
    <path d="M533 723 c15 -2 37 -2 50 0 12 2 0 4 -28 4 -27 0 -38 -2 -22 -4z" />
    <path d="M506 692 c-2 -4 11 -6 30 -4 19 2 34 6 34 8 0 8 -59 4 -64 -4z" />
    <path d="M412 670 c0 -14 2 -19 5 -12 2 6 2 18 0 25 -3 6 -5 1 -5 -13z" />
    <path d="M410 610 c0 -7 3 -10 7 -7 3 4 3 10 0 14 -4 3 -7 0 -7 -7z" />
    <path d="M564 448 l-7 -11 11 7 c12 7 16 16 8 16 -3 0 -8 -5 -12 -12z" />
    <path d="M693 453 c4 -3 10 -3 14 0 3 4 0 7 -7 7 -7 0 -10 -3 -7 -7z" />
    <path d="M773 453 c4 -3 10 -3 14 0 3 4 0 7 -7 7 -7 0 -10 -3 -7 -7z" />
    <path d="M923 453 c4 -3 10 -3 14 0 3 4 0 7 -7 7 -7 0 -10 -3 -7 -7z" />
    <path d="M292 430 c0 -14 2 -19 5 -12 2 6 2 18 0 25 -3 6 -5 1 -5 -13z" />
    <path d="M328 433 c7 -3 16 -2 19 1 4 3 -2 6 -13 5 l-19 -1 13 -5z" />
    <path d="M373 433 c9 -2 23 -2 30 0 6 3 -1 5 -18 5 l-30 0 18 -5z" />
    <path d="M428 433 c7 -3 16 -2 19 1 4 3 -2 6 -13 5 l-19 -1 13 -5z" />
    <path d="M633 423 c4 -3 10 -3 14 0 3 4 0 7 -7 7 -7 0 -10 -3 -7 -7z" />
    <path d="M633 363 c4 -3 10 -3 14 0 3 4 0 7 -7 7 -7 0 -10 -3 -7 -7z" />
    <path d="M683 333 c4 -3 10 -3 14 0 3 4 0 7 -7 7 -7 0 -10 -3 -7 -7z" />
    <path d="M183 213 c4 -3 10 -3 14 0 3 4 0 7 -7 7 -7 0 -10 -3 -7 -7z" />
    <path d="M285 210 c3 -5 8 -10 11 -10 3 0 2 5 -1 10 -3 6 -8 10 -11 10 -3 0
-2 -4 1 -10z" />
    <path d="M603 213 c-31 -6 -29 -23 2 -21 l25 2 0 13 c0 7 -1 12 -2 12 -2 -1
-13 -4 -25 -6z" />
    <path d="M75 190 l-6 -10 15 6 c18 7 21 14 7 14 -6 0 -13 -4 -16 -10z" />
    <path d="M750 192 c0 -4 9 -13 20 -20 l20 -12 0 10 c0 5 -5 10 -11 10 -5 0 -7
5 -4 10 l6 10 -15 0 c-9 0 -16 -3 -16 -8z" />
    <path d="M140 180 c0 -5 5 -10 11 -10 5 0 7 5 4 10 -3 6 -8 10 -11 10 -2 0 -4
-4 -4 -10z" />
  </g>
  <g transform="translate(0.000000,100.000000) scale(0.100000,-0.100000)" fill="#8dacc3" stroke="none">
    <path d="M440 780 c0 -7 3 -10 7 -7 3 4 3 10 0 14 -4 3 -7 0 -7 -7z" />
    <path d="M440 730 c0 -7 3 -10 7 -7 3 4 3 10 0 14 -4 3 -7 0 -7 -7z" />
    <path d="M410 670 c0 -7 3 -10 7 -7 3 4 3 10 0 14 -4 3 -7 0 -7 -7z" />
    <path d="M348 433 c7 -3 16 -2 19 1 4 3 -2 6 -13 5 l-19 -1 13 -5z" />
    <path d="M408 433 c7 -3 16 -2 19 1 4 3 -2 6 -13 5 l-19 -1 13 -5z" />
    <path d="M705 420 c3 -5 8 -10 11 -10 3 0 2 5 -1 10 -3 6 -8 10 -11 10 -3 0
-2 -4 1 -10z" />
    <path d="M933 393 c4 -3 10 -3 14 0 3 4 0 7 -7 7 -7 0 -10 -3 -7 -7z" />
    <path d="M759 283 l-14 -18 18 14 c16 13 21 21 13 21 -2 0 -10 -8 -17 -17z" />
    <path d="M345 280 c3 -5 8 -10 11 -10 3 0 2 5 -1 10 -3 6 -8 10 -11 10 -3 0
-2 -4 1 -10z" />
    <path d="M540 280 l-15 -10 12 0 c6 0 15 5 18 10 8 12 4 12 -15 0z" />
    <path d="M838 273 c7 -3 16 -2 19 1 4 3 -2 6 -13 5 l-19 -1 13 -5z" />
    <path d="M354 238 l-7 -11 11 7 c12 7 16 16 8 16 -3 0 -8 -5 -12 -12z" />
    <path d="M150 230 c0 -7 3 -10 7 -7 3 4 3 10 0 14 -4 3 -7 0 -7 -7z" />
    <path d="M385 210 c3 -5 8 -10 11 -10 3 0 2 5 -1 10 -3 6 -8 10 -11 10 -3 0
-2 -4 1 -10z" />
    <path d="M350 186 c0 -14 4 -27 8 -30 5 -3 6 8 4 25 -5 35 -12 38 -12 5z" />
    <path d="M585 200 l-6 -10 15 0 c9 0 16 5 16 10 0 6 -4 10 -9 10 -6 0 -13 -4
-16 -10z" />
    <path d="M220 180 c0 -7 3 -10 7 -7 3 4 3 10 0 14 -4 3 -7 0 -7 -7z" />
    <path d="M250 171 c0 -6 4 -13 10 -16 l10 -6 -6 15 c-7 18 -14 21 -14 7z" />
    <path d="M780 171 l0 -13 -20 5 c-11 3 -20 1 -20 -4 0 -13 37 -11 45 2 4 6 4
13 1 16 -3 4 -6 1 -6 -6z" />
    <path d="M690 160 l-15 -10 17 0 c9 0 20 5 23 10 8 13 -5 13 -25 0z" />
    <path d="M854 158 l-7 -11 11 7 c7 4 12 9 12 12 0 8 -9 4 -16 -8z" />
    <path d="M924 158 l-7 -11 11 7 c7 4 12 9 12 12 0 8 -9 4 -16 -8z" />
    <path d="M455 140 c3 -5 8 -10 11 -10 2 0 4 5 4 10 0 6 -5 10 -11 10 -5 0 -7
-4 -4 -10z" />
  </g>
  <g transform="translate(0.000000,100.000000) scale(0.100000,-0.100000)" fill="#6eb1e5" stroke="none">
    <path d="M673 442 c0 -12 5 -22 9 -22 11 0 10 12 -2 30 l-9 15 2 -23z" />
    <path d="M844 428 l-7 -11 11 7 c7 4 12 9 12 12 0 8 -9 4 -16 -8z" />
    <path d="M590 400 c0 -7 3 -10 7 -7 3 4 3 10 0 14 -4 3 -7 0 -7 -7z" />
    <path d="M630 395 l-13 -15 17 6 c9 3 16 10 16 15 0 13 -6 11 -20 -6z" />
    <path d="M674 398 l-7 -11 11 7 c7 4 12 9 12 12 0 8 -9 4 -16 -8z" />
    <path d="M870 398 c0 -4 9 -8 20 -8 11 0 20 4 20 8 0 4 -9 8 -20 8 -11 0 -20
-4 -20 -8z" />
    <path d="M550 338 c0 -34 3 -58 7 -55 10 11 12 117 2 117 -5 0 -9 -28 -9 -62z" />
    <path d="M761 384 l1 -19 5 13 c3 7 2 16 -1 19 -3 4 -6 -2 -5 -13z" />
    <path d="M803 393 c9 -2 25 -2 35 0 9 3 1 5 -18 5 -19 0 -27 -2 -17 -5z" />
    <path d="M900 370 c0 -7 3 -10 7 -7 3 4 3 10 0 14 -4 3 -7 0 -7 -7z" />
    <path d="M580 340 c0 -5 5 -10 10 -10 6 0 10 5 10 10 0 6 -4 10 -10 10 -5 0
-10 -4 -10 -10z" />
    <path d="M610 334 l0 -12 20 5 c11 3 20 8 20 12 0 4 -9 7 -20 7 -11 0 -20 -6
-20 -12z" />
    <path d="M673 333 c4 -3 10 -3 14 0 3 4 0 7 -7 7 -7 0 -10 -3 -7 -7z" />
    <path d="M837 315 c-4 -8 -3 -16 1 -19 4 -3 9 4 9 15 2 23 -3 25 -10 4z" />
    <path d="M658 293 c7 -3 16 -2 19 1 4 3 -2 6 -13 5 l-19 -1 13 -5z" />
    <path d="M511 194 l1 -19 5 13 c3 7 2 16 -1 19 -3 4 -6 -2 -5 -13z" />
    <path d="M621 194 l1 -19 5 13 c3 7 2 16 -1 19 -3 4 -6 -2 -5 -13z" />
    <path d="M385 191 c-3 -5 -2 -12 3 -15 5 -3 9 1 9 9 0 17 -3 19 -12 6z" />
  </g>
  <g transform="translate(0.000000,100.000000) scale(0.100000,-0.100000)" fill="#4f90c1" stroke="none">
    <path d="M504 748 l-7 -11 11 7 c12 7 16 16 8 16 -3 0 -8 -5 -12 -12z" />
    <path d="M500 675 c0 -8 4 -15 10 -15 5 0 7 7 4 15 -4 8 -8 15 -10 15 -2 0 -4
-7 -4 -15z" />
    <path d="M210 430 c0 -7 3 -10 7 -7 3 4 3 10 0 14 -4 3 -7 0 -7 -7z" />
    <path d="M471 424 l1 -19 5 13 c3 7 2 16 -1 19 -3 4 -6 -2 -5 -13z" />
    <path d="M870 430 c0 -7 3 -10 7 -7 3 4 3 10 0 14 -4 3 -7 0 -7 -7z" />
    <path d="M673 423 c4 -3 10 -3 14 0 3 4 0 7 -7 7 -7 0 -10 -3 -7 -7z" />
    <path d="M640 400 c0 -7 3 -10 7 -7 3 4 3 10 0 14 -4 3 -7 0 -7 -7z" />
    <path d="M613 383 c4 -3 10 -3 14 0 3 4 0 7 -7 7 -7 0 -10 -3 -7 -7z" />
    <path d="M585 351 c-3 -5 -1 -12 5 -16 l10 -6 0 15 c0 18 -6 21 -15 7z" />
    <path d="M800 336 c0 -8 4 -17 8 -20 4 -2 8 4 8 15 0 10 -4 19 -8 19 -4 0 -8
-6 -8 -14z" />
    <path d="M896 334 l-6 -17 15 13 c17 14 19 20 6 20 -5 0 -12 -7 -15 -16z" />
    <path d="M83 283 c4 -3 10 -3 14 0 3 4 0 7 -7 7 -7 0 -10 -3 -7 -7z" />
    <path d="M153 283 c4 -3 10 -3 14 0 3 4 0 7 -7 7 -7 0 -10 -3 -7 -7z" />
    <path d="M183 283 c4 -3 10 -3 14 0 3 4 0 7 -7 7 -7 0 -10 -3 -7 -7z" />
    <path d="M213 283 c4 -3 10 -3 14 0 3 4 0 7 -7 7 -7 0 -10 -3 -7 -7z" />
    <path d="M620 210 c0 -7 3 -10 7 -7 3 4 3 10 0 14 -4 3 -7 0 -7 -7z" />
    <path d="M131 193 c7 -12 15 -20 18 -17 3 2 -3 12 -13 22 l-18 17 13 -22z" />
    <path d="M290 200 c0 -7 3 -10 7 -7 3 4 3 10 0 14 -4 3 -7 0 -7 -7z" />
    <path d="M390 200 c0 -7 3 -10 7 -7 3 4 3 10 0 14 -4 3 -7 0 -7 -7z" />
    <path d="M764 188 l-7 -11 11 7 c7 4 12 9 12 12 0 8 -9 4 -16 -8z" />
  </g>
  <g transform="translate(0.000000,100.000000) scale(0.100000,-0.100000)" fill="#96d2fa" stroke="none">
    <path d="M560 390 c0 -7 3 -10 7 -7 3 4 3 10 0 14 -4 3 -7 0 -7 -7z" />
    <path d="M612 350 c0 -14 2 -19 5 -12 2 6 2 18 0 25 -3 6 -5 1 -5 -13z" />
    <path d="M803 343 c4 -3 10 -3 14 0 3 4 0 7 -7 7 -7 0 -10 -3 -7 -7z" />
    <path d="M900 346 c0 -2 7 -7 16 -10 l15 -6 -6 10 c-6 10 -25 14 -25 6z" />
    <path d="M885 330 c3 -5 8 -10 11 -10 3 0 2 5 -1 10 -3 6 -8 10 -11 10 -3 0
-2 -4 1 -10z" />
    <path d="M870 299 c0 -5 5 -7 10 -4 6 3 10 8 10 11 0 2 -4 4 -10 4 -5 0 -10
-5 -10 -11z" />
    <path d="M620 220 c0 -7 3 -10 7 -7 3 4 3 10 0 14 -4 3 -7 0 -7 -7z" />
    <path d="M321 184 l1 -19 5 13 c3 7 2 16 -1 19 -3 4 -6 -2 -5 -13z" />
    <path d="M753 183 c4 -3 10 -3 14 0 3 4 0 7 -7 7 -7 0 -10 -3 -7 -7z" />
  </g>
  <g transform="translate(0.000000,100.000000) scale(0.100000,-0.100000)" fill="#b5cbda" stroke="none">
    <path d="M608 753 c7 -3 16 -2 19 1 4 3 -2 6 -13 5 l-19 -1 13 -5z" />
    <path d="M375 640 c-3 -5 -1 -10 4 -10 6 0 11 5 11 10 0 6 -2 10 -4 10 -3 0
-8 -4 -11 -10z" />
    <path d="M154 238 l-7 -11 11 7 c12 7 16 16 8 16 -3 0 -8 -5 -12 -12z" />
    <path d="M834 238 l-7 -11 11 7 c7 4 12 9 12 12 0 8 -9 4 -16 -8z" />
    <path d="M593 193 c4 -3 10 -3 14 0 3 4 0 7 -7 7 -7 0 -10 -3 -7 -7z" />
    <path d="M831 184 l1 -19 5 13 c3 7 2 16 -1 19 -3 4 -6 -2 -5 -13z" />
    <path d="M453 143 c4 -3 10 -3 14 0 3 4 0 7 -7 7 -7 0 -10 -3 -7 -7z" />
  </g>
</svg>